<svg width="current" height="current" viewBox="0 0 24 21" fill="none" xmlns="http://www.w3.org/2000/svg">
<path d="M22.0982 8.3826L22.0981 8.3825L15.373 1.86261C15.3729 1.86253 15.3728 1.86246 15.3727 1.86239C14.9454 1.44795 14.4047 1.169 13.8204 1.05623C13.2361 0.943461 12.6301 1.00098 12.0779 1.22273L12.0571 1.23109L12.0367 1.24038L11.8886 1.3077L11.8732 1.31469L11.8581 1.32219C11.3617 1.56842 10.9408 1.94486 10.6449 2.4137C10.3489 2.88284 10.1906 3.42493 10.1904 3.97998L10.1904 3.98022L10.1904 5.54035L4.04232 5.54035C3.24528 5.54035 2.47487 5.84702 1.90212 6.40229C1.32831 6.95859 1 7.71981 1 8.52034L1 12.4803L1 12.4975L1.00059 12.5147L1.00569 12.6632L1.00643 12.6847L1.0081 12.7062C1.06698 13.4651 1.41922 14.1677 1.98442 14.6758C2.5487 15.1831 3.28418 15.4605 4.04246 15.4603C4.04251 15.4603 4.04257 15.4603 4.04263 15.4603L10.1904 15.4595L10.1904 17.0204L10.1904 17.0207C10.1906 17.617 10.3732 18.1972 10.7115 18.6878C11.0494 19.1781 11.5264 19.5555 12.0786 19.7773C12.6306 19.9989 13.2363 20.0565 13.8204 19.9439C14.4046 19.8313 14.9453 19.5526 15.3726 19.1384L15.3727 19.1383L22.0981 12.6182L22.0982 12.6181C22.6718 12.0618 23 11.3007 23 10.5003C23 9.69996 22.6718 8.93888 22.0982 8.3826Z"
fill="current" stroke="white" stroke-width="2"/>
</svg>
