<svg width="26" height="27" viewBox="0 0 26 27" fill="none" xmlns="http://www.w3.org/2000/svg">
<path fill-rule="evenodd" clip-rule="evenodd" d="M12.3612 3.12939C13.217 3.20523 13.7186 3.49773 14.023 3.83573C14.3946 4.24848 14.6253 4.90064 14.6253 5.81931C14.6255 6.10676 14.5494 6.38909 14.4048 6.63752C14.2602 6.88595 14.0523 7.09158 13.8023 7.23343C13.5523 7.37528 13.2691 7.44828 12.9817 7.44498C12.6942 7.44168 12.4128 7.3622 12.1662 7.21464L12.0253 7.11931C11.9115 7.03395 11.782 6.97185 11.6442 6.93654C11.5064 6.90123 11.363 6.89341 11.2221 6.91353C11.0813 6.93365 10.9458 6.98131 10.8234 7.0538C10.701 7.12628 10.594 7.22217 10.5087 7.33598C10.4233 7.44979 10.3612 7.5793 10.3259 7.71712C10.2906 7.85493 10.2828 7.99835 10.3029 8.13918C10.3435 8.42361 10.4955 8.68025 10.7253 8.85264C11.2887 9.27514 11.9585 9.53242 12.6598 9.59566C13.3611 9.65889 14.0662 9.52559 14.696 9.21068C15.3258 8.89577 15.8555 8.4117 16.2257 7.81271C16.5959 7.21372 16.792 6.52347 16.792 5.81931C16.792 5.07723 16.6815 4.33623 16.415 3.66023C20.7245 5.09023 23.8337 9.15381 23.8337 13.9443C23.8337 19.9276 18.9836 24.7776 13.0003 24.7776C7.01708 24.7776 2.16699 19.9276 2.16699 13.9443C2.16699 8.17556 6.67582 3.46089 12.3612 3.12939ZM15.8603 17.4456C15.6396 17.2618 15.355 17.1732 15.069 17.1992C14.7829 17.2252 14.5189 17.3637 14.335 17.5843C13.9461 18.0501 13.4705 18.2776 13.0003 18.2776C12.5302 18.2776 12.0546 18.0501 11.6657 17.5843C11.4794 17.3715 11.2174 17.2399 10.9354 17.2176C10.6535 17.1954 10.374 17.2843 10.1568 17.4654C9.93951 17.6464 9.80166 17.9053 9.77267 18.1866C9.74369 18.4679 9.82587 18.7494 10.0017 18.971C10.7297 19.8452 11.7827 20.4443 13.0003 20.4443C14.218 20.4443 15.271 19.8452 15.999 18.971C16.1828 18.7503 16.2714 18.4656 16.2454 18.1796C16.2194 17.8936 16.0809 17.6296 15.8603 17.4456ZM9.20866 11.7776C8.77768 11.7776 8.36436 11.9488 8.05961 12.2536C7.75486 12.5583 7.58366 12.9717 7.58366 13.4026C7.58366 13.8336 7.75486 14.2469 8.05961 14.5517C8.36436 14.8564 8.77768 15.0276 9.20866 15.0276C9.63964 15.0276 10.053 14.8564 10.3577 14.5517C10.6625 14.2469 10.8337 13.8336 10.8337 13.4026C10.8337 12.9717 10.6625 12.5583 10.3577 12.2536C10.053 11.9488 9.63964 11.7776 9.20866 11.7776ZM16.792 11.7776C16.361 11.7776 15.9477 11.9488 15.6429 12.2536C15.3382 12.5583 15.167 12.9717 15.167 13.4026C15.167 13.8336 15.3382 14.2469 15.6429 14.5517C15.9477 14.8564 16.361 15.0276 16.792 15.0276C17.223 15.0276 17.6363 14.8564 17.941 14.5517C18.2458 14.2469 18.417 13.8336 18.417 13.4026C18.417 12.9717 18.2458 12.5583 17.941 12.2536C17.6363 11.9488 17.223 11.7776 16.792 11.7776Z" fill="#C3C3C3"/>
</svg>
