<svg width="20" height="20" viewBox="0 0 20 20" fill="none" xmlns="http://www.w3.org/2000/svg">
<path fill-rule="evenodd" clip-rule="evenodd" d="M14.3333 0.194336C14.6207 0.194336 14.8962 0.308472 15.0994 0.511637C15.3025 0.714801 15.4167 0.990351 15.4167 1.27767V2.361H17.5833C18.158 2.361 18.7091 2.58928 19.1154 2.9956C19.5217 3.40193 19.75 3.95303 19.75 4.52767V17.5277C19.75 18.1023 19.5217 18.6534 19.1154 19.0597C18.7091 19.4661 18.158 19.6943 17.5833 19.6943H2.41667C1.84203 19.6943 1.29093 19.4661 0.884602 19.0597C0.478273 18.6534 0.25 18.1023 0.25 17.5277V4.52767C0.25 3.95303 0.478273 3.40193 0.884602 2.9956C1.29093 2.58928 1.84203 2.361 2.41667 2.361H4.58333V1.27767C4.58333 0.990351 4.69747 0.714801 4.90063 0.511637C5.1038 0.308472 5.37935 0.194336 5.66667 0.194336C5.95398 0.194336 6.22953 0.308472 6.4327 0.511637C6.63586 0.714801 6.75 0.990351 6.75 1.27767V2.361H13.25V1.27767C13.25 0.990351 13.3641 0.714801 13.5673 0.511637C13.7705 0.308472 14.046 0.194336 14.3333 0.194336ZM5.6775 14.2777H5.66667C5.39055 14.278 5.12497 14.3837 4.92418 14.5733C4.7234 14.7628 4.60258 15.0219 4.5864 15.2975C4.57022 15.5732 4.6599 15.8446 4.83712 16.0563C5.01434 16.2681 5.26573 16.4041 5.53992 16.4368L5.6775 16.4443C5.96482 16.4443 6.24037 16.3302 6.44353 16.127C6.6467 15.9239 6.76083 15.6483 6.76083 15.361C6.76083 15.0737 6.6467 14.7981 6.44353 14.595C6.24037 14.3918 5.96482 14.2777 5.6775 14.2777ZM10.0108 14.2777H10C9.72388 14.278 9.4583 14.3837 9.25752 14.5733C9.05674 14.7628 8.93591 15.0219 8.91973 15.2975C8.90355 15.5732 8.99323 15.8446 9.17045 16.0563C9.34768 16.2681 9.59906 16.4041 9.87325 16.4368L10.0108 16.4443C10.2982 16.4443 10.5737 16.3302 10.7769 16.127C10.98 15.9239 11.0942 15.6483 11.0942 15.361C11.0942 15.0737 10.98 14.7981 10.7769 14.595C10.5737 14.3918 10.2982 14.2777 10.0108 14.2777ZM14.3442 14.2777H14.3333C14.0572 14.278 13.7916 14.3837 13.5909 14.5733C13.3901 14.7628 13.2692 15.0219 13.2531 15.2975C13.2369 15.5732 13.3266 15.8446 13.5038 16.0563C13.681 16.2681 13.9324 16.4041 14.2066 16.4368L14.3442 16.4443C14.6315 16.4443 14.907 16.3302 15.1102 16.127C15.3134 15.9239 15.4275 15.6483 15.4275 15.361C15.4275 15.0737 15.3134 14.7981 15.1102 14.595C14.907 14.3918 14.6315 14.2777 14.3442 14.2777ZM5.6775 9.94434H5.66667C5.39055 9.94464 5.12497 10.0504 4.92418 10.2399C4.7234 10.4295 4.60258 10.6885 4.5864 10.9642C4.57022 11.2398 4.6599 11.5112 4.83712 11.723C5.01434 11.9347 5.26573 12.0708 5.53992 12.1034L5.6775 12.111C5.96482 12.111 6.24037 11.9969 6.44353 11.7937C6.6467 11.5905 6.76083 11.315 6.76083 11.0277C6.76083 10.7404 6.6467 10.4648 6.44353 10.2616C6.24037 10.0585 5.96482 9.94434 5.6775 9.94434ZM10.0108 9.94434H10C9.72388 9.94464 9.4583 10.0504 9.25752 10.2399C9.05674 10.4295 8.93591 10.6885 8.91973 10.9642C8.90355 11.2398 8.99323 11.5112 9.17045 11.723C9.34768 11.9347 9.59906 12.0708 9.87325 12.1034L10.0108 12.111C10.2982 12.111 10.5737 11.9969 10.7769 11.7937C10.98 11.5905 11.0942 11.315 11.0942 11.0277C11.0942 10.7404 10.98 10.4648 10.7769 10.2616C10.5737 10.0585 10.2982 9.94434 10.0108 9.94434ZM14.3442 9.94434H14.3333C14.0572 9.94464 13.7916 10.0504 13.5909 10.2399C13.3901 10.4295 13.2692 10.6885 13.2531 10.9642C13.2369 11.2398 13.3266 11.5112 13.5038 11.723C13.681 11.9347 13.9324 12.0708 14.2066 12.1034L14.3442 12.111C14.6315 12.111 14.907 11.9969 15.1102 11.7937C15.3134 11.5905 15.4275 11.315 15.4275 11.0277C15.4275 10.7404 15.3134 10.4648 15.1102 10.2616C14.907 10.0585 14.6315 9.94434 14.3442 9.94434ZM17.5833 4.52767H2.41667V6.69434H17.5833V4.52767Z" fill="#C3C3C3"/>
</svg>
