<svg width="26" height="27" viewBox="0 0 26 27" fill="none" xmlns="http://www.w3.org/2000/svg">
<path fill-rule="evenodd" clip-rule="evenodd" d="M17.3333 4.19434C17.6207 4.19434 17.8962 4.30847 18.0994 4.51164C18.3025 4.7148 18.4167 4.99035 18.4167 5.27767V6.361H20.5833C21.158 6.361 21.7091 6.58928 22.1154 6.9956C22.5217 7.40193 22.75 7.95303 22.75 8.52767V21.5277C22.75 22.1023 22.5217 22.6534 22.1154 23.0597C21.7091 23.4661 21.158 23.6943 20.5833 23.6943H5.41667C4.84203 23.6943 4.29093 23.4661 3.8846 23.0597C3.47827 22.6534 3.25 22.1023 3.25 21.5277V8.52767C3.25 7.95303 3.47827 7.40193 3.8846 6.9956C4.29093 6.58928 4.84203 6.361 5.41667 6.361H7.58333V5.27767C7.58333 4.99035 7.69747 4.7148 7.90063 4.51164C8.1038 4.30847 8.37935 4.19434 8.66667 4.19434C8.95398 4.19434 9.22953 4.30847 9.4327 4.51164C9.63586 4.7148 9.75 4.99035 9.75 5.27767V6.361H16.25V5.27767C16.25 4.99035 16.3641 4.7148 16.5673 4.51164C16.7705 4.30847 17.046 4.19434 17.3333 4.19434ZM8.6775 18.2777H8.66667C8.39055 18.278 8.12497 18.3837 7.92418 18.5733C7.7234 18.7628 7.60258 19.0219 7.5864 19.2975C7.57022 19.5732 7.6599 19.8446 7.83712 20.0563C8.01434 20.2681 8.26573 20.4041 8.53992 20.4368L8.6775 20.4443C8.96482 20.4443 9.24037 20.3302 9.44353 20.127C9.6467 19.9239 9.76083 19.6483 9.76083 19.361C9.76083 19.0737 9.6467 18.7981 9.44353 18.595C9.24037 18.3918 8.96482 18.2777 8.6775 18.2777ZM13.0108 18.2777H13C12.7239 18.278 12.4583 18.3837 12.2575 18.5733C12.0567 18.7628 11.9359 19.0219 11.9197 19.2975C11.9035 19.5732 11.9932 19.8446 12.1705 20.0563C12.3477 20.2681 12.5991 20.4041 12.8733 20.4368L13.0108 20.4443C13.2982 20.4443 13.5737 20.3302 13.7769 20.127C13.98 19.9239 14.0942 19.6483 14.0942 19.361C14.0942 19.0737 13.98 18.7981 13.7769 18.595C13.5737 18.3918 13.2982 18.2777 13.0108 18.2777ZM17.3442 18.2777H17.3333C17.0572 18.278 16.7916 18.3837 16.5909 18.5733C16.3901 18.7628 16.2692 19.0219 16.2531 19.2975C16.2369 19.5732 16.3266 19.8446 16.5038 20.0563C16.681 20.2681 16.9324 20.4041 17.2066 20.4368L17.3442 20.4443C17.6315 20.4443 17.907 20.3302 18.1102 20.127C18.3134 19.9239 18.4275 19.6483 18.4275 19.361C18.4275 19.0737 18.3134 18.7981 18.1102 18.595C17.907 18.3918 17.6315 18.2777 17.3442 18.2777ZM8.6775 13.9443H8.66667C8.39055 13.9446 8.12497 14.0504 7.92418 14.2399C7.7234 14.4295 7.60258 14.6885 7.5864 14.9642C7.57022 15.2398 7.6599 15.5112 7.83712 15.723C8.01434 15.9347 8.26573 16.0708 8.53992 16.1034L8.6775 16.111C8.96482 16.111 9.24037 15.9969 9.44353 15.7937C9.6467 15.5905 9.76083 15.315 9.76083 15.0277C9.76083 14.7404 9.6467 14.4648 9.44353 14.2616C9.24037 14.0585 8.96482 13.9443 8.6775 13.9443ZM13.0108 13.9443H13C12.7239 13.9446 12.4583 14.0504 12.2575 14.2399C12.0567 14.4295 11.9359 14.6885 11.9197 14.9642C11.9035 15.2398 11.9932 15.5112 12.1705 15.723C12.3477 15.9347 12.5991 16.0708 12.8733 16.1034L13.0108 16.111C13.2982 16.111 13.5737 15.9969 13.7769 15.7937C13.98 15.5905 14.0942 15.315 14.0942 15.0277C14.0942 14.7404 13.98 14.4648 13.7769 14.2616C13.5737 14.0585 13.2982 13.9443 13.0108 13.9443ZM17.3442 13.9443H17.3333C17.0572 13.9446 16.7916 14.0504 16.5909 14.2399C16.3901 14.4295 16.2692 14.6885 16.2531 14.9642C16.2369 15.2398 16.3266 15.5112 16.5038 15.723C16.681 15.9347 16.9324 16.0708 17.2066 16.1034L17.3442 16.111C17.6315 16.111 17.907 15.9969 18.1102 15.7937C18.3134 15.5905 18.4275 15.315 18.4275 15.0277C18.4275 14.7404 18.3134 14.4648 18.1102 14.2616C17.907 14.0585 17.6315 13.9443 17.3442 13.9443ZM20.5833 8.52767H5.41667V10.6943H20.5833V8.52767Z" fill="#C3C3C3"/>
</svg>
