<svg width="17" height="17" viewBox="0 0 17 17" fill="none" xmlns="http://www.w3.org/2000/svg">
<g clip-path="url(#clip0_471_6847)">
<path d="M10.115 1.41602C10.4123 1.41609 10.7021 1.50972 10.9433 1.68363C11.1844 1.85754 11.3648 2.10292 11.4587 2.38502L11.8433 3.54102H14.1667C14.3545 3.54102 14.5347 3.61564 14.6675 3.74848C14.8004 3.88132 14.875 4.06149 14.875 4.24935C14.875 4.43721 14.8004 4.61738 14.6675 4.75022C14.5347 4.88305 14.3545 4.95768 14.1667 4.95768L14.1645 5.00797L13.5504 13.6093C13.5121 14.1452 13.2722 14.6467 12.8789 15.0129C12.4857 15.379 11.9684 15.5826 11.4311 15.5827H5.56892C5.03162 15.5826 4.51428 15.379 4.12106 15.0129C3.72783 14.6467 3.48791 14.1452 3.44958 13.6093L2.83546 5.00727L2.83333 4.95768C2.64547 4.95768 2.4653 4.88305 2.33247 4.75022C2.19963 4.61738 2.125 4.43721 2.125 4.24935C2.125 4.06149 2.19963 3.88132 2.33247 3.74848C2.4653 3.61564 2.64547 3.54102 2.83333 3.54102H5.15667L5.54129 2.38502C5.63529 2.10281 5.81572 1.85734 6.05703 1.68342C6.29833 1.5095 6.58826 1.41594 6.88571 1.41602H10.115ZM12.7479 4.95768H4.25212L4.86271 13.508C4.87542 13.6866 4.95534 13.8538 5.08637 13.9759C5.2174 14.098 5.38982 14.1659 5.56892 14.166H11.4311C11.6102 14.1659 11.7826 14.098 11.9136 13.9759C12.0447 13.8538 12.1246 13.6866 12.1373 13.508L12.7479 4.95768ZM7.08333 7.08268C7.25683 7.08271 7.42428 7.1464 7.55393 7.26169C7.68358 7.37698 7.76641 7.53584 7.78671 7.70814L7.79167 7.79102V11.3327C7.79147 11.5132 7.72234 11.6869 7.5984 11.8182C7.47446 11.9494 7.30507 12.0284 7.12485 12.039C6.94462 12.0496 6.76715 11.991 6.6287 11.8751C6.49026 11.7592 6.40128 11.5948 6.37996 11.4156L6.375 11.3327V7.79102C6.375 7.60315 6.44963 7.42299 6.58247 7.29015C6.7153 7.15731 6.89547 7.08268 7.08333 7.08268ZM9.91667 7.08268C10.1045 7.08268 10.2847 7.15731 10.4175 7.29015C10.5504 7.42299 10.625 7.60315 10.625 7.79102V11.3327C10.625 11.5205 10.5504 11.7007 10.4175 11.8336C10.2847 11.9664 10.1045 12.041 9.91667 12.041C9.7288 12.041 9.54864 11.9664 9.4158 11.8336C9.28296 11.7007 9.20833 11.5205 9.20833 11.3327V7.79102C9.20833 7.60315 9.28296 7.42299 9.4158 7.29015C9.54864 7.15731 9.7288 7.08268 9.91667 7.08268ZM10.115 2.83268H6.885L6.64913 3.54102H10.3509L10.115 2.83268Z" fill="#B3B3B3"/>
</g>
<defs>
<clipPath id="clip0_471_6847">
<rect width="17" height="17" fill="white"/>
</clipPath>
</defs>
</svg>
