<svg width="11" height="9" viewBox="0 0 11 9" fill="none" xmlns="http://www.w3.org/2000/svg">
<path d="M10.0665 0.750002L0.529154 0.750001C0.432592 0.750288 0.337942 0.775464 0.255391 0.82282C0.172839 0.870177 0.105513 0.937919 0.0606592 1.01876C0.015805 1.09959 -0.00487868 1.19047 0.000834776 1.28159C0.00654823 1.37271 0.0384421 1.46064 0.0930838 1.5359L4.86177 8.04751C5.0594 8.31749 5.53521 8.31749 5.73338 8.04751L10.5021 1.5359C10.5573 1.4608 10.5896 1.37283 10.5957 1.28155C10.6017 1.19028 10.5811 1.09919 10.5362 1.01818C10.4913 0.937168 10.4238 0.869338 10.341 0.822059C10.2582 0.77478 10.1633 0.749858 10.0665 0.750002Z" fill="#AFAFAF"/>
</svg>
