<svg width="41" height="41" viewBox="0 0 41 41" fill="none" xmlns="http://www.w3.org/2000/svg">
<path d="M20.501 40.5C31.5467 40.5 40.501 31.5457 40.501 20.5C40.501 9.4543 31.5467 0.5 20.501 0.5C9.45528 0.5 0.500977 9.4543 0.500977 20.5C0.500977 31.5457 9.45528 40.5 20.501 40.5Z" fill="url(#paint0_radial_860_1543)"/>
<path d="M20.501 40.5C31.5467 40.5 40.501 31.5457 40.501 20.5C40.501 9.4543 31.5467 0.5 20.501 0.5C9.45528 0.5 0.500977 9.4543 0.500977 20.5C0.500977 31.5457 9.45528 40.5 20.501 40.5Z" fill="url(#paint1_radial_860_1543)"/>
<path d="M20.501 40.5C31.5467 40.5 40.501 31.5457 40.501 20.5C40.501 9.4543 31.5467 0.5 20.501 0.5C9.45528 0.5 0.500977 9.4543 0.500977 20.5C0.500977 31.5457 9.45528 40.5 20.501 40.5Z" fill="url(#paint2_radial_860_1543)"/>
<path d="M20.501 40.5C31.5467 40.5 40.501 31.5457 40.501 20.5C40.501 9.4543 31.5467 0.5 20.501 0.5C9.45528 0.5 0.500977 9.4543 0.500977 20.5C0.500977 31.5457 9.45528 40.5 20.501 40.5Z" fill="url(#paint3_radial_860_1543)"/>
<path d="M20.501 40.5C31.5467 40.5 40.501 31.5457 40.501 20.5C40.501 9.4543 31.5467 0.5 20.501 0.5C9.45528 0.5 0.500977 9.4543 0.500977 20.5C0.500977 31.5457 9.45528 40.5 20.501 40.5Z" fill="url(#paint4_radial_860_1543)"/>
<path d="M20.501 40.5C31.5467 40.5 40.501 31.5457 40.501 20.5C40.501 9.4543 31.5467 0.5 20.501 0.5C9.45528 0.5 0.500977 9.4543 0.500977 20.5C0.500977 31.5457 9.45528 40.5 20.501 40.5Z" fill="url(#paint5_radial_860_1543)"/>
<path d="M20.501 40.5C31.5467 40.5 40.501 31.5457 40.501 20.5C40.501 9.4543 31.5467 0.5 20.501 0.5C9.45528 0.5 0.500977 9.4543 0.500977 20.5C0.500977 31.5457 9.45528 40.5 20.501 40.5Z" fill="url(#paint6_radial_860_1543)"/>
<g filter="url(#filter0_f_860_1543)">
<path d="M40.0755 22.0259C39.186 21.8734 38.2718 22.0637 37.5171 22.5584C36.7623 23.0531 36.2231 23.8155 36.008 24.692C35.793 25.5684 35.9181 26.4938 36.3582 27.2817C36.7983 28.0695 37.5206 28.6613 38.3797 28.9378" stroke="url(#paint7_linear_860_1543)" stroke-width="0.2"/>
</g>
<path d="M40.4393 22.1055C40.2505 24.4967 39.6304 26.8341 38.6091 29.0045C38.1472 28.8928 37.7122 28.69 37.3297 28.408C36.9472 28.1259 36.6248 27.7703 36.3816 27.362C36.1384 26.9537 35.9792 26.5009 35.9133 26.0302C35.8475 25.5595 35.8763 25.0804 35.9981 24.6211C36.1199 24.1617 36.3322 23.7312 36.6226 23.355C36.913 22.9788 37.2756 22.6644 37.6891 22.4302C38.1027 22.196 38.5589 22.0467 39.0309 21.9912C39.5029 21.9357 39.9812 21.975 40.4378 22.1069" fill="url(#paint8_radial_860_1543)"/>
<path d="M40.4393 22.1055C40.2505 24.4967 39.6304 26.8341 38.6091 29.0045C38.1472 28.8928 37.7122 28.69 37.3297 28.408C36.9472 28.1259 36.6248 27.7703 36.3816 27.362C36.1384 26.9537 35.9792 26.5009 35.9133 26.0302C35.8475 25.5595 35.8763 25.0804 35.9981 24.6211C36.1199 24.1617 36.3322 23.7312 36.6226 23.355C36.913 22.9788 37.2756 22.6644 37.6891 22.4302C38.1027 22.196 38.5589 22.0467 39.0309 21.9912C39.5029 21.9357 39.9812 21.975 40.4378 22.1069" fill="url(#paint9_radial_860_1543)"/>
<path d="M40.4393 22.1055C40.2505 24.4967 39.6304 26.8341 38.6091 29.0045C38.1472 28.8928 37.7122 28.69 37.3297 28.408C36.9472 28.1259 36.6248 27.7703 36.3816 27.362C36.1384 26.9537 35.9792 26.5009 35.9133 26.0302C35.8475 25.5595 35.8763 25.0804 35.9981 24.6211C36.1199 24.1617 36.3322 23.7312 36.6226 23.355C36.913 22.9788 37.2756 22.6644 37.6891 22.4302C38.1027 22.196 38.5589 22.0467 39.0309 21.9912C39.5029 21.9357 39.9812 21.975 40.4378 22.1069" fill="url(#paint10_radial_860_1543)"/>
<g filter="url(#filter1_f_860_1543)">
<path d="M25.9031 39.2523C25.4035 38.0924 25.3416 36.7908 25.729 35.5888C26.1164 34.3868 26.9266 33.3662 28.0094 32.7163C29.0923 32.0665 30.3741 31.8315 31.617 32.055C32.8599 32.2786 33.9795 32.9455 34.768 33.9319" stroke="url(#paint11_linear_860_1543)" stroke-width="0.2"/>
</g>
<path d="M35.0133 34.2644C32.5819 36.8306 29.5136 38.7063 26.1212 39.7005C25.4714 38.5243 25.3005 37.1428 25.6442 35.8438C25.9879 34.5448 26.8197 33.4286 27.9661 32.7277C29.1126 32.0268 30.4852 31.7954 31.7981 32.0817C33.1109 32.368 34.2627 33.1498 35.0133 34.2644Z" fill="url(#paint12_radial_860_1543)"/>
<path d="M35.0133 34.2644C32.5819 36.8306 29.5136 38.7063 26.1212 39.7005C25.4714 38.5243 25.3005 37.1428 25.6442 35.8438C25.9879 34.5448 26.8197 33.4286 27.9661 32.7277C29.1126 32.0268 30.4852 31.7954 31.7981 32.0817C33.1109 32.368 34.2627 33.1498 35.0133 34.2644Z" fill="url(#paint13_radial_860_1543)"/>
<path d="M35.0133 34.2644C32.5819 36.8306 29.5136 38.7063 26.1212 39.7005C25.4714 38.5243 25.3005 37.1428 25.6442 35.8438C25.9879 34.5448 26.8197 33.4286 27.9661 32.7277C29.1126 32.0268 30.4852 31.7954 31.7981 32.0817C33.1109 32.368 34.2627 33.1498 35.0133 34.2644Z" fill="url(#paint14_radial_860_1543)"/>
<path d="M35.0133 34.2644C32.5819 36.8306 29.5136 38.7063 26.1212 39.7005C25.4714 38.5243 25.3005 37.1428 25.6442 35.8438C25.9879 34.5448 26.8197 33.4286 27.9661 32.7277C29.1126 32.0268 30.4852 31.7954 31.7981 32.0817C33.1109 32.368 34.2627 33.1498 35.0133 34.2644Z" fill="url(#paint15_radial_860_1543)"/>
<g filter="url(#filter2_f_860_1543)">
<path d="M18.7735 29.9988C20.2736 31.1732 20.6822 33.1576 19.6865 34.4306C18.6907 35.7021 16.6662 35.7821 15.1647 34.6063C13.6646 33.4305 13.256 31.4475 14.2503 30.1745C15.2476 28.903 17.272 28.8244 18.7721 29.9988H18.7735Z" stroke="url(#paint16_linear_860_1543)" stroke-width="0.2"/>
</g>
<path d="M18.7735 29.9988C20.2736 31.1732 20.6822 33.1576 19.6865 34.4306C18.6907 35.7021 16.6662 35.7821 15.1647 34.6063C13.6646 33.4305 13.256 31.4475 14.2503 30.1745C15.2476 28.903 17.272 28.8244 18.7721 29.9988" fill="url(#paint17_radial_860_1543)"/>
<path d="M18.7735 29.9988C20.2736 31.1732 20.6822 33.1576 19.6865 34.4306C18.6907 35.7021 16.6662 35.7821 15.1647 34.6063C13.6646 33.4305 13.256 31.4475 14.2503 30.1745C15.2476 28.903 17.272 28.8244 18.7721 29.9988" fill="url(#paint18_radial_860_1543)"/>
<path d="M18.7735 29.9988C20.2736 31.1732 20.6822 33.1576 19.6865 34.4306C18.6907 35.7021 16.6662 35.7821 15.1647 34.6063C13.6646 33.4305 13.256 31.4475 14.2503 30.1745C15.2476 28.903 17.272 28.8244 18.7721 29.9988" fill="url(#paint19_radial_860_1543)"/>
<path d="M18.7735 29.9988C20.2736 31.1732 20.6822 33.1576 19.6865 34.4306C18.6907 35.7021 16.6662 35.7821 15.1647 34.6063C13.6646 33.4305 13.256 31.4475 14.2503 30.1745C15.2476 28.903 17.272 28.8244 18.7721 29.9988" fill="url(#paint20_radial_860_1543)"/>
<g filter="url(#filter3_f_860_1543)">
<path d="M0.951172 19.2541C1.62672 19.1071 2.32476 19.0958 3.00471 19.2209C3.68466 19.3461 4.33294 19.6051 4.91187 19.9831C5.4908 20.361 5.98882 20.8502 6.37698 21.4224C6.76514 21.9945 7.03569 22.6381 7.1729 23.3157C7.3101 23.9933 7.31123 24.6914 7.17622 25.3695C7.04121 26.0475 6.77275 26.692 6.38644 27.2654C6.00014 27.8387 5.50371 28.3296 4.926 28.7094C4.3483 29.0892 3.70086 29.3503 3.02132 29.4777" stroke="url(#paint21_linear_860_1543)" stroke-width="0.2"/>
</g>
<path d="M0.532551 19.3703C1.22843 19.1481 1.96323 19.0745 2.68936 19.1543C3.4155 19.2341 4.11677 19.4655 4.74777 19.8336C5.37876 20.2017 5.92541 20.6982 6.3523 21.291C6.77919 21.8838 7.0768 22.5596 7.22586 23.2748C7.37493 23.9899 7.37211 24.7284 7.21761 25.4424C7.0631 26.1563 6.76035 26.8299 6.32895 27.4194C5.89756 28.009 5.34715 28.5013 4.71337 28.8646C4.07958 29.2278 3.37657 29.4539 2.64984 29.5282C1.059 26.3888 0.328441 22.8839 0.532551 19.3703Z" fill="url(#paint22_radial_860_1543)"/>
<path d="M0.532551 19.3703C1.22843 19.1481 1.96323 19.0745 2.68936 19.1543C3.4155 19.2341 4.11677 19.4655 4.74777 19.8336C5.37876 20.2017 5.92541 20.6982 6.3523 21.291C6.77919 21.8838 7.0768 22.5596 7.22586 23.2748C7.37493 23.9899 7.37211 24.7284 7.21761 25.4424C7.0631 26.1563 6.76035 26.8299 6.32895 27.4194C5.89756 28.009 5.34715 28.5013 4.71337 28.8646C4.07958 29.2278 3.37657 29.4539 2.64984 29.5282C1.059 26.3888 0.328441 22.8839 0.532551 19.3703Z" fill="url(#paint23_radial_860_1543)"/>
<path d="M0.532551 19.3703C1.22843 19.1481 1.96323 19.0745 2.68936 19.1543C3.4155 19.2341 4.11677 19.4655 4.74777 19.8336C5.37876 20.2017 5.92541 20.6982 6.3523 21.291C6.77919 21.8838 7.0768 22.5596 7.22586 23.2748C7.37493 23.9899 7.37211 24.7284 7.21761 25.4424C7.0631 26.1563 6.76035 26.8299 6.32895 27.4194C5.89756 28.009 5.34715 28.5013 4.71337 28.8646C4.07958 29.2278 3.37657 29.4539 2.64984 29.5282C1.059 26.3888 0.328441 22.8839 0.532551 19.3703Z" fill="url(#paint24_radial_860_1543)"/>
<g filter="url(#filter4_f_860_1543)">
<path d="M19.7783 9.11917C20.7245 9.11917 21.6318 8.74332 22.3009 8.0743C22.9699 7.40529 23.3457 6.49791 23.3457 5.55177C23.3457 4.60564 22.9699 3.69826 22.3009 3.02924C21.6318 2.36022 20.7245 1.98438 19.7783 1.98438C18.8322 1.98438 17.9248 2.36022 17.2558 3.02924C16.5868 3.69826 16.2109 4.60564 16.2109 5.55177C16.2109 6.49791 16.5868 7.40529 17.2558 8.0743C17.9248 8.74332 18.8322 9.11917 19.7783 9.11917Z" stroke="url(#paint25_linear_860_1543)" stroke-width="0.3"/>
</g>
<path d="M19.7783 9.11917C20.7245 9.11917 21.6318 8.74332 22.3009 8.0743C22.9699 7.40529 23.3457 6.49791 23.3457 5.55177C23.3457 4.60564 22.9699 3.69826 22.3009 3.02924C21.6318 2.36022 20.7245 1.98438 19.7783 1.98438C18.8322 1.98438 17.9248 2.36022 17.2558 3.02924C16.5868 3.69826 16.2109 4.60564 16.2109 5.55177C16.2109 6.49791 16.5868 7.40529 17.2558 8.0743C17.9248 8.74332 18.8322 9.11917 19.7783 9.11917Z" fill="url(#paint26_linear_860_1543)"/>
<path d="M19.7783 9.11917C20.7245 9.11917 21.6318 8.74332 22.3009 8.0743C22.9699 7.40529 23.3457 6.49791 23.3457 5.55177C23.3457 4.60564 22.9699 3.69826 22.3009 3.02924C21.6318 2.36022 20.7245 1.98438 19.7783 1.98438C18.8322 1.98438 17.9248 2.36022 17.2558 3.02924C16.5868 3.69826 16.2109 4.60564 16.2109 5.55177C16.2109 6.49791 16.5868 7.40529 17.2558 8.0743C17.9248 8.74332 18.8322 9.11917 19.7783 9.11917Z" fill="url(#paint27_radial_860_1543)"/>
<path d="M19.7783 9.11917C20.7245 9.11917 21.6318 8.74332 22.3009 8.0743C22.9699 7.40529 23.3457 6.49791 23.3457 5.55177C23.3457 4.60564 22.9699 3.69826 22.3009 3.02924C21.6318 2.36022 20.7245 1.98438 19.7783 1.98438C18.8322 1.98438 17.9248 2.36022 17.2558 3.02924C16.5868 3.69826 16.2109 4.60564 16.2109 5.55177C16.2109 6.49791 16.5868 7.40529 17.2558 8.0743C17.9248 8.74332 18.8322 9.11917 19.7783 9.11917Z" fill="url(#paint28_radial_860_1543)"/>
<g filter="url(#filter5_f_860_1543)">
<path fill-rule="evenodd" clip-rule="evenodd" d="M12.5519 9.62203C11.6123 9.62241 10.7113 9.99582 10.0469 10.6602C9.38254 11.3246 9.00913 12.2256 9.00875 13.1651C9.00875 13.3546 8.93349 13.5363 8.79953 13.6703C8.66556 13.8042 8.48387 13.8795 8.29441 13.8795C8.10496 13.8795 7.92327 13.8042 7.7893 13.6703C7.65534 13.5363 7.58008 13.3546 7.58008 13.1651C7.58046 11.8467 8.10439 10.5823 9.0367 9.64998C9.96901 8.71767 11.2334 8.19374 12.5519 8.19336C12.7413 8.19336 12.923 8.26862 13.057 8.40258C13.1909 8.53655 13.2662 8.71824 13.2662 8.9077C13.2662 9.09715 13.1909 9.27884 13.057 9.41281C12.923 9.54677 12.7413 9.62203 12.5519 9.62203Z" fill="#AA7E32"/>
</g>
<g filter="url(#filter6_i_860_1543)">
<path fill-rule="evenodd" clip-rule="evenodd" d="M12.8878 9.17672C11.9482 9.1771 11.0472 9.55051 10.3829 10.2149C9.71848 10.8793 9.34507 11.7803 9.34469 12.7198C9.34469 12.9093 9.26943 13.091 9.13546 13.2249C9.0015 13.3589 8.81981 13.4342 8.63035 13.4342C8.4409 13.4342 8.2592 13.3589 8.12524 13.2249C7.99128 13.091 7.91602 12.9093 7.91602 12.7198C7.91639 11.4013 8.44033 10.137 9.37264 9.20467C10.3049 8.27236 11.5693 7.74843 12.8878 7.74805C13.0773 7.74805 13.2589 7.82331 13.3929 7.95727C13.5269 8.09124 13.6021 8.27293 13.6021 8.46238C13.6021 8.65184 13.5269 8.83353 13.3929 8.9675C13.2589 9.10146 13.0773 9.17672 12.8878 9.17672Z" fill="#443452"/>
</g>
<g filter="url(#filter7_f_860_1543)">
<path fill-rule="evenodd" clip-rule="evenodd" d="M27.3916 8.80534C27.3916 8.73768 27.405 8.67068 27.4309 8.60819C27.4568 8.54569 27.4948 8.48893 27.5427 8.44115C27.5907 8.39338 27.6475 8.35552 27.7101 8.32976C27.7727 8.30399 27.8397 8.29083 27.9074 8.29102C29.8832 8.29102 31.8433 10.4597 31.8433 12.4485C31.8433 12.5854 31.7889 12.7168 31.6921 12.8137C31.5952 12.9105 31.4639 12.9649 31.3269 12.9649C31.1899 12.9649 31.0585 12.9105 30.9617 12.8137C30.8648 12.7168 30.8104 12.5854 30.8104 12.4485C30.8104 11.0326 29.316 9.32252 27.9074 9.32252C27.7706 9.32252 27.6394 9.26818 27.5427 9.17146C27.4459 9.07474 27.3916 8.94213 27.3916 8.80534Z" fill="#885F1F"/>
<path d="M27.907 8.00488C27.6944 8.00488 27.4905 8.08933 27.3402 8.23963C27.1899 8.38994 27.1055 8.5938 27.1055 8.80637C27.1055 9.01894 27.1899 9.2228 27.3402 9.3731C27.4905 9.52341 27.6944 9.60785 27.907 9.60785C28.5013 9.60785 29.1556 9.97502 29.6757 10.5465C30.1943 11.1165 30.5243 11.8323 30.5243 12.4481C30.5243 12.6606 30.6087 12.8645 30.759 13.0148C30.9093 13.1651 31.1132 13.2495 31.3258 13.2495C31.5383 13.2495 31.7422 13.1651 31.8925 13.0148C32.0428 12.8645 32.1273 12.6606 32.1273 12.4481C32.1273 11.3651 31.5986 10.2593 30.8243 9.42927C30.0528 8.59921 28.997 8.00488 27.907 8.00488Z" stroke="#E9B15A" stroke-width="0.4" stroke-miterlimit="10" stroke-linecap="round" stroke-linejoin="round"/>
</g>
<g filter="url(#filter8_i_860_1543)">
<path fill-rule="evenodd" clip-rule="evenodd" d="M27.0029 8.46238C27.0029 8.27293 27.0782 8.09124 27.2122 7.95727C27.3461 7.82331 27.5278 7.74805 27.7173 7.74805C29.0357 7.74843 30.3001 8.27236 31.2324 9.20467C32.1647 10.137 32.6887 11.4013 32.6891 12.7198C32.6891 12.9093 32.6138 13.091 32.4798 13.2249C32.3459 13.3589 32.1642 13.4342 31.9747 13.4342C31.7853 13.4342 31.6036 13.3589 31.4696 13.2249C31.3356 13.091 31.2604 12.9093 31.2604 12.7198C31.26 11.7803 30.8866 10.8793 30.2222 10.2149C29.5578 9.55051 28.6568 9.1771 27.7173 9.17672C27.5278 9.17672 27.3461 9.10146 27.2122 8.9675C27.0782 8.83353 27.0029 8.65184 27.0029 8.46238Z" fill="#443452"/>
</g>
<g filter="url(#filter9_f_860_1543)">
<path fill-rule="evenodd" clip-rule="evenodd" d="M13.6796 14.5952C13.2856 14.5926 12.8999 14.7091 12.5731 14.9293C12.2463 15.1496 11.9936 15.4633 11.8481 15.8296C11.7404 16.0886 11.5355 16.2951 11.2773 16.4047C11.0191 16.5143 10.7282 16.5183 10.4671 16.4158C10.206 16.3133 9.99546 16.1125 9.88077 15.8565C9.76608 15.6005 9.75634 15.3097 9.85366 15.0466C10.1563 14.2795 10.6834 13.6215 11.366 13.1586C12.0486 12.6957 12.8549 12.4495 13.6796 12.4522C15.4969 12.4522 17.0413 13.6308 17.5828 15.2738C17.6718 15.5438 17.65 15.8381 17.522 16.0919C17.3941 16.3458 17.1706 16.5384 16.9006 16.6275C16.6306 16.7165 16.3363 16.6947 16.0825 16.5667C15.8286 16.4388 15.636 16.2152 15.5469 15.9453C15.4174 15.5522 15.1672 15.21 14.832 14.9674C14.4967 14.7247 14.0935 14.594 13.6796 14.5938" fill="url(#paint29_linear_860_1543)"/>
</g>
<g filter="url(#filter10_f_860_1543)">
<path fill-rule="evenodd" clip-rule="evenodd" d="M26.1669 14.5952C25.7729 14.5926 25.3872 14.7091 25.0604 14.9293C24.7336 15.1496 24.4809 15.4633 24.3354 15.8296C24.2277 16.0886 24.0228 16.2951 23.7646 16.4047C23.5064 16.5143 23.2155 16.5183 22.9544 16.4158C22.6933 16.3133 22.4828 16.1125 22.3681 15.8565C22.2534 15.6005 22.2436 15.3097 22.341 15.0466C22.6437 14.2795 23.1707 13.6215 23.8533 13.1586C24.5359 12.6957 25.3422 12.4495 26.1669 12.4522C27.9857 12.4522 29.53 13.6308 30.0715 15.2738C30.1606 15.5438 30.1387 15.8381 30.0108 16.0919C29.8828 16.3458 29.6593 16.5384 29.3893 16.6275C29.1193 16.7165 28.8251 16.6947 28.5712 16.5667C28.3173 16.4388 28.1247 16.2152 28.0357 15.9453C27.906 15.552 27.6556 15.2096 27.3201 14.967C26.9846 14.7243 26.581 14.5937 26.1669 14.5938" fill="url(#paint30_linear_860_1543)"/>
</g>
<path fill-rule="evenodd" clip-rule="evenodd" d="M14.202 14.1479C13.8079 14.1454 13.4222 14.2618 13.0954 14.4821C12.7686 14.7023 12.5159 15.0161 12.3704 15.3823C12.321 15.5159 12.2454 15.6384 12.148 15.7424C12.0507 15.8465 11.9336 15.9301 11.8036 15.9884C11.6735 16.0467 11.5332 16.0784 11.3907 16.0818C11.2483 16.0851 11.1066 16.06 10.9739 16.008C10.8413 15.9559 10.7204 15.8779 10.6182 15.7785C10.5161 15.6792 10.4348 15.5604 10.3791 15.4292C10.3235 15.2981 10.2945 15.1571 10.294 15.0146C10.2934 14.8721 10.3213 14.731 10.376 14.5994C10.6787 13.8322 11.2057 13.1742 11.8883 12.7113C12.5709 12.2484 13.3772 12.0023 14.202 12.0049C16.0192 12.0049 17.5651 13.185 18.1051 14.8265C18.1863 15.0942 18.1596 15.3829 18.0308 15.6312C17.902 15.8794 17.6812 16.0674 17.4156 16.1551C17.15 16.2428 16.8607 16.2231 16.6094 16.1003C16.3581 15.9776 16.1647 15.7614 16.0707 15.498C15.8107 14.7122 15.0706 14.1479 14.202 14.1479Z" fill="url(#paint31_radial_860_1543)"/>
<path fill-rule="evenodd" clip-rule="evenodd" d="M26.5174 14.1479C26.1233 14.1454 25.7377 14.2618 25.4109 14.4821C25.0841 14.7023 24.8314 15.0161 24.6858 15.3823C24.6364 15.5159 24.5608 15.6384 24.4635 15.7424C24.3661 15.8465 24.249 15.9301 24.119 15.9884C23.9889 16.0467 23.8486 16.0784 23.7061 16.0818C23.5637 16.0851 23.422 16.06 23.2893 16.008C23.1567 15.9559 23.0358 15.8779 22.9337 15.7785C22.8315 15.6792 22.7502 15.5604 22.6946 15.4292C22.6389 15.2981 22.6099 15.1571 22.6094 15.0146C22.6088 14.8721 22.6367 14.731 22.6914 14.5994C22.9941 13.8322 23.5212 13.1742 24.2038 12.7113C24.8863 12.2484 25.6927 12.0023 26.5174 12.0049C28.3347 12.0049 29.8805 13.185 30.4205 14.8265C30.5017 15.0942 30.4751 15.3829 30.3462 15.6312C30.2174 15.8794 29.9966 16.0674 29.731 16.1551C29.4654 16.2428 29.1761 16.2231 28.9248 16.1003C28.6735 15.9776 28.4802 15.7614 28.3861 15.498C28.1261 14.7122 27.386 14.1479 26.5174 14.1479Z" fill="url(#paint32_radial_860_1543)"/>
<g filter="url(#filter11_f_860_1543)">
<path fill-rule="evenodd" clip-rule="evenodd" d="M12.5018 21.8231C12.7027 21.6225 12.9751 21.5098 13.259 21.5098C13.543 21.5098 13.8153 21.6225 14.0162 21.8231C14.7486 22.5562 15.6183 23.1377 16.5756 23.5345C17.5329 23.9313 18.559 24.1355 19.5952 24.1355C20.6314 24.1355 21.6575 23.9313 22.6148 23.5345C23.5721 23.1377 24.4418 22.5562 25.1742 21.8231C25.3773 21.6339 25.646 21.5308 25.9235 21.5357C26.2011 21.5406 26.466 21.6531 26.6623 21.8494C26.8586 22.0457 26.9711 22.3106 26.976 22.5882C26.9809 22.8657 26.8778 23.1344 26.6886 23.3375C25.7571 24.2691 24.6513 25.0081 23.4342 25.5123C22.2171 26.0165 20.9126 26.276 19.5952 26.276C18.2778 26.276 16.9733 26.0165 15.7562 25.5123C14.5392 25.0081 13.4333 24.2691 12.5018 23.3375C12.3012 23.1366 12.1885 22.8643 12.1885 22.5803C12.1885 22.2964 12.3012 22.024 12.5018 21.8231Z" fill="url(#paint33_linear_860_1543)"/>
</g>
<path fill-rule="evenodd" clip-rule="evenodd" d="M13.2304 21.3768C13.4313 21.1762 13.7036 21.0635 13.9876 21.0635C14.2715 21.0635 14.5438 21.1762 14.7448 21.3768C15.4772 22.1099 16.3468 22.6914 17.3041 23.0882C18.2614 23.485 19.2875 23.6892 20.3237 23.6892C21.36 23.6892 22.386 23.485 23.3433 23.0882C24.3006 22.6914 25.1703 22.1099 25.9027 21.3768C26.1058 21.1876 26.3745 21.0845 26.6521 21.0894C26.9297 21.0943 27.1945 21.2068 27.3908 21.4031C27.5871 21.5994 27.6996 21.8643 27.7045 22.1419C27.7094 22.4195 27.6064 22.6881 27.4171 22.8912C26.4856 23.8228 25.3798 24.5618 24.1627 25.066C22.9456 25.5702 21.6411 25.8297 20.3237 25.8297C19.0063 25.8297 17.7018 25.5702 16.4848 25.066C15.2677 24.5618 14.1618 23.8228 13.2304 22.8912C13.0297 22.6903 12.917 22.418 12.917 22.134C12.917 21.8501 13.0297 21.5777 13.2304 21.3768Z" fill="url(#paint34_linear_860_1543)"/>
<g filter="url(#filter12_f_860_1543)">
<path d="M11.3037 14.9596C11.4466 14.4081 12.1166 13.2195 13.661 12.8795C15.5897 12.4523 16.9941 13.8067 17.4199 14.9596" stroke="url(#paint35_linear_860_1543)" stroke-width="0.5" stroke-linecap="round"/>
<path d="M11.3037 14.9596C11.4466 14.4081 12.1166 13.2195 13.661 12.8795C15.5897 12.4523 16.9941 13.8067 17.4199 14.9596" stroke="url(#paint36_linear_860_1543)" stroke-width="0.5" stroke-linecap="round"/>
</g>
<g filter="url(#filter13_f_860_1543)">
<path d="M23.5098 15.0049C23.7384 14.3363 24.6056 12.9033 26.2385 12.9033C28.5201 12.9033 29.5659 14.2848 29.5659 15.1621" stroke="url(#paint37_linear_860_1543)" stroke-width="0.5" stroke-linecap="round"/>
<path d="M23.5098 15.0049C23.7384 14.3363 24.6056 12.9033 26.2385 12.9033C28.5201 12.9033 29.5659 14.2848 29.5659 15.1621" stroke="url(#paint38_linear_860_1543)" stroke-width="0.5" stroke-linecap="round"/>
</g>
<g filter="url(#filter14_f_860_1543)">
<path d="M14.2646 22.334C15.1276 23.2269 17.1463 24.6513 20.3965 24.6513C23.6453 24.6513 26.0883 23.0783 26.6541 22.334" stroke="url(#paint39_linear_860_1543)" stroke-width="0.5" stroke-linecap="round"/>
</g>
<g filter="url(#filter15_f_860_1543)">
<path d="M27.8701 8.40527C29.4845 8.40527 31.9247 9.26819 32.0818 12.7156" stroke="url(#paint40_linear_860_1543)" stroke-width="0.25" stroke-linecap="round"/>
<path d="M27.8701 8.40527C29.4845 8.40527 31.9247 9.26819 32.0818 12.7156" stroke="url(#paint41_linear_860_1543)" stroke-width="0.25" stroke-linecap="round"/>
</g>
<g filter="url(#filter16_f_860_1543)">
<path d="M12.9163 8.40527C11.3019 8.40527 8.86171 9.26819 8.70312 12.7156" stroke="url(#paint42_linear_860_1543)" stroke-width="0.25" stroke-linecap="round"/>
<path d="M12.9163 8.40527C11.3019 8.40527 8.86171 9.26819 8.70312 12.7156" stroke="url(#paint43_linear_860_1543)" stroke-width="0.25" stroke-linecap="round"/>
</g>
<defs>
<filter id="filter0_f_860_1543" x="35.6057" y="21.675" width="4.68711" height="7.5582" filterUnits="userSpaceOnUse" color-interpolation-filters="sRGB">
<feFlood flood-opacity="0" result="BackgroundImageFix"/>
<feBlend mode="normal" in="SourceGraphic" in2="BackgroundImageFix" result="shape"/>
<feGaussianBlur stdDeviation="0.1" result="effect1_foregroundBlur_860_1543"/>
</filter>
<filter id="filter1_f_860_1543" x="25.1779" y="31.673" width="9.86777" height="7.81895" filterUnits="userSpaceOnUse" color-interpolation-filters="sRGB">
<feFlood flood-opacity="0" result="BackgroundImageFix"/>
<feBlend mode="normal" in="SourceGraphic" in2="BackgroundImageFix" result="shape"/>
<feGaussianBlur stdDeviation="0.1" result="effect1_foregroundBlur_860_1543"/>
</filter>
<filter id="filter2_f_860_1543" x="13.3064" y="28.7674" width="7.32461" height="7.07168" filterUnits="userSpaceOnUse" color-interpolation-filters="sRGB">
<feFlood flood-opacity="0" result="BackgroundImageFix"/>
<feBlend mode="normal" in="SourceGraphic" in2="BackgroundImageFix" result="shape"/>
<feGaussianBlur stdDeviation="0.15" result="effect1_foregroundBlur_860_1543"/>
</filter>
<filter id="filter3_f_860_1543" x="0.629687" y="18.7352" width="7.04727" height="11.141" filterUnits="userSpaceOnUse" color-interpolation-filters="sRGB">
<feFlood flood-opacity="0" result="BackgroundImageFix"/>
<feBlend mode="normal" in="SourceGraphic" in2="BackgroundImageFix" result="shape"/>
<feGaussianBlur stdDeviation="0.15" result="effect1_foregroundBlur_860_1543"/>
</filter>
<filter id="filter4_f_860_1543" x="15.7605" y="1.53398" width="8.03555" height="8.03555" filterUnits="userSpaceOnUse" color-interpolation-filters="sRGB">
<feFlood flood-opacity="0" result="BackgroundImageFix"/>
<feBlend mode="normal" in="SourceGraphic" in2="BackgroundImageFix" result="shape"/>
<feGaussianBlur stdDeviation="0.15" result="effect1_foregroundBlur_860_1543"/>
</filter>
<filter id="filter5_f_860_1543" x="6.58008" y="7.19336" width="7.68652" height="7.68652" filterUnits="userSpaceOnUse" color-interpolation-filters="sRGB">
<feFlood flood-opacity="0" result="BackgroundImageFix"/>
<feBlend mode="normal" in="SourceGraphic" in2="BackgroundImageFix" result="shape"/>
<feGaussianBlur stdDeviation="0.5" result="effect1_foregroundBlur_860_1543"/>
</filter>
<filter id="filter6_i_860_1543" x="7.91602" y="7.59805" width="5.83652" height="5.83652" filterUnits="userSpaceOnUse" color-interpolation-filters="sRGB">
<feFlood flood-opacity="0" result="BackgroundImageFix"/>
<feBlend mode="normal" in="SourceGraphic" in2="BackgroundImageFix" result="shape"/>
<feColorMatrix in="SourceAlpha" type="matrix" values="0 0 0 0 0 0 0 0 0 0 0 0 0 0 0 0 0 0 127 0" result="hardAlpha"/>
<feOffset dx="0.15" dy="-0.15"/>
<feGaussianBlur stdDeviation="0.15"/>
<feComposite in2="hardAlpha" operator="arithmetic" k2="-1" k3="1"/>
<feColorMatrix type="matrix" values="0 0 0 0 0.27451 0 0 0 0 0.203922 0 0 0 0 0.160784 0 0 0 1 0"/>
<feBlend mode="normal" in2="shape" result="effect1_innerShadow_860_1543"/>
</filter>
<filter id="filter7_f_860_1543" x="26.4053" y="7.30469" width="6.42188" height="6.64453" filterUnits="userSpaceOnUse" color-interpolation-filters="sRGB">
<feFlood flood-opacity="0" result="BackgroundImageFix"/>
<feBlend mode="normal" in="SourceGraphic" in2="BackgroundImageFix" result="shape"/>
<feGaussianBlur stdDeviation="0.25" result="effect1_foregroundBlur_860_1543"/>
</filter>
<filter id="filter8_i_860_1543" x="27.0029" y="7.59805" width="5.83652" height="5.83652" filterUnits="userSpaceOnUse" color-interpolation-filters="sRGB">
<feFlood flood-opacity="0" result="BackgroundImageFix"/>
<feBlend mode="normal" in="SourceGraphic" in2="BackgroundImageFix" result="shape"/>
<feColorMatrix in="SourceAlpha" type="matrix" values="0 0 0 0 0 0 0 0 0 0 0 0 0 0 0 0 0 0 127 0" result="hardAlpha"/>
<feOffset dx="0.15" dy="-0.15"/>
<feGaussianBlur stdDeviation="0.15"/>
<feComposite in2="hardAlpha" operator="arithmetic" k2="-1" k3="1"/>
<feColorMatrix type="matrix" values="0 0 0 0 0.27451 0 0 0 0 0.203922 0 0 0 0 0.160784 0 0 0 1 0"/>
<feBlend mode="normal" in2="shape" result="effect1_innerShadow_860_1543"/>
</filter>
<filter id="filter9_f_860_1543" x="9.38711" y="12.0521" width="8.64961" height="5.02949" filterUnits="userSpaceOnUse" color-interpolation-filters="sRGB">
<feFlood flood-opacity="0" result="BackgroundImageFix"/>
<feBlend mode="normal" in="SourceGraphic" in2="BackgroundImageFix" result="shape"/>
<feGaussianBlur stdDeviation="0.2" result="effect1_foregroundBlur_860_1543"/>
</filter>
<filter id="filter10_f_860_1543" x="21.8744" y="12.0521" width="8.65059" height="5.02949" filterUnits="userSpaceOnUse" color-interpolation-filters="sRGB">
<feFlood flood-opacity="0" result="BackgroundImageFix"/>
<feBlend mode="normal" in="SourceGraphic" in2="BackgroundImageFix" result="shape"/>
<feGaussianBlur stdDeviation="0.2" result="effect1_foregroundBlur_860_1543"/>
</filter>
<filter id="filter11_f_860_1543" x="11.1885" y="20.5098" width="16.7881" height="6.7666" filterUnits="userSpaceOnUse" color-interpolation-filters="sRGB">
<feFlood flood-opacity="0" result="BackgroundImageFix"/>
<feBlend mode="normal" in="SourceGraphic" in2="BackgroundImageFix" result="shape"/>
<feGaussianBlur stdDeviation="0.5" result="effect1_foregroundBlur_860_1543"/>
</filter>
<filter id="filter12_f_860_1543" x="10.5537" y="12.0479" width="7.61621" height="3.66211" filterUnits="userSpaceOnUse" color-interpolation-filters="sRGB">
<feFlood flood-opacity="0" result="BackgroundImageFix"/>
<feBlend mode="normal" in="SourceGraphic" in2="BackgroundImageFix" result="shape"/>
<feGaussianBlur stdDeviation="0.25" result="effect1_foregroundBlur_860_1543"/>
</filter>
<filter id="filter13_f_860_1543" x="22.7598" y="12.1533" width="7.55566" height="3.75879" filterUnits="userSpaceOnUse" color-interpolation-filters="sRGB">
<feFlood flood-opacity="0" result="BackgroundImageFix"/>
<feBlend mode="normal" in="SourceGraphic" in2="BackgroundImageFix" result="shape"/>
<feGaussianBlur stdDeviation="0.25" result="effect1_foregroundBlur_860_1543"/>
</filter>
<filter id="filter14_f_860_1543" x="13.5146" y="21.584" width="13.8896" height="3.81738" filterUnits="userSpaceOnUse" color-interpolation-filters="sRGB">
<feFlood flood-opacity="0" result="BackgroundImageFix"/>
<feBlend mode="normal" in="SourceGraphic" in2="BackgroundImageFix" result="shape"/>
<feGaussianBlur stdDeviation="0.25" result="effect1_foregroundBlur_860_1543"/>
</filter>
<filter id="filter15_f_860_1543" x="27.4951" y="8.03027" width="4.96191" height="5.06055" filterUnits="userSpaceOnUse" color-interpolation-filters="sRGB">
<feFlood flood-opacity="0" result="BackgroundImageFix"/>
<feBlend mode="normal" in="SourceGraphic" in2="BackgroundImageFix" result="shape"/>
<feGaussianBlur stdDeviation="0.125" result="effect1_foregroundBlur_860_1543"/>
</filter>
<filter id="filter16_f_860_1543" x="8.32812" y="8.03027" width="4.96289" height="5.06055" filterUnits="userSpaceOnUse" color-interpolation-filters="sRGB">
<feFlood flood-opacity="0" result="BackgroundImageFix"/>
<feBlend mode="normal" in="SourceGraphic" in2="BackgroundImageFix" result="shape"/>
<feGaussianBlur stdDeviation="0.125" result="effect1_foregroundBlur_860_1543"/>
</filter>
<radialGradient id="paint0_radial_860_1543" cx="0" cy="0" r="1" gradientUnits="userSpaceOnUse" gradientTransform="translate(32.8213 11.3391) rotate(135.952) scale(31.2279 34.9264)">
<stop stop-color="#FFF6A6"/>
<stop offset="0.87" stop-color="#F6B246"/>
</radialGradient>
<radialGradient id="paint1_radial_860_1543" cx="0" cy="0" r="1" gradientUnits="userSpaceOnUse" gradientTransform="translate(31.2626 25.6961) rotate(-155.287) scale(32.6233 38.7366)">
<stop offset="0.683" stop-color="#BA9D76" stop-opacity="0"/>
<stop offset="1" stop-color="#BA9D76"/>
</radialGradient>
<radialGradient id="paint2_radial_860_1543" cx="0" cy="0" r="1" gradientUnits="userSpaceOnUse" gradientTransform="translate(10.0445 37.4812) rotate(-54.4053) scale(19.672 37.455)">
<stop stop-color="#CA7044"/>
<stop offset="1" stop-color="#CA7044" stop-opacity="0"/>
</radialGradient>
<radialGradient id="paint3_radial_860_1543" cx="0" cy="0" r="1" gradientUnits="userSpaceOnUse" gradientTransform="translate(22.7354 16.3526) rotate(99.7962) scale(25.1905 25.84)">
<stop offset="0.864" stop-color="#C07583" stop-opacity="0"/>
<stop offset="1" stop-color="#C07583"/>
</radialGradient>
<radialGradient id="paint4_radial_860_1543" cx="0" cy="0" r="1" gradientUnits="userSpaceOnUse" gradientTransform="translate(30.8598 28.2283) rotate(97.871) scale(12.3891)">
<stop stop-color="#FFC94E"/>
<stop offset="1" stop-color="#FFC94E" stop-opacity="0"/>
</radialGradient>
<radialGradient id="paint5_radial_860_1543" cx="0" cy="0" r="1" gradientUnits="userSpaceOnUse" gradientTransform="translate(9.51958 19.3881) rotate(46.521) scale(7.13722)">
<stop stop-color="#EB7F4D"/>
<stop offset="0.96" stop-color="#EB7F4D" stop-opacity="0"/>
</radialGradient>
<radialGradient id="paint6_radial_860_1543" cx="0" cy="0" r="1" gradientUnits="userSpaceOnUse" gradientTransform="translate(30.5911 19.8356) rotate(110.659) scale(5.82113)">
<stop stop-color="#FFA95E"/>
<stop offset="1" stop-color="#FFB370" stop-opacity="0"/>
</radialGradient>
<linearGradient id="paint7_linear_860_1543" x1="39.2983" y1="21.5759" x2="37.0667" y2="29.1207" gradientUnits="userSpaceOnUse">
<stop stop-color="#F2BE70"/>
<stop offset="1" stop-color="#FFEC98"/>
</linearGradient>
<radialGradient id="paint8_radial_860_1543" cx="0" cy="0" r="1" gradientUnits="userSpaceOnUse" gradientTransform="translate(35.3157 24.3084) rotate(14.725) scale(2.95831 6.53735)">
<stop stop-color="#FFE486"/>
<stop offset="1" stop-color="#FFD68B"/>
</radialGradient>
<radialGradient id="paint9_radial_860_1543" cx="0" cy="0" r="1" gradientUnits="userSpaceOnUse" gradientTransform="translate(39.3001 25.867) rotate(-112.782) scale(4.07781 4.61903)">
<stop offset="0.795" stop-color="#E3B065" stop-opacity="0"/>
<stop offset="0.944" stop-color="#E3B065"/>
</radialGradient>
<radialGradient id="paint10_radial_860_1543" cx="0" cy="0" r="1" gradientUnits="userSpaceOnUse" gradientTransform="translate(39.9173 24.0407) rotate(118.811) scale(5.32785 4.57234)">
<stop offset="0.846" stop-color="#FFF1A6" stop-opacity="0"/>
<stop offset="1" stop-color="#FFF1A6"/>
</radialGradient>
<linearGradient id="paint11_linear_860_1543" x1="32.4235" y1="31.9775" x2="24.4515" y2="38.0279" gradientUnits="userSpaceOnUse">
<stop stop-color="#DFA055"/>
<stop offset="1" stop-color="#E1945D"/>
</linearGradient>
<radialGradient id="paint12_radial_860_1543" cx="0" cy="0" r="1" gradientUnits="userSpaceOnUse" gradientTransform="translate(30.2472 31.9785) rotate(95.3771) scale(7.75588 11.6426)">
<stop stop-color="#FEB862"/>
<stop offset="1" stop-color="#D78B6C"/>
</radialGradient>
<radialGradient id="paint13_radial_860_1543" cx="0" cy="0" r="1" gradientUnits="userSpaceOnUse" gradientTransform="translate(28.5199 31.9785) rotate(61.633) scale(6.56324 17.1679)">
<stop offset="0.727" stop-color="#D8A294" stop-opacity="0"/>
<stop offset="1" stop-color="#D8A294"/>
</radialGradient>
<radialGradient id="paint14_radial_860_1543" cx="0" cy="0" r="1" gradientUnits="userSpaceOnUse" gradientTransform="translate(31.2511 37.0791) rotate(155.573) scale(6.33588 5.60321)">
<stop offset="0.662" stop-color="#EFA970" stop-opacity="0"/>
<stop offset="0.979" stop-color="#EFA970"/>
</radialGradient>
<radialGradient id="paint15_radial_860_1543" cx="0" cy="0" r="1" gradientUnits="userSpaceOnUse" gradientTransform="translate(29.9929 38.4632) rotate(-67.969) scale(7.18194 7.43798)">
<stop offset="0.778" stop-color="#C17967" stop-opacity="0"/>
<stop offset="0.951" stop-color="#C17967"/>
</radialGradient>
<linearGradient id="paint16_linear_860_1543" x1="18.8464" y1="30.1803" x2="15.1476" y2="34.5677" gradientUnits="userSpaceOnUse">
<stop stop-color="#D47C4B"/>
<stop offset="1" stop-color="#E28050"/>
</linearGradient>
<radialGradient id="paint17_radial_860_1543" cx="0" cy="0" r="1" gradientUnits="userSpaceOnUse" gradientTransform="translate(17.422 30.0574) rotate(99.8844) scale(5.46174 5.68113)">
<stop stop-color="#D97C5E"/>
<stop offset="1" stop-color="#F79965"/>
</radialGradient>
<radialGradient id="paint18_radial_860_1543" cx="0" cy="0" r="1" gradientUnits="userSpaceOnUse" gradientTransform="translate(17.9709 30.4509) rotate(110.163) scale(5.31476 4.54358)">
<stop offset="0.742" stop-color="#FFA969" stop-opacity="0"/>
<stop offset="1" stop-color="#FFA969"/>
</radialGradient>
<radialGradient id="paint19_radial_860_1543" cx="0" cy="0" r="1" gradientUnits="userSpaceOnUse" gradientTransform="translate(16.4542 33.3536) rotate(-104.912) scale(4.98314 4.70002)">
<stop offset="0.626" stop-color="#C16653" stop-opacity="0"/>
<stop offset="1" stop-color="#C16653"/>
</radialGradient>
<radialGradient id="paint20_radial_860_1543" cx="0" cy="0" r="1" gradientUnits="userSpaceOnUse" gradientTransform="translate(20.2305 35.0425) rotate(-158.194) scale(3.51332 3.65446)">
<stop stop-color="#CE8050"/>
<stop offset="1" stop-color="#CE8050" stop-opacity="0"/>
</radialGradient>
<linearGradient id="paint21_linear_860_1543" x1="4.14997" y1="19.1198" x2="4.14997" y2="29.4777" gradientUnits="userSpaceOnUse">
<stop stop-color="#A2723B"/>
<stop offset="1" stop-color="#AC6E43"/>
</linearGradient>
<radialGradient id="paint22_radial_860_1543" cx="0" cy="0" r="1" gradientUnits="userSpaceOnUse" gradientTransform="translate(-0.0541247 19.9637) rotate(58.664) scale(11.1975 7.36921)">
<stop stop-color="#A98861"/>
<stop offset="1" stop-color="#B1724D"/>
</radialGradient>
<radialGradient id="paint23_radial_860_1543" cx="0" cy="0" r="1" gradientUnits="userSpaceOnUse" gradientTransform="translate(1.76835 25.2207) rotate(-58.7653) scale(7.13312 6.52874)">
<stop offset="0.696" stop-color="#9C6544" stop-opacity="0"/>
<stop offset="1" stop-color="#9C6544"/>
</radialGradient>
<radialGradient id="paint24_radial_860_1543" cx="0" cy="0" r="1" gradientUnits="userSpaceOnUse" gradientTransform="translate(3.92565 22.3248) rotate(90) scale(7.20256 4.7401)">
<stop offset="0.821" stop-color="#AF7D6F" stop-opacity="0"/>
<stop offset="1" stop-color="#AF7D6F"/>
</radialGradient>
<linearGradient id="paint25_linear_860_1543" x1="18.7368" y1="5.55177" x2="23.3443" y2="5.55177" gradientUnits="userSpaceOnUse">
<stop stop-color="#FFE27E"/>
<stop offset="1" stop-color="#F1B966"/>
</linearGradient>
<linearGradient id="paint26_linear_860_1543" x1="23.7172" y1="5.55177" x2="16.2109" y2="5.55177" gradientUnits="userSpaceOnUse">
<stop stop-color="#FFC770"/>
<stop offset="1" stop-color="#FFDF81"/>
</linearGradient>
<radialGradient id="paint27_radial_860_1543" cx="0" cy="0" r="1" gradientUnits="userSpaceOnUse" gradientTransform="translate(18.8954 5.55177) scale(4.68783 5.6399)">
<stop offset="0.6" stop-color="#C59853" stop-opacity="0"/>
<stop offset="1" stop-color="#C59853"/>
</radialGradient>
<radialGradient id="paint28_radial_860_1543" cx="0" cy="0" r="1" gradientUnits="userSpaceOnUse" gradientTransform="translate(23.3457 5.55177) rotate(180) scale(7.13447 5.40661)">
<stop offset="0.899" stop-color="#FFF4A4" stop-opacity="0"/>
<stop offset="1" stop-color="#FFF4A4"/>
</radialGradient>
<linearGradient id="paint29_linear_860_1543" x1="11.1152" y1="15.4238" x2="15.4755" y2="13.4437" gradientUnits="userSpaceOnUse">
<stop stop-color="#C06E3F"/>
<stop offset="1" stop-color="#9B672E"/>
</linearGradient>
<linearGradient id="paint30_linear_860_1543" x1="30.1244" y1="16.681" x2="25.3898" y2="17.4968" gradientUnits="userSpaceOnUse">
<stop stop-color="#C06E3F"/>
<stop offset="1" stop-color="#9B672E"/>
</linearGradient>
<radialGradient id="paint31_radial_860_1543" cx="0" cy="0" r="1" gradientUnits="userSpaceOnUse" gradientTransform="translate(11.6401 15.8597) rotate(-41.987) scale(4.50488 3.87208)">
<stop stop-color="#3A2D43"/>
<stop offset="1" stop-color="#342D3A"/>
</radialGradient>
<radialGradient id="paint32_radial_860_1543" cx="0" cy="0" r="1" gradientUnits="userSpaceOnUse" gradientTransform="translate(26.2559 14.8022) rotate(-90) scale(1.83583 3.84426)">
<stop stop-color="#3E294C"/>
<stop offset="1" stop-color="#483C4E"/>
</radialGradient>
<linearGradient id="paint33_linear_860_1543" x1="12.1875" y1="22.9604" x2="19.5952" y2="26.2777" gradientUnits="userSpaceOnUse">
<stop stop-color="#B2673E"/>
<stop offset="1" stop-color="#BA6E47"/>
</linearGradient>
<linearGradient id="paint34_linear_860_1543" x1="20.3237" y1="23.1055" x2="20.3237" y2="25.8314" gradientUnits="userSpaceOnUse">
<stop stop-color="#4A393E"/>
<stop offset="1" stop-color="#391E47"/>
</linearGradient>
<linearGradient id="paint35_linear_860_1543" x1="17.5684" y1="15.3582" x2="13.9325" y2="13.1309" gradientUnits="userSpaceOnUse">
<stop stop-color="#51495A"/>
<stop offset="1" stop-color="#51495A" stop-opacity="0"/>
</linearGradient>
<linearGradient id="paint36_linear_860_1543" x1="11.3037" y1="15.5825" x2="12.0438" y2="13.8795" gradientUnits="userSpaceOnUse">
<stop stop-color="#51495A"/>
<stop offset="1" stop-color="#51495A" stop-opacity="0"/>
</linearGradient>
<linearGradient id="paint37_linear_860_1543" x1="29.7131" y1="15.5792" x2="26.0057" y2="13.4319" gradientUnits="userSpaceOnUse">
<stop offset="0.185" stop-color="#564A62"/>
<stop offset="1" stop-color="#564A62" stop-opacity="0"/>
</linearGradient>
<linearGradient id="paint38_linear_860_1543" x1="23.5098" y1="15.815" x2="27.0229" y2="12.3661" gradientUnits="userSpaceOnUse">
<stop stop-color="#5F4C6F"/>
<stop offset="1" stop-color="#5F4C6F" stop-opacity="0"/>
</linearGradient>
<linearGradient id="paint39_linear_860_1543" x1="16.3191" y1="23.0783" x2="22.6624" y2="24.3284" gradientUnits="userSpaceOnUse">
<stop stop-color="#463E4C"/>
<stop offset="1" stop-color="#4F425A"/>
</linearGradient>
<linearGradient id="paint40_linear_860_1543" x1="28.3073" y1="8.67244" x2="31.8518" y2="10.8097" gradientUnits="userSpaceOnUse">
<stop stop-color="#594C63"/>
<stop offset="1" stop-color="#594C63" stop-opacity="0"/>
</linearGradient>
<linearGradient id="paint41_linear_860_1543" x1="31.8518" y1="12.7156" x2="31.7061" y2="9.92395" gradientUnits="userSpaceOnUse">
<stop stop-color="#594C63"/>
<stop offset="1" stop-color="#594C63" stop-opacity="0"/>
</linearGradient>
<linearGradient id="paint42_linear_860_1543" x1="13.2406" y1="8.40527" x2="10.2547" y2="9.68108" gradientUnits="userSpaceOnUse">
<stop stop-color="#594C63"/>
<stop offset="1" stop-color="#594C63" stop-opacity="0"/>
</linearGradient>
<linearGradient id="paint43_linear_860_1543" x1="8.93457" y1="12.7156" x2="10.5461" y2="9.29248" gradientUnits="userSpaceOnUse">
<stop stop-color="#594C63"/>
<stop offset="1" stop-color="#594C63" stop-opacity="0"/>
</linearGradient>
</defs>
</svg>
