<svg width="current" height="current" viewBox="0 0 26 27" fill="none" xmlns="http://www.w3.org/2000/svg">
<path d="M14.3 3.81517C13.925 3.53389 13.4688 3.38184 13 3.38184C12.5312 3.38184 12.075 3.53389 11.7 3.81517L4.11667 9.50267C3.84758 9.70449 3.62917 9.96619 3.47874 10.267C3.32831 10.5679 3.25 10.8996 3.25 11.236V21.5277C3.25 22.1023 3.47827 22.6534 3.8846 23.0597C4.29093 23.4661 4.84203 23.6943 5.41667 23.6943H9.64167C9.95772 23.6943 10.2608 23.5688 10.4843 23.3453C10.7078 23.1218 10.8333 22.8187 10.8333 22.5027V17.1943C10.8333 16.6197 11.0616 16.0686 11.4679 15.6623C11.8743 15.2559 12.4254 15.0277 13 15.0277C13.5746 15.0277 14.1257 15.2559 14.5321 15.6623C14.9384 16.0686 15.1667 16.6197 15.1667 17.1943V22.5027C15.1667 22.8187 15.2922 23.1218 15.5157 23.3453C15.7392 23.5688 16.0423 23.6943 16.3583 23.6943H20.5833C21.158 23.6943 21.7091 23.4661 22.1154 23.0597C22.5217 22.6534 22.75 22.1023 22.75 21.5277V11.236C22.75 10.8996 22.6717 10.5679 22.5213 10.267C22.3708 9.96619 22.1524 9.70449 21.8833 9.50267L14.3 3.81517Z"
    fill="current"/>
</svg>
