<svg width="20" height="21" viewBox="0 0 20 21" fill="none" xmlns="http://www.w3.org/2000/svg">
<path d="M11.3 0.815169C10.925 0.533888 10.4688 0.381836 10 0.381836C9.5312 0.381836 9.07504 0.533888 8.7 0.815169L1.11667 6.50267C0.847575 6.70449 0.629168 6.96619 0.478741 7.26704C0.328314 7.56789 0.25 7.89964 0.25 8.236V18.5277C0.25 19.1023 0.478273 19.6534 0.884602 20.0597C1.29093 20.4661 1.84203 20.6943 2.41667 20.6943H6.64167C6.95772 20.6943 7.26082 20.5688 7.4843 20.3453C7.70778 20.1218 7.83333 19.8187 7.83333 19.5027V14.1943C7.83333 13.6197 8.06161 13.0686 8.46794 12.6623C8.87426 12.2559 9.42536 12.0277 10 12.0277C10.5746 12.0277 11.1257 12.2559 11.5321 12.6623C11.9384 13.0686 12.1667 13.6197 12.1667 14.1943V19.5027C12.1667 19.8187 12.2922 20.1218 12.5157 20.3453C12.7392 20.5688 13.0423 20.6943 13.3583 20.6943H17.5833C18.158 20.6943 18.7091 20.4661 19.1154 20.0597C19.5217 19.6534 19.75 19.1023 19.75 18.5277V8.236C19.75 7.89964 19.6717 7.56789 19.5213 7.26704C19.3708 6.96619 19.1524 6.70449 18.8833 6.50267L11.3 0.815169Z" fill="#C3C3C3"/>
</svg>
