<svg width="41" height="41" viewBox="0 0 41 41" fill="none" xmlns="http://www.w3.org/2000/svg">
<path d="M18.9425 3.89233C15.4958 10.2625 10.2677 15.4906 3.89754 18.9373C0.0756798 21.0051 -0.665875 26.1675 2.40017 29.2335L2.48573 29.3191C3.4887 30.3207 4.78765 30.9725 6.1901 31.178C7.59256 31.3835 9.02391 31.1317 10.2721 30.4599C18.8163 25.8374 25.8284 18.8253 30.4509 10.2811C31.8342 7.71419 31.3778 4.54832 29.31 2.49478L29.2245 2.40922C26.1727 -0.671082 21.0103 0.0847332 18.9425 3.89233Z" fill="#DC945A"/>
<path d="M18.9425 3.89233C15.4958 10.2625 10.2677 15.4906 3.89754 18.9373C0.0756798 21.0051 -0.665875 26.1675 2.40017 29.2335L2.48573 29.3191C3.4887 30.3207 4.78765 30.9725 6.1901 31.178C7.59256 31.3835 9.02391 31.1317 10.2721 30.4599C18.8163 25.8374 25.8284 18.8253 30.4509 10.2811C31.8342 7.71419 31.3778 4.54832 29.31 2.49478L29.2245 2.40922C26.1727 -0.671082 21.0103 0.0847332 18.9425 3.89233Z" fill="url(#paint0_radial_860_3440)"/>
<path d="M22.2079 6.38793C18.1287 13.1196 12.4828 18.7655 5.75109 22.8447C0.973775 25.7396 0.175178 32.3423 4.12538 36.2925C5.48742 37.6508 7.26439 38.5149 9.17387 38.7475C11.0833 38.98 13.0158 38.5677 14.664 37.576C23.7772 32.0565 31.4196 24.414 36.9392 15.3008C37.9378 13.6547 38.3541 11.7206 38.1214 9.80939C37.8886 7.89813 37.0202 6.12057 35.6557 4.76221C31.7055 0.797747 25.1028 1.61061 22.2079 6.38793Z" fill="url(#paint1_linear_860_3440)"/>
<path d="M22.2079 6.38793C18.1287 13.1196 12.4828 18.7655 5.75109 22.8447C0.973775 25.7396 0.175178 32.3423 4.12538 36.2925C5.48742 37.6508 7.26439 38.5149 9.17387 38.7475C11.0833 38.98 13.0158 38.5677 14.664 37.576C23.7772 32.0565 31.4196 24.414 36.9392 15.3008C37.9378 13.6547 38.3541 11.7206 38.1214 9.80939C37.8886 7.89813 37.0202 6.12057 35.6557 4.76221C31.7055 0.797747 25.1028 1.61061 22.2079 6.38793Z" fill="url(#paint2_radial_860_3440)"/>
<path d="M22.2079 6.38793C18.1287 13.1196 12.4828 18.7655 5.75109 22.8447C0.973775 25.7396 0.175178 32.3423 4.12538 36.2925C5.48742 37.6508 7.26439 38.5149 9.17387 38.7475C11.0833 38.98 13.0158 38.5677 14.664 37.576C23.7772 32.0565 31.4196 24.414 36.9392 15.3008C37.9378 13.6547 38.3541 11.7206 38.1214 9.80939C37.8886 7.89813 37.0202 6.12057 35.6557 4.76221C31.7055 0.797747 25.1028 1.61061 22.2079 6.38793Z" fill="url(#paint3_radial_860_3440)"/>
<path d="M22.2079 6.38793C18.1287 13.1196 12.4828 18.7655 5.75109 22.8447C0.973775 25.7396 0.175178 32.3423 4.12538 36.2925C5.48742 37.6508 7.26439 38.5149 9.17387 38.7475C11.0833 38.98 13.0158 38.5677 14.664 37.576C23.7772 32.0565 31.4196 24.414 36.9392 15.3008C37.9378 13.6547 38.3541 11.7206 38.1214 9.80939C37.8886 7.89813 37.0202 6.12057 35.6557 4.76221C31.7055 0.797747 25.1028 1.61061 22.2079 6.38793Z" fill="url(#paint4_radial_860_3440)"/>
<path d="M22.2079 6.38793C18.1287 13.1196 12.4828 18.7655 5.75109 22.8447C0.973775 25.7396 0.175178 32.3423 4.12538 36.2925C5.48742 37.6508 7.26439 38.5149 9.17387 38.7475C11.0833 38.98 13.0158 38.5677 14.664 37.576C23.7772 32.0565 31.4196 24.414 36.9392 15.3008C37.9378 13.6547 38.3541 11.7206 38.1214 9.80939C37.8886 7.89813 37.0202 6.12057 35.6557 4.76221C31.7055 0.797747 25.1028 1.61061 22.2079 6.38793Z" fill="url(#paint5_radial_860_3440)"/>
<path d="M27.7554 12.1778C24.1902 18.7663 18.7711 24.1853 12.1827 27.7505C8.23251 29.8896 7.44818 35.2373 10.6283 38.4174L10.7139 38.503C12.853 40.6421 16.1329 41.1127 18.7711 39.6724C27.6127 34.8808 34.8857 27.6221 39.6773 18.7663C41.1176 16.1138 40.6327 12.8338 38.5079 10.709L38.4223 10.6234C35.2422 7.4433 29.8945 8.22763 27.7554 12.1778Z" fill="#E7A582"/>
<path d="M27.7554 12.1778C24.1902 18.7663 18.7711 24.1853 12.1827 27.7505C8.23251 29.8896 7.44818 35.2373 10.6283 38.4174L10.7139 38.503C12.853 40.6421 16.1329 41.1127 18.7711 39.6724C27.6127 34.8808 34.8857 27.6221 39.6773 18.7663C41.1176 16.1138 40.6327 12.8338 38.5079 10.709L38.4223 10.6234C35.2422 7.4433 29.8945 8.22763 27.7554 12.1778Z" fill="url(#paint6_radial_860_3440)"/>
<path d="M27.7554 12.1778C24.1902 18.7663 18.7711 24.1853 12.1827 27.7505C8.23251 29.8896 7.44818 35.2373 10.6283 38.4174L10.7139 38.503C12.853 40.6421 16.1329 41.1127 18.7711 39.6724C27.6127 34.8808 34.8857 27.6221 39.6773 18.7663C41.1176 16.1138 40.6327 12.8338 38.5079 10.709L38.4223 10.6234C35.2422 7.4433 29.8945 8.22763 27.7554 12.1778Z" fill="url(#paint7_radial_860_3440)"/>
<path d="M27.7554 12.1778C24.1902 18.7663 18.7711 24.1853 12.1827 27.7505C8.23251 29.8896 7.44818 35.2373 10.6283 38.4174L10.7139 38.503C12.853 40.6421 16.1329 41.1127 18.7711 39.6724C27.6127 34.8808 34.8857 27.6221 39.6773 18.7663C41.1176 16.1138 40.6327 12.8338 38.5079 10.709L38.4223 10.6234C35.2422 7.4433 29.8945 8.22763 27.7554 12.1778Z" fill="url(#paint8_radial_860_3440)"/>
<path d="M27.7554 12.1778C24.1902 18.7663 18.7711 24.1853 12.1827 27.7505C8.23251 29.8896 7.44818 35.2373 10.6283 38.4174L10.7139 38.503C12.853 40.6421 16.1329 41.1127 18.7711 39.6724C27.6127 34.8808 34.8857 27.6221 39.6773 18.7663C41.1176 16.1138 40.6327 12.8338 38.5079 10.709L38.4223 10.6234C35.2422 7.4433 29.8945 8.22763 27.7554 12.1778Z" fill="url(#paint9_radial_860_3440)"/>
<g filter="url(#filter0_f_860_3440)">
<path fill-rule="evenodd" clip-rule="evenodd" d="M27.1939 7.41494C27.4529 7.67407 27.5984 8.02543 27.5984 8.3918C27.5984 8.75816 27.4529 9.10952 27.1939 9.36865C26.8488 9.71376 26.8245 9.96047 26.8288 10.7177V10.7648C26.8331 11.5662 26.8402 12.8468 25.6537 14.0319C24.4687 15.2184 23.1867 15.2112 22.3866 15.207H22.3396C21.5823 15.2041 21.3356 15.2269 20.9905 15.572C20.6454 15.9171 20.6226 16.1639 20.6254 16.9211V16.9682C20.6297 17.7696 20.6368 19.0502 19.4504 20.2353C18.2653 21.4218 16.9833 21.4146 16.1832 21.4104H16.1362C15.3789 21.4061 15.1322 21.4303 14.7871 21.7754C14.442 22.1205 14.4192 22.3672 14.4221 23.1245V23.1715C14.4263 23.973 14.4335 25.2536 13.247 26.4387L13.2427 26.4429C12.0576 27.618 10.7756 27.6109 9.977 27.6066H9.92709C9.16272 27.6023 8.92029 27.628 8.58374 27.9646C8.32461 28.2235 7.97324 28.369 7.60688 28.369C7.24052 28.369 6.88915 28.2235 6.63003 27.9646C6.09097 27.4255 6.4261 26.8636 6.96515 26.3246C8.14451 25.1452 9.17841 25.1837 9.977 25.188C10.7756 25.1923 10.9453 24.8286 11.2961 24.4821C11.6384 24.1398 12.1375 24.1384 12.1346 23.3826C12.1318 22.584 12.0334 21.2278 13.2427 20.0171C14.4292 18.832 15.3347 18.9219 16.1362 18.9261C16.9276 18.9304 17.3769 18.9974 17.7277 18.6466C18.0728 18.3015 18.3323 17.6769 18.3295 16.9211C18.3252 16.1225 18.2411 15.033 19.4504 13.8237C20.6368 12.6372 21.5381 12.8397 22.3396 12.8425C23.131 12.8468 23.5261 12.593 23.8783 12.2407C24.2291 11.8899 24.4387 11.5092 24.4345 10.7177C24.4302 9.91626 24.1849 8.79252 25.3714 7.60603C25.9104 7.06698 26.6548 6.87589 27.1939 7.41494Z" fill="#E83F0F"/>
</g>
<path fill-rule="evenodd" clip-rule="evenodd" d="M27.021 6.88006C27.2799 7.13918 27.4254 7.49055 27.4254 7.85691C27.4254 8.22327 27.2799 8.57464 27.021 8.83377C26.6759 9.17887 26.653 9.42558 26.6559 10.1828V10.2299C26.6602 11.0313 26.6673 12.3119 25.4808 13.497C24.2958 14.6835 23.0137 14.6764 22.2137 14.6721H22.1666C21.4094 14.6692 21.1627 14.692 20.8176 15.0372C20.4725 15.3823 20.4482 15.629 20.4525 16.3862V16.4333C20.4568 17.2347 20.4639 18.5153 19.2774 19.7004C18.0924 20.8869 16.8103 20.8797 16.0103 20.8755H15.9632C15.206 20.8712 14.9593 20.8954 14.6142 21.2405C14.2691 21.5856 14.2463 21.8324 14.2491 22.5896V22.6367C14.2534 23.4381 14.2605 24.7187 13.074 25.9038L13.0698 25.9081C11.8847 27.0831 10.6027 27.076 9.80407 27.0717H9.75416C8.98979 27.0674 8.74736 27.0931 8.4108 27.4297C8.28364 27.5629 8.13113 27.6694 7.96223 27.7428C7.79332 27.8163 7.61144 27.8552 7.42727 27.8574C7.24311 27.8595 7.06037 27.8248 6.8898 27.7553C6.71923 27.6858 6.56427 27.583 6.43403 27.4527C6.3038 27.3225 6.20091 27.1675 6.13142 26.997C6.06193 26.8264 6.02724 26.6437 6.02939 26.4595C6.03154 26.2753 6.07048 26.0934 6.14393 25.9245C6.21738 25.7556 6.32386 25.6031 6.45709 25.476C7.63645 24.2966 8.91706 24.3037 9.71565 24.3066C10.5143 24.3123 10.7709 24.2937 11.1218 23.9472C11.4726 23.5964 11.4897 23.344 11.4854 22.5539C11.4811 21.7525 11.474 20.4719 12.6605 19.2868C13.8698 18.0775 15.1775 18.1075 15.9761 18.1118C16.7319 18.1146 16.9786 18.0918 17.3237 17.7467C17.676 17.3944 17.6931 17.142 17.6888 16.3506C17.6845 15.5491 17.6774 14.2685 18.8639 13.0834C20.0489 11.897 21.331 11.9041 22.131 11.9084C22.9225 11.9126 23.1749 11.8941 23.5271 11.5433C23.8722 11.1982 23.8965 10.9515 23.8922 10.1942C23.8893 9.39706 23.858 8.08936 25.0673 6.88006C25.3264 6.62107 25.6777 6.47559 26.0441 6.47559C26.4105 6.47559 26.7618 6.62107 27.021 6.88006Z" fill="url(#paint10_linear_860_3440)"/>
<defs>
<filter id="filter0_f_860_3440" x="5.35645" y="6.09375" width="23.2422" height="23.2754" filterUnits="userSpaceOnUse" color-interpolation-filters="sRGB">
<feFlood flood-opacity="0" result="BackgroundImageFix"/>
<feBlend mode="normal" in="SourceGraphic" in2="BackgroundImageFix" result="shape"/>
<feGaussianBlur stdDeviation="0.5" result="effect1_foregroundBlur_860_3440"/>
</filter>
<radialGradient id="paint0_radial_860_3440" cx="0" cy="0" r="1" gradientUnits="userSpaceOnUse" gradientTransform="translate(20.2902 5.84604) rotate(90) scale(24.2431 63.5275)">
<stop offset="0.044" stop-color="#F2C28D"/>
<stop offset="0.904" stop-color="#E7B07E" stop-opacity="0"/>
</radialGradient>
<linearGradient id="paint1_linear_860_3440" x1="29.0245" y1="28.3066" x2="12.09" y2="13.1546" gradientUnits="userSpaceOnUse">
<stop stop-color="#E9542B"/>
<stop offset="1" stop-color="#EC734D"/>
</linearGradient>
<radialGradient id="paint2_radial_860_3440" cx="0" cy="0" r="1" gradientUnits="userSpaceOnUse" gradientTransform="translate(11.1978 40.4277) rotate(-99.656) scale(20.1922 20.1947)">
<stop offset="0.104" stop-color="#EC3F67"/>
<stop offset="0.641" stop-color="#FF5948"/>
<stop offset="1" stop-color="#FF6654" stop-opacity="0"/>
</radialGradient>
<radialGradient id="paint3_radial_860_3440" cx="0" cy="0" r="1" gradientUnits="userSpaceOnUse" gradientTransform="translate(34.194 7.80686) rotate(99.4623) scale(9.75872 9.75988)">
<stop stop-color="#FD9655"/>
<stop offset="1" stop-color="#FD9653" stop-opacity="0"/>
</radialGradient>
<radialGradient id="paint4_radial_860_3440" cx="0" cy="0" r="1" gradientUnits="userSpaceOnUse" gradientTransform="translate(24.2115 25.4544) rotate(45.6031) scale(11.9752 25.5902)">
<stop stop-color="#E65127"/>
<stop offset="1" stop-color="#E65127" stop-opacity="0"/>
</radialGradient>
<radialGradient id="paint5_radial_860_3440" cx="0" cy="0" r="1" gradientUnits="userSpaceOnUse" gradientTransform="translate(15.6551 11.5503) rotate(133.958) scale(13.8675 6.91948)">
<stop stop-color="#E97E53"/>
<stop offset="1" stop-color="#EC8A60" stop-opacity="0"/>
</radialGradient>
<radialGradient id="paint6_radial_860_3440" cx="0" cy="0" r="1" gradientUnits="userSpaceOnUse" gradientTransform="translate(32.0549 13.6895) rotate(126.757) scale(36.0438 36.0394)">
<stop stop-color="#EBB494"/>
<stop offset="1" stop-color="#DF9860"/>
</radialGradient>
<radialGradient id="paint7_radial_860_3440" cx="0" cy="0" r="1" gradientUnits="userSpaceOnUse" gradientTransform="translate(22.7847 12.62) rotate(102.465) scale(34.6866 25.3362)">
<stop offset="0.555" stop-color="#D77069" stop-opacity="0"/>
<stop offset="0.826" stop-color="#D86F69"/>
</radialGradient>
<radialGradient id="paint8_radial_860_3440" cx="0" cy="0" r="1" gradientUnits="userSpaceOnUse" gradientTransform="translate(38.4722 12.9764) rotate(60.2551) scale(10.0601 7.73857)">
<stop stop-color="#FFD1A1"/>
<stop offset="0.902" stop-color="#FFD19F" stop-opacity="0"/>
</radialGradient>
<radialGradient id="paint9_radial_860_3440" cx="0" cy="0" r="1" gradientUnits="userSpaceOnUse" gradientTransform="translate(49.346 38.2891) rotate(-164.667) scale(45.8397 55.7459)">
<stop offset="0.807" stop-color="#F0A074" stop-opacity="0"/>
<stop offset="0.891" stop-color="#F0A470"/>
</radialGradient>
<linearGradient id="paint10_linear_860_3440" x1="19.3986" y1="18.9489" x2="14.898" y2="14.4468" gradientUnits="userSpaceOnUse">
<stop stop-color="#E8BF1C"/>
<stop offset="0.376" stop-color="#E8C83E"/>
<stop offset="0.693" stop-color="#E9CF57"/>
</linearGradient>
</defs>
</svg>
