<svg width="25" height="26" viewBox="0 0 25 26" fill="none" xmlns="http://www.w3.org/2000/svg">
<path fill-rule="evenodd" clip-rule="evenodd" d="M17.5156 14.2363L13.0944 16.7889L15.4768 20.9153L19.898 18.3627C21.0374 17.7049 21.4279 16.2479 20.77 15.1083C20.1121 13.9689 18.6551 13.5784 17.5156 14.2363ZM16.1575 22.0943L20.5787 19.5417C22.3693 18.5079 22.9828 16.2183 21.9489 14.4277C20.9151 12.6371 18.6255 12.0236 16.8349 13.0574L12.4138 15.6099C12.3198 15.4471 12.1116 15.3914 11.9489 15.4854L6.93824 18.3783C4.98483 19.506 4.31558 22.0038 5.44333 23.9572C6.57115 25.9106 9.06891 26.5798 11.0223 25.4521L16.0329 22.5592C16.1957 22.4652 16.2515 22.257 16.1575 22.0943ZM9.76095 18.1881L7.21242 19.6444C6.18711 20.2303 5.73174 21.4243 6.01429 22.5122C6.10883 22.876 6.53508 22.9897 6.86146 22.8031C7.02469 22.7099 7.0771 22.5022 7.02163 22.3227C6.81286 21.6472 7.08847 20.8912 7.71898 20.5309L10.2675 19.0746C10.5123 18.9347 10.5974 18.6229 10.4575 18.378C10.3176 18.1333 10.0057 18.0482 9.76095 18.1881Z" fill="#FFC36A"/>
<path fill-rule="evenodd" clip-rule="evenodd" d="M11.9945 16.245L9.91819 17.4437C10.3642 17.4079 10.8118 17.6262 11.0485 18.0404C11.3748 18.6115 11.1764 19.3392 10.6052 19.6656L8.05674 21.1219C7.71422 21.3176 7.55351 21.7384 7.67195 22.1217C7.79413 22.5171 7.71258 23.1007 7.19922 23.3941C6.87685 23.5783 6.49199 23.6231 6.14491 23.5128C6.07004 23.489 5.997 23.4579 5.9273 23.4196C5.96011 23.486 5.99523 23.5518 6.0328 23.6168C6.97269 25.2447 9.05414 25.8024 10.682 24.8626L15.3979 22.1399L11.9945 16.245ZM13.0944 16.7889L17.5156 14.2363C18.6551 13.5784 20.1121 13.9689 20.77 15.1083C21.4279 16.2479 21.0374 17.7049 19.898 18.3627L15.4768 20.9153L13.0944 16.7889ZM16.1575 22.0943L20.5787 19.5417C22.3693 18.5079 22.9828 16.2183 21.9489 14.4277C20.9151 12.6371 18.6255 12.0236 16.8349 13.0574L12.4138 15.6099C12.3198 15.4472 12.1116 15.3914 11.9489 15.4854L6.93824 18.3783C4.98483 19.506 4.31558 22.0038 5.44333 23.9572C6.57115 25.9106 9.06891 26.5798 11.0223 25.4521L16.0329 22.5592C16.1957 22.4652 16.2515 22.257 16.1575 22.0943ZM7.21242 19.6444L9.76095 18.1881C10.0057 18.0482 10.3176 18.1333 10.4575 18.378C10.5974 18.6229 10.5123 18.9347 10.2675 19.0746L7.71898 20.5309C7.08847 20.8912 6.81286 21.6472 7.02163 22.3227C7.0771 22.5022 7.02469 22.7099 6.86146 22.8031C6.53508 22.9897 6.10883 22.876 6.01429 22.5122C5.73174 21.4243 6.18711 20.2303 7.21242 19.6444Z" fill="#FFC36A"/>
<path d="M22.985 8.65423C23.1268 8.79595 23.3606 8.7854 23.4777 8.62272C25.0103 6.49464 24.8193 3.50938 22.9048 1.59494C20.9904 -0.319518 18.0051 -0.510483 15.877 1.02203C15.7144 1.13914 15.7038 1.37303 15.8455 1.51473L22.985 8.65423Z" fill="#FFC36A"/>
<path d="M15.1236 2.23663C14.9819 2.09492 14.748 2.10548 14.6309 2.26811C13.0984 4.39616 13.2894 7.38142 15.2039 9.2959C17.1183 11.2103 20.1035 11.4013 22.2316 9.86883C22.3942 9.75168 22.4048 9.5178 22.2631 9.37608L15.1236 2.23663Z" fill="#FFC36A"/>
<path d="M5.17944 3.03687C5.75311 2.07282 7.18111 2.17746 7.60817 3.21482L10.9477 11.3273C11.3329 12.2631 10.5986 13.2772 9.58936 13.2033L1.76352 12.6299C0.754214 12.5559 0.175589 11.4456 0.69311 10.576L5.17944 3.03687Z" fill="#FFC36A"/>
</svg>
