<svg width="8" height="14" viewBox="0 0 8 14" fill="none" xmlns="http://www.w3.org/2000/svg">
<path fill-rule="evenodd" clip-rule="evenodd" d="M0.293 7.70734C0.105529 7.51981 0.000213623 7.26551 0.000213623 7.00034C0.000213623 6.73518 0.105529 6.48087 0.293 6.29334L5.95 0.636343C6.04225 0.540833 6.15259 0.464651 6.2746 0.412242C6.3966 0.359833 6.52782 0.332246 6.6606 0.331092C6.79338 0.329939 6.92506 0.355241 7.04795 0.405521C7.17085 0.455802 7.2825 0.530055 7.3764 0.623948C7.47029 0.717841 7.54454 0.829492 7.59482 0.952389C7.6451 1.07529 7.6704 1.20696 7.66925 1.33974C7.6681 1.47252 7.64051 1.60374 7.5881 1.72575C7.53569 1.84775 7.45951 1.9581 7.364 2.05034L2.414 7.00034L7.364 11.9503C7.54616 12.1389 7.64695 12.3915 7.64467 12.6537C7.6424 12.9159 7.53723 13.1668 7.35182 13.3522C7.16641 13.5376 6.9156 13.6427 6.6534 13.645C6.3912 13.6473 6.1386 13.5465 5.95 13.3643L0.293 7.70734Z" fill="black"/>
</svg>
