<svg width="15" height="15" viewBox="0 0 15 15" fill="none" xmlns="http://www.w3.org/2000/svg">
<g clip-path="url(#clip0_612_6457)">
<path d="M11.875 1.875C12.3723 1.875 12.8492 2.07254 13.2008 2.42417C13.5525 2.77581 13.75 3.25272 13.75 3.75V10C13.75 10.4973 13.5525 10.9742 13.2008 11.3258C12.8492 11.6775 12.3723 11.875 11.875 11.875H4.58313L2.5 13.4375C1.985 13.8237 1.25 13.4562 1.25 12.8125V3.75C1.25 3.25272 1.44754 2.77581 1.79917 2.42417C2.15081 2.07254 2.62772 1.875 3.125 1.875H11.875ZM11.875 3.125H3.125C2.95924 3.125 2.80027 3.19085 2.68306 3.30806C2.56585 3.42527 2.5 3.58424 2.5 3.75V11.875L3.83312 10.875C4.0495 10.7127 4.31266 10.625 4.58313 10.625H11.875C12.0408 10.625 12.1997 10.5592 12.3169 10.4419C12.4342 10.3247 12.5 10.1658 12.5 10V3.75C12.5 3.58424 12.4342 3.42527 12.3169 3.30806C12.1997 3.19085 12.0408 3.125 11.875 3.125ZM6.875 7.5C7.0343 7.50018 7.18752 7.56117 7.30336 7.67053C7.41919 7.77989 7.4889 7.92935 7.49823 8.08837C7.50757 8.2474 7.45583 8.40399 7.35358 8.52615C7.25134 8.6483 7.10631 8.72681 6.94812 8.74563L6.875 8.75H5C4.8407 8.74982 4.68748 8.68883 4.57164 8.57947C4.45581 8.47011 4.3861 8.32065 4.37677 8.16163C4.36743 8.0026 4.41917 7.84601 4.52142 7.72385C4.62366 7.6017 4.76869 7.52319 4.92687 7.50437L5 7.5H6.875ZM10 5C10.1658 5 10.3247 5.06585 10.4419 5.18306C10.5592 5.30027 10.625 5.45924 10.625 5.625C10.625 5.79076 10.5592 5.94973 10.4419 6.06694C10.3247 6.18415 10.1658 6.25 10 6.25H5C4.83424 6.25 4.67527 6.18415 4.55806 6.06694C4.44085 5.94973 4.375 5.79076 4.375 5.625C4.375 5.45924 4.44085 5.30027 4.55806 5.18306C4.67527 5.06585 4.83424 5 5 5H10Z" fill="#C3C3C3"/>
</g>
<defs>
<clipPath id="clip0_612_6457">
<rect width="15" height="15" fill="white"/>
</clipPath>
</defs>
</svg>
