<svg width="24" height="26" viewBox="0 0 24 26" fill="none" xmlns="http://www.w3.org/2000/svg">
<path d="M11.9996 0.666504C9.52423 0.666504 7.15026 1.64983 5.39992 3.40017C3.64958 5.15051 2.66625 7.52448 2.66625 9.99984V14.7038C2.66644 14.9107 2.61851 15.1147 2.52625 15.2998L0.236915 19.8772C0.125084 20.1008 0.0722777 20.3493 0.083513 20.5991C0.0947482 20.8489 0.169651 21.0916 0.301108 21.3043C0.432565 21.517 0.616211 21.6925 0.834604 21.8143C1.053 21.936 1.29889 21.9999 1.54892 21.9998H22.4502C22.7003 21.9999 22.9462 21.936 23.1646 21.8143C23.383 21.6925 23.5666 21.517 23.6981 21.3043C23.8295 21.0916 23.9044 20.8489 23.9157 20.5991C23.9269 20.3493 23.8741 20.1008 23.7622 19.8772L21.4742 15.2998C21.3815 15.1148 21.3331 14.9108 21.3329 14.7038V9.99984C21.3329 7.52448 20.3496 5.15051 18.5992 3.40017C16.8489 1.64983 14.4749 0.666504 11.9996 0.666504ZM11.9996 25.9998C11.172 26.0003 10.3647 25.744 9.68894 25.2664C9.01313 24.7888 8.50209 24.1134 8.22625 23.3332H15.7729C15.4971 24.1134 14.986 24.7888 14.3102 25.2664C13.6344 25.744 12.8271 26.0003 11.9996 25.9998Z" fill="#555555"/>
</svg>
