<svg width="32" height="32" viewBox="0 0 32 32" fill="none" xmlns="http://www.w3.org/2000/svg">
<path d="M31.25 7.90011L24.1011 0.749985C23.8634 0.512214 23.5811 0.323601 23.2705 0.194917C22.9599 0.0662332 22.6269 0 22.2907 0C21.9544 0 21.6215 0.0662332 21.3109 0.194917C21.0002 0.323601 20.718 0.512214 20.4803 0.749985L0.750422 20.4804C0.511666 20.7173 0.322374 20.9992 0.19355 21.3099C0.0647253 21.6205 -0.00106151 21.9537 1.29521e-05 22.29V29.4401C1.29521e-05 30.119 0.26973 30.7701 0.749828 31.2502C1.22993 31.7303 1.88108 32 2.56004 32H9.71053C10.0468 32.0011 10.38 31.9353 10.6907 31.8065C11.0013 31.6776 11.2833 31.4884 11.5201 31.2496L31.25 11.5208C31.4878 11.2831 31.6764 11.0008 31.8051 10.6902C31.9338 10.3796 32 10.0467 32 9.71044C32 9.37422 31.9338 9.04129 31.8051 8.73067C31.6764 8.42005 31.4878 8.13783 31.25 7.90011ZM3.08965 21.7604L16.6402 8.2105L19.3106 10.8808L5.76008 24.4291L3.08965 21.7604ZM2.56004 24.8499L7.1505 29.4401H2.56004V24.8499ZM10.2401 28.9105L7.5697 26.2402L21.1203 12.6903L23.7907 15.3606L10.2401 28.9105ZM25.6003 13.5511L18.4498 6.40097L22.2899 2.56112L29.4404 9.70964L25.6003 13.5511Z" fill="white"/>
</svg>
