<svg width="20" height="20" viewBox="0 0 20 20" fill="none" xmlns="http://www.w3.org/2000/svg">
<g clip-path="url(#clip0_1646_6202)">
<path d="M5.71404 2.03756C6.66654 2.73172 7.40821 3.67922 8.04154 4.58589L8.40987 5.12256L8.75737 5.63506C8.93119 5.889 9.00551 6.19801 8.96617 6.50322C8.92683 6.80843 8.77658 7.0885 8.54404 7.29006L6.91821 8.49756C6.83966 8.55428 6.78437 8.63758 6.76261 8.73199C6.74084 8.82641 6.75408 8.92551 6.79987 9.01089C7.16821 9.68006 7.82321 10.6767 8.57321 11.4267C9.32321 12.1767 10.3674 12.8751 11.0832 13.2851C11.173 13.3354 11.2786 13.3495 11.3784 13.3244C11.4782 13.2993 11.5646 13.2369 11.6199 13.1501L12.6782 11.5392C12.8728 11.2808 13.1598 11.1076 13.4792 11.056C13.7986 11.0045 14.1255 11.0785 14.3915 11.2626L14.944 11.6451C15.9765 12.3617 17.0857 13.1759 17.934 14.2617C18.0686 14.4349 18.1542 14.641 18.1819 14.8585C18.2096 15.0761 18.1784 15.297 18.0915 15.4984C17.394 17.1259 15.629 18.5117 13.7932 18.4442L13.5432 18.4301L13.349 18.4134L13.134 18.3884L12.8999 18.3567L12.6457 18.3151L12.5124 18.2901L12.2324 18.2301L12.0857 18.1967L11.7807 18.1184L11.4599 18.0267L11.1249 17.9184C9.58654 17.3967 7.63404 16.3717 5.63071 14.3684C3.62737 12.3651 2.60321 10.4134 2.08154 8.87506L1.97321 8.54006L1.88154 8.21922L1.80321 7.91422L1.73821 7.62589C1.71946 7.53558 1.70195 7.44502 1.68571 7.35422L1.64404 7.10006L1.61071 6.86589L1.58654 6.65089L1.56988 6.45672L1.55654 6.20672C1.48904 4.37672 2.88988 2.59922 4.50988 1.90506C4.70486 1.82086 4.91838 1.78881 5.12948 1.81204C5.34059 1.83527 5.54203 1.91298 5.71404 2.03756ZM12.4932 5.03339L12.5899 5.04422C13.1965 5.15122 13.7536 5.44751 14.1815 5.89062C14.6093 6.33374 14.8859 6.90092 14.9715 7.51089C15.0021 7.72187 14.9506 7.93654 14.8277 8.11073C14.7048 8.28491 14.5198 8.40538 14.3108 8.44733C14.1018 8.48928 13.8846 8.44953 13.704 8.33626C13.5234 8.223 13.3931 8.04482 13.3399 7.83839L13.3207 7.74256C13.2872 7.50348 13.1851 7.27922 13.0269 7.09688C12.8687 6.91454 12.661 6.78193 12.429 6.71506L12.2999 6.68589C12.0906 6.6488 11.9034 6.53317 11.7766 6.36265C11.6498 6.19212 11.5929 5.97959 11.6176 5.76851C11.6423 5.55744 11.7467 5.36377 11.9095 5.22713C12.0722 5.09048 12.281 5.02118 12.4932 5.03339ZM12.4999 2.50006C13.826 2.50006 15.0977 3.02684 16.0354 3.96452C16.9731 4.90221 17.4999 6.17397 17.4999 7.50006C17.4996 7.71246 17.4183 7.91675 17.2725 8.0712C17.1267 8.22565 16.9274 8.31859 16.7154 8.33103C16.5033 8.34348 16.2946 8.2745 16.1317 8.13817C15.9688 8.00185 15.8641 7.80847 15.839 7.59756L15.8332 7.50006C15.8331 6.65386 15.5112 5.83936 14.9327 5.22175C14.3543 4.60414 13.5626 4.22965 12.7182 4.17422L12.4999 4.16672C12.2789 4.16672 12.0669 4.07893 11.9106 3.92265C11.7543 3.76637 11.6665 3.5544 11.6665 3.33339C11.6665 3.11238 11.7543 2.90042 11.9106 2.74414C12.0669 2.58785 12.2789 2.50006 12.4999 2.50006Z" fill="white"/>
</g>
<defs>
<clipPath id="clip0_1646_6202">
<rect width="20" height="20" fill="white"/>
</clipPath>
</defs>
</svg>
