<svg width="19" height="18" viewBox="0 0 19 18" fill="none" xmlns="http://www.w3.org/2000/svg">
<g clip-path="url(#clip0_212_6939)">
<path d="M15.8335 2.25C16.233 2.24988 16.6177 2.3928 16.9106 2.65012C17.2035 2.90744 17.3829 3.26013 17.4129 3.6375L17.4168 3.75V14.25C17.417 14.6284 17.2661 14.9929 16.9945 15.2704C16.7229 15.5479 16.3506 15.7179 15.9522 15.7463L15.8335 15.75H3.16683C2.76737 15.7501 2.38263 15.6072 2.08973 15.3499C1.79683 15.0926 1.61741 14.7399 1.58745 14.3625L1.5835 14.25V3.75C1.58337 3.37157 1.73423 3.00708 2.00585 2.72959C2.27746 2.4521 2.64975 2.28213 3.04808 2.25375L3.16683 2.25H15.8335ZM7.82104 9.0375L3.34258 13.2803C3.29047 13.3298 3.23132 13.3722 3.16683 13.4062V14.25H15.8335V13.4062C15.769 13.3722 15.7098 13.3298 15.6577 13.2803L13.4189 11.16L12.8592 11.6903L13.0231 11.8455C13.0966 11.9152 13.1549 11.9979 13.1946 12.0889C13.2344 12.18 13.2548 12.2775 13.2548 12.376C13.2548 12.4745 13.2342 12.5721 13.1944 12.6631C13.1546 12.7541 13.0962 12.8367 13.0227 12.9064C12.9491 12.976 12.8618 13.0312 12.7657 13.0689C12.6697 13.1066 12.5667 13.1259 12.4627 13.1259C12.3587 13.1259 12.2558 13.1064 12.1597 13.0687C12.0636 13.031 11.9764 12.9757 11.9029 12.906L7.82183 9.0375H7.82104ZM15.8335 3.75H3.16683V11.325L7.1212 7.5795C7.29358 7.41624 7.5235 7.31899 7.76688 7.30639C8.01027 7.2938 8.25 7.36674 8.44012 7.51125L8.52008 7.57875L11.739 10.629L12.7191 9.7005C12.8915 9.53724 13.1214 9.43999 13.3648 9.42739C13.6081 9.4148 13.8479 9.48774 14.038 9.63225L14.1187 9.7005L15.8335 11.3258V3.75ZM12.271 5.25C12.5859 5.25 12.888 5.36853 13.1107 5.5795C13.3334 5.79048 13.4585 6.07663 13.4585 6.375C13.4585 6.67337 13.3334 6.95952 13.1107 7.1705C12.888 7.38147 12.5859 7.5 12.271 7.5C11.9561 7.5 11.654 7.38147 11.4313 7.1705C11.2086 6.95952 11.0835 6.67337 11.0835 6.375C11.0835 6.07663 11.2086 5.79048 11.4313 5.5795C11.654 5.36853 11.9561 5.25 12.271 5.25Z" fill="#C3C3C3"/>
</g>
<defs>
<clipPath id="clip0_212_6939">
<rect width="19" height="18" fill="white"/>
</clipPath>
</defs>
</svg>
