<svg width="19" height="19" viewBox="0 0 19 19" fill="none" xmlns="http://www.w3.org/2000/svg">
<g clip-path="url(#clip0_243_6118)">
<path fill-rule="evenodd" clip-rule="evenodd" d="M7.86113 15.618C9.24736 15.9892 10.7185 15.8789 12.0339 15.305C13.3493 14.7312 14.4309 13.7279 15.1017 12.4593C15.1502 12.3672 15.2163 12.2857 15.2962 12.2192C15.3762 12.1528 15.4685 12.1027 15.5678 12.0719C15.6671 12.0411 15.7715 12.0301 15.8751 12.0397C15.9786 12.0492 16.0792 12.0791 16.1713 12.1275C16.2633 12.176 16.3448 12.2421 16.4113 12.3221C16.4778 12.402 16.5278 12.4943 16.5586 12.5936C16.5894 12.6929 16.6004 12.7973 16.5908 12.9009C16.5813 13.0044 16.5514 13.1051 16.503 13.1971C14.8167 16.3954 11.0911 18.122 7.45105 17.1475C3.2275 16.0154 0.721878 11.6747 1.85317 7.45117C2.98446 3.22763 7.32596 0.722001 11.5487 1.85329C13.2221 2.3012 14.7023 3.28558 15.7625 4.6555C16.8227 6.02542 17.4043 7.70526 17.4181 9.43746C17.4237 10.1523 16.6304 10.5474 16.062 10.1658L13.9459 8.73921C13.1479 8.20088 13.683 6.95717 14.622 7.16696L15.4595 7.35379C15.0903 6.32914 14.4631 5.41701 13.6385 4.70552C12.8139 3.99403 11.8197 3.50722 10.752 3.29212C9.68434 3.07702 8.57922 3.14089 7.54343 3.47757C6.50763 3.81424 5.57616 4.41235 4.839 5.21411C4.10183 6.01586 3.58389 6.99417 3.33519 8.05454C3.08649 9.1149 3.11545 10.2215 3.41927 11.2674C3.72308 12.3133 4.29149 13.2632 5.06958 14.0253C5.84767 14.7874 6.80914 15.336 7.86113 15.618Z" fill="black"/>
</g>
<defs>
<clipPath id="clip0_243_6118">
<rect width="19" height="19" fill="white"/>
</clipPath>
</defs>
</svg>
