<svg width="current" height="current" viewBox="0 0 34 34" fill="none" xmlns="http://www.w3.org/2000/svg">
<path fill-rule="evenodd" clip-rule="evenodd" d="M29.75 19.833C29.75 19.4573 29.6007 19.097 29.3351 18.8313C29.0694 18.5656 28.7091 18.4163 28.3333 18.4163H11.3333C10.2062 18.4163 9.12516 17.9686 8.32813 17.1715C7.5311 16.3745 7.08333 15.2935 7.08333 14.1663V8.49967C7.08333 8.12395 6.93408 7.76362 6.6684 7.49794C6.40273 7.23226 6.04239 7.08301 5.66667 7.08301C5.29094 7.08301 4.93061 7.23226 4.66493 7.49794C4.39926 7.76362 4.25 8.12395 4.25 8.49967V14.1663C4.25 16.045 4.99628 17.8466 6.32466 19.175C7.65304 20.5034 9.45472 21.2497 11.3333 21.2497H28.3333C28.7091 21.2497 29.0694 21.1004 29.3351 20.8347C29.6007 20.5691 29.75 20.2087 29.75 19.833Z" fill="#AFAFAF"/>
<path fill-rule="evenodd" clip-rule="evenodd" d="M29.3352 20.8341C29.6008 20.5684 29.75 20.2082 29.75 19.8325C29.75 19.4569 29.6008 19.0966 29.3352 18.8309L23.6686 13.1643C23.4014 12.9062 23.0435 12.7634 22.6721 12.7667C22.3006 12.7699 21.9453 12.9189 21.6826 13.1815C21.42 13.4442 21.271 13.7995 21.2678 14.171C21.2645 14.5424 21.4073 14.9003 21.6654 15.1674L26.3305 19.8325L21.6654 24.4976C21.5301 24.6283 21.4222 24.7846 21.3479 24.9575C21.2737 25.1303 21.2346 25.3162 21.2329 25.5043C21.2313 25.6924 21.2672 25.8789 21.3384 26.053C21.4096 26.2271 21.5148 26.3853 21.6478 26.5183C21.7808 26.6514 21.939 26.7565 22.1131 26.8278C22.2872 26.899 22.4738 26.9349 22.6619 26.9332C22.85 26.9316 23.0359 26.8925 23.2087 26.8183C23.3815 26.744 23.5379 26.6361 23.6686 26.5008L29.3352 20.8341Z" fill="#AFAFAF"/>
</svg>
