<svg width="current" height="current" viewBox="0 0 24 24" fill="none" xmlns="http://www.w3.org/2000/svg">
<g clip-path="url(#clip0_2044_7626)">
<path d="M20.2502 3.53185C20.4282 3.48581 20.6155 3.48975 20.7915 3.54325C20.9674 3.59676 21.1252 3.69774 21.2475 3.83511C21.3698 3.97248 21.4518 4.14091 21.4846 4.32187C21.5173 4.50284 21.4996 4.68934 21.4332 4.86085L15.4332 20.3609C15.3738 20.5144 15.2775 20.6509 15.1528 20.7582C15.028 20.8656 14.8787 20.9405 14.718 20.9763C14.5574 21.0121 14.3904 21.0077 14.2318 20.9635C14.0733 20.9193 13.9281 20.8366 13.8092 20.7229L10.4272 17.4879L9.22419 18.6899C8.58819 19.3259 7.50019 18.8759 7.50019 17.9759V14.6879L2.30919 9.72285C2.1804 9.59963 2.08688 9.44422 2.03832 9.27272C1.98975 9.10121 1.98792 8.91984 2.03299 8.74739C2.07807 8.57494 2.16842 8.41767 2.29469 8.29186C2.42097 8.16606 2.57857 8.07629 2.75119 8.03185L20.2502 3.53185ZM18.1362 7.83685L10.1382 14.4439L14.1082 18.2419L18.1362 7.83685ZM16.5582 6.54685L4.99119 9.51985L8.68319 13.0499L16.5582 6.54485V6.54685Z"
fill="current"/>
</g>
<defs>
<clipPath id="clip0_2044_7626">
<rect width="24" height="24" fill="white"/>
</clipPath>
</defs>
</svg>
