<svg width="25" height="24" viewBox="0 0 25 24" fill="none" xmlns="http://www.w3.org/2000/svg">
<path fill-rule="evenodd" clip-rule="evenodd" d="M16.4701 5.37981C15.9631 5.53981 15.2801 5.83981 14.4301 6.31181C12.4601 7.40381 9.77306 9.52981 6.61006 13.0088C6.34246 13.3032 5.96887 13.4792 5.57148 13.4982C5.17409 13.5171 4.78545 13.3774 4.49106 13.1098C4.19667 12.8422 4.02064 12.4686 4.0017 12.0712C3.98276 11.6738 4.12246 11.2852 4.39006 10.9908C7.68806 7.36281 10.6261 4.99081 12.9761 3.68781C14.1521 3.03581 15.2671 2.54681 16.2211 2.34481C17.0201 2.17481 18.5091 2.06081 19.2931 3.34181C19.6421 3.91181 19.6831 4.54181 19.6281 5.05881C19.5731 5.58481 19.4061 6.13681 19.1761 6.69581C18.7161 7.81581 17.8991 9.20181 16.7261 10.8648C15.6351 12.4108 14.9601 13.5358 14.5761 14.3288C15.5861 13.8638 16.5071 13.0828 17.6301 12.9088C17.9501 12.8588 18.4131 12.8488 18.8781 13.0818C19.3881 13.3378 19.6721 13.7708 19.8011 14.1668C20.1051 15.0968 19.7191 16.1128 19.4351 17.0008C19.7781 16.986 20.1159 17.0894 20.392 17.2936C20.668 17.4979 20.8656 17.7907 20.9518 18.1231C21.0379 18.4555 21.0074 18.8075 20.8653 19.1201C20.7232 19.4327 20.4782 19.6871 20.1711 19.8408C19.1821 20.3358 17.9011 20.7868 16.9071 20.0568C16.5521 19.7932 16.2964 19.4176 16.1811 18.9908C15.9771 18.2658 16.1531 17.5018 16.3581 16.7968C15.5061 17.2368 14.5601 17.6558 13.5881 17.6958C13.1551 17.7128 12.5131 17.6518 11.9621 17.2048C11.3581 16.7148 11.1741 16.0228 11.1751 15.4388C11.1751 14.8868 11.3331 14.3118 11.5541 13.7508C11.9991 12.6178 12.8801 11.1108 14.2741 9.13481C15.1011 7.96481 15.9621 6.72981 16.4701 5.37981Z" fill="#FFC36A"/>
</svg>
