<svg width="39" height="41" viewBox="0 0 39 41" fill="none" xmlns="http://www.w3.org/2000/svg">
<g filter="url(#filter0_i_860_6410)">
<path d="M15.7001 2.19302C17.8737 -0.254785 20.833 0.134478 22.7253 2.19302L23.8789 3.52845C24.0758 3.74349 24.3196 3.91041 24.5913 4.01633C24.863 4.12224 25.1553 4.16433 25.4459 4.13934L27.4973 3.52845C30.2946 2.93035 32.8362 5.01731 32.8362 8.25785V9.47962C32.8959 10.1445 33.4783 10.5963 34.0793 10.8903L35.9332 11.6646C38.614 12.9745 39.2846 16.0829 37.3312 18.6912L36.7771 19.4229C36.2785 20.0963 36.3808 20.9799 36.8766 21.6533L37.4306 22.4304C39.4508 24.9166 38.3114 28.3276 35.4587 29.5196L33.8633 30.1873C33.261 30.4373 33.0251 30.8692 32.9143 31.5099L32.8021 33.5969C32.4143 36.4595 29.8713 37.7537 27.8298 37.4653L25.4004 36.8147C24.8165 36.7323 24.0906 36.9269 23.7013 37.5364L22.8248 38.7354C20.6497 41.1889 17.7132 40.7812 16.2329 39.3463L14.6133 37.3858C14.1914 36.9766 13.6572 36.6271 13.0179 36.8672L10.5715 37.5364C8.55131 37.8234 6.17311 36.2706 5.79237 34.266L5.51108 31.365C5.45445 31.0676 5.32791 30.7879 5.14191 30.5491C4.95591 30.3102 4.71577 30.119 4.44132 29.9912L2.72515 29.4016C0.143803 28.1983 -0.719963 25.2874 0.761793 22.8566L1.72785 21.5184C1.91815 21.2063 2.01489 20.8462 2.00658 20.4808C1.99827 20.1154 1.88526 19.76 1.68096 19.457L0.959266 18.4341C-1.08223 15.5274 0.32991 12.2769 3.35593 11.3023L4.02364 11.0892C4.75955 10.8506 5.47272 10.2383 5.53239 9.46684L5.68156 7.5944C5.92308 4.55417 8.69622 2.81101 11.6143 3.69751L12.559 3.98448C13.4682 4.33965 14.1814 4.03705 14.6786 3.49578L15.7001 2.19302Z" fill="url(#paint0_linear_860_6410)"/>
<path d="M15.7001 2.19302C17.8737 -0.254785 20.833 0.134478 22.7253 2.19302L23.8789 3.52845C24.0758 3.74349 24.3196 3.91041 24.5913 4.01633C24.863 4.12224 25.1553 4.16433 25.4459 4.13934L27.4973 3.52845C30.2946 2.93035 32.8362 5.01731 32.8362 8.25785V9.47962C32.8959 10.1445 33.4783 10.5963 34.0793 10.8903L35.9332 11.6646C38.614 12.9745 39.2846 16.0829 37.3312 18.6912L36.7771 19.4229C36.2785 20.0963 36.3808 20.9799 36.8766 21.6533L37.4306 22.4304C39.4508 24.9166 38.3114 28.3276 35.4587 29.5196L33.8633 30.1873C33.261 30.4373 33.0251 30.8692 32.9143 31.5099L32.8021 33.5969C32.4143 36.4595 29.8713 37.7537 27.8298 37.4653L25.4004 36.8147C24.8165 36.7323 24.0906 36.9269 23.7013 37.5364L22.8248 38.7354C20.6497 41.1889 17.7132 40.7812 16.2329 39.3463L14.6133 37.3858C14.1914 36.9766 13.6572 36.6271 13.0179 36.8672L10.5715 37.5364C8.55131 37.8234 6.17311 36.2706 5.79237 34.266L5.51108 31.365C5.45445 31.0676 5.32791 30.7879 5.14191 30.5491C4.95591 30.3102 4.71577 30.119 4.44132 29.9912L2.72515 29.4016C0.143803 28.1983 -0.719963 25.2874 0.761793 22.8566L1.72785 21.5184C1.91815 21.2063 2.01489 20.8462 2.00658 20.4808C1.99827 20.1154 1.88526 19.76 1.68096 19.457L0.959266 18.4341C-1.08223 15.5274 0.32991 12.2769 3.35593 11.3023L4.02364 11.0892C4.75955 10.8506 5.47272 10.2383 5.53239 9.46684L5.68156 7.5944C5.92308 4.55417 8.69622 2.81101 11.6143 3.69751L12.559 3.98448C13.4682 4.33965 14.1814 4.03705 14.6786 3.49578L15.7001 2.19302Z" fill="url(#paint1_radial_860_6410)"/>
<path d="M15.7001 2.19302C17.8737 -0.254785 20.833 0.134478 22.7253 2.19302L23.8789 3.52845C24.0758 3.74349 24.3196 3.91041 24.5913 4.01633C24.863 4.12224 25.1553 4.16433 25.4459 4.13934L27.4973 3.52845C30.2946 2.93035 32.8362 5.01731 32.8362 8.25785V9.47962C32.8959 10.1445 33.4783 10.5963 34.0793 10.8903L35.9332 11.6646C38.614 12.9745 39.2846 16.0829 37.3312 18.6912L36.7771 19.4229C36.2785 20.0963 36.3808 20.9799 36.8766 21.6533L37.4306 22.4304C39.4508 24.9166 38.3114 28.3276 35.4587 29.5196L33.8633 30.1873C33.261 30.4373 33.0251 30.8692 32.9143 31.5099L32.8021 33.5969C32.4143 36.4595 29.8713 37.7537 27.8298 37.4653L25.4004 36.8147C24.8165 36.7323 24.0906 36.9269 23.7013 37.5364L22.8248 38.7354C20.6497 41.1889 17.7132 40.7812 16.2329 39.3463L14.6133 37.3858C14.1914 36.9766 13.6572 36.6271 13.0179 36.8672L10.5715 37.5364C8.55131 37.8234 6.17311 36.2706 5.79237 34.266L5.51108 31.365C5.45445 31.0676 5.32791 30.7879 5.14191 30.5491C4.95591 30.3102 4.71577 30.119 4.44132 29.9912L2.72515 29.4016C0.143803 28.1983 -0.719963 25.2874 0.761793 22.8566L1.72785 21.5184C1.91815 21.2063 2.01489 20.8462 2.00658 20.4808C1.99827 20.1154 1.88526 19.76 1.68096 19.457L0.959266 18.4341C-1.08223 15.5274 0.32991 12.2769 3.35593 11.3023L4.02364 11.0892C4.75955 10.8506 5.47272 10.2383 5.53239 9.46684L5.68156 7.5944C5.92308 4.55417 8.69622 2.81101 11.6143 3.69751L12.559 3.98448C13.4682 4.33965 14.1814 4.03705 14.6786 3.49578L15.7001 2.19302Z" fill="url(#paint2_radial_860_6410)"/>
<path d="M15.7001 2.19302C17.8737 -0.254785 20.833 0.134478 22.7253 2.19302L23.8789 3.52845C24.0758 3.74349 24.3196 3.91041 24.5913 4.01633C24.863 4.12224 25.1553 4.16433 25.4459 4.13934L27.4973 3.52845C30.2946 2.93035 32.8362 5.01731 32.8362 8.25785V9.47962C32.8959 10.1445 33.4783 10.5963 34.0793 10.8903L35.9332 11.6646C38.614 12.9745 39.2846 16.0829 37.3312 18.6912L36.7771 19.4229C36.2785 20.0963 36.3808 20.9799 36.8766 21.6533L37.4306 22.4304C39.4508 24.9166 38.3114 28.3276 35.4587 29.5196L33.8633 30.1873C33.261 30.4373 33.0251 30.8692 32.9143 31.5099L32.8021 33.5969C32.4143 36.4595 29.8713 37.7537 27.8298 37.4653L25.4004 36.8147C24.8165 36.7323 24.0906 36.9269 23.7013 37.5364L22.8248 38.7354C20.6497 41.1889 17.7132 40.7812 16.2329 39.3463L14.6133 37.3858C14.1914 36.9766 13.6572 36.6271 13.0179 36.8672L10.5715 37.5364C8.55131 37.8234 6.17311 36.2706 5.79237 34.266L5.51108 31.365C5.45445 31.0676 5.32791 30.7879 5.14191 30.5491C4.95591 30.3102 4.71577 30.119 4.44132 29.9912L2.72515 29.4016C0.143803 28.1983 -0.719963 25.2874 0.761793 22.8566L1.72785 21.5184C1.91815 21.2063 2.01489 20.8462 2.00658 20.4808C1.99827 20.1154 1.88526 19.76 1.68096 19.457L0.959266 18.4341C-1.08223 15.5274 0.32991 12.2769 3.35593 11.3023L4.02364 11.0892C4.75955 10.8506 5.47272 10.2383 5.53239 9.46684L5.68156 7.5944C5.92308 4.55417 8.69622 2.81101 11.6143 3.69751L12.559 3.98448C13.4682 4.33965 14.1814 4.03705 14.6786 3.49578L15.7001 2.19302Z" fill="url(#paint3_radial_860_6410)"/>
<path d="M15.7001 2.19302C17.8737 -0.254785 20.833 0.134478 22.7253 2.19302L23.8789 3.52845C24.0758 3.74349 24.3196 3.91041 24.5913 4.01633C24.863 4.12224 25.1553 4.16433 25.4459 4.13934L27.4973 3.52845C30.2946 2.93035 32.8362 5.01731 32.8362 8.25785V9.47962C32.8959 10.1445 33.4783 10.5963 34.0793 10.8903L35.9332 11.6646C38.614 12.9745 39.2846 16.0829 37.3312 18.6912L36.7771 19.4229C36.2785 20.0963 36.3808 20.9799 36.8766 21.6533L37.4306 22.4304C39.4508 24.9166 38.3114 28.3276 35.4587 29.5196L33.8633 30.1873C33.261 30.4373 33.0251 30.8692 32.9143 31.5099L32.8021 33.5969C32.4143 36.4595 29.8713 37.7537 27.8298 37.4653L25.4004 36.8147C24.8165 36.7323 24.0906 36.9269 23.7013 37.5364L22.8248 38.7354C20.6497 41.1889 17.7132 40.7812 16.2329 39.3463L14.6133 37.3858C14.1914 36.9766 13.6572 36.6271 13.0179 36.8672L10.5715 37.5364C8.55131 37.8234 6.17311 36.2706 5.79237 34.266L5.51108 31.365C5.45445 31.0676 5.32791 30.7879 5.14191 30.5491C4.95591 30.3102 4.71577 30.119 4.44132 29.9912L2.72515 29.4016C0.143803 28.1983 -0.719963 25.2874 0.761793 22.8566L1.72785 21.5184C1.91815 21.2063 2.01489 20.8462 2.00658 20.4808C1.99827 20.1154 1.88526 19.76 1.68096 19.457L0.959266 18.4341C-1.08223 15.5274 0.32991 12.2769 3.35593 11.3023L4.02364 11.0892C4.75955 10.8506 5.47272 10.2383 5.53239 9.46684L5.68156 7.5944C5.92308 4.55417 8.69622 2.81101 11.6143 3.69751L12.559 3.98448C13.4682 4.33965 14.1814 4.03705 14.6786 3.49578L15.7001 2.19302Z" fill="url(#paint4_radial_860_6410)"/>
<path d="M15.7001 2.19302C17.8737 -0.254785 20.833 0.134478 22.7253 2.19302L23.8789 3.52845C24.0758 3.74349 24.3196 3.91041 24.5913 4.01633C24.863 4.12224 25.1553 4.16433 25.4459 4.13934L27.4973 3.52845C30.2946 2.93035 32.8362 5.01731 32.8362 8.25785V9.47962C32.8959 10.1445 33.4783 10.5963 34.0793 10.8903L35.9332 11.6646C38.614 12.9745 39.2846 16.0829 37.3312 18.6912L36.7771 19.4229C36.2785 20.0963 36.3808 20.9799 36.8766 21.6533L37.4306 22.4304C39.4508 24.9166 38.3114 28.3276 35.4587 29.5196L33.8633 30.1873C33.261 30.4373 33.0251 30.8692 32.9143 31.5099L32.8021 33.5969C32.4143 36.4595 29.8713 37.7537 27.8298 37.4653L25.4004 36.8147C24.8165 36.7323 24.0906 36.9269 23.7013 37.5364L22.8248 38.7354C20.6497 41.1889 17.7132 40.7812 16.2329 39.3463L14.6133 37.3858C14.1914 36.9766 13.6572 36.6271 13.0179 36.8672L10.5715 37.5364C8.55131 37.8234 6.17311 36.2706 5.79237 34.266L5.51108 31.365C5.45445 31.0676 5.32791 30.7879 5.14191 30.5491C4.95591 30.3102 4.71577 30.119 4.44132 29.9912L2.72515 29.4016C0.143803 28.1983 -0.719963 25.2874 0.761793 22.8566L1.72785 21.5184C1.91815 21.2063 2.01489 20.8462 2.00658 20.4808C1.99827 20.1154 1.88526 19.76 1.68096 19.457L0.959266 18.4341C-1.08223 15.5274 0.32991 12.2769 3.35593 11.3023L4.02364 11.0892C4.75955 10.8506 5.47272 10.2383 5.53239 9.46684L5.68156 7.5944C5.92308 4.55417 8.69622 2.81101 11.6143 3.69751L12.559 3.98448C13.4682 4.33965 14.1814 4.03705 14.6786 3.49578L15.7001 2.19302Z" fill="url(#paint5_radial_860_6410)"/>
<path d="M15.7001 2.19302C17.8737 -0.254785 20.833 0.134478 22.7253 2.19302L23.8789 3.52845C24.0758 3.74349 24.3196 3.91041 24.5913 4.01633C24.863 4.12224 25.1553 4.16433 25.4459 4.13934L27.4973 3.52845C30.2946 2.93035 32.8362 5.01731 32.8362 8.25785V9.47962C32.8959 10.1445 33.4783 10.5963 34.0793 10.8903L35.9332 11.6646C38.614 12.9745 39.2846 16.0829 37.3312 18.6912L36.7771 19.4229C36.2785 20.0963 36.3808 20.9799 36.8766 21.6533L37.4306 22.4304C39.4508 24.9166 38.3114 28.3276 35.4587 29.5196L33.8633 30.1873C33.261 30.4373 33.0251 30.8692 32.9143 31.5099L32.8021 33.5969C32.4143 36.4595 29.8713 37.7537 27.8298 37.4653L25.4004 36.8147C24.8165 36.7323 24.0906 36.9269 23.7013 37.5364L22.8248 38.7354C20.6497 41.1889 17.7132 40.7812 16.2329 39.3463L14.6133 37.3858C14.1914 36.9766 13.6572 36.6271 13.0179 36.8672L10.5715 37.5364C8.55131 37.8234 6.17311 36.2706 5.79237 34.266L5.51108 31.365C5.45445 31.0676 5.32791 30.7879 5.14191 30.5491C4.95591 30.3102 4.71577 30.119 4.44132 29.9912L2.72515 29.4016C0.143803 28.1983 -0.719963 25.2874 0.761793 22.8566L1.72785 21.5184C1.91815 21.2063 2.01489 20.8462 2.00658 20.4808C1.99827 20.1154 1.88526 19.76 1.68096 19.457L0.959266 18.4341C-1.08223 15.5274 0.32991 12.2769 3.35593 11.3023L4.02364 11.0892C4.75955 10.8506 5.47272 10.2383 5.53239 9.46684L5.68156 7.5944C5.92308 4.55417 8.69622 2.81101 11.6143 3.69751L12.559 3.98448C13.4682 4.33965 14.1814 4.03705 14.6786 3.49578L15.7001 2.19302Z" fill="url(#paint6_radial_860_6410)"/>
<path d="M15.7001 2.19302C17.8737 -0.254785 20.833 0.134478 22.7253 2.19302L23.8789 3.52845C24.0758 3.74349 24.3196 3.91041 24.5913 4.01633C24.863 4.12224 25.1553 4.16433 25.4459 4.13934L27.4973 3.52845C30.2946 2.93035 32.8362 5.01731 32.8362 8.25785V9.47962C32.8959 10.1445 33.4783 10.5963 34.0793 10.8903L35.9332 11.6646C38.614 12.9745 39.2846 16.0829 37.3312 18.6912L36.7771 19.4229C36.2785 20.0963 36.3808 20.9799 36.8766 21.6533L37.4306 22.4304C39.4508 24.9166 38.3114 28.3276 35.4587 29.5196L33.8633 30.1873C33.261 30.4373 33.0251 30.8692 32.9143 31.5099L32.8021 33.5969C32.4143 36.4595 29.8713 37.7537 27.8298 37.4653L25.4004 36.8147C24.8165 36.7323 24.0906 36.9269 23.7013 37.5364L22.8248 38.7354C20.6497 41.1889 17.7132 40.7812 16.2329 39.3463L14.6133 37.3858C14.1914 36.9766 13.6572 36.6271 13.0179 36.8672L10.5715 37.5364C8.55131 37.8234 6.17311 36.2706 5.79237 34.266L5.51108 31.365C5.45445 31.0676 5.32791 30.7879 5.14191 30.5491C4.95591 30.3102 4.71577 30.119 4.44132 29.9912L2.72515 29.4016C0.143803 28.1983 -0.719963 25.2874 0.761793 22.8566L1.72785 21.5184C1.91815 21.2063 2.01489 20.8462 2.00658 20.4808C1.99827 20.1154 1.88526 19.76 1.68096 19.457L0.959266 18.4341C-1.08223 15.5274 0.32991 12.2769 3.35593 11.3023L4.02364 11.0892C4.75955 10.8506 5.47272 10.2383 5.53239 9.46684L5.68156 7.5944C5.92308 4.55417 8.69622 2.81101 11.6143 3.69751L12.559 3.98448C13.4682 4.33965 14.1814 4.03705 14.6786 3.49578L15.7001 2.19302Z" fill="url(#paint7_radial_860_6410)"/>
<path d="M15.7001 2.19302C17.8737 -0.254785 20.833 0.134478 22.7253 2.19302L23.8789 3.52845C24.0758 3.74349 24.3196 3.91041 24.5913 4.01633C24.863 4.12224 25.1553 4.16433 25.4459 4.13934L27.4973 3.52845C30.2946 2.93035 32.8362 5.01731 32.8362 8.25785V9.47962C32.8959 10.1445 33.4783 10.5963 34.0793 10.8903L35.9332 11.6646C38.614 12.9745 39.2846 16.0829 37.3312 18.6912L36.7771 19.4229C36.2785 20.0963 36.3808 20.9799 36.8766 21.6533L37.4306 22.4304C39.4508 24.9166 38.3114 28.3276 35.4587 29.5196L33.8633 30.1873C33.261 30.4373 33.0251 30.8692 32.9143 31.5099L32.8021 33.5969C32.4143 36.4595 29.8713 37.7537 27.8298 37.4653L25.4004 36.8147C24.8165 36.7323 24.0906 36.9269 23.7013 37.5364L22.8248 38.7354C20.6497 41.1889 17.7132 40.7812 16.2329 39.3463L14.6133 37.3858C14.1914 36.9766 13.6572 36.6271 13.0179 36.8672L10.5715 37.5364C8.55131 37.8234 6.17311 36.2706 5.79237 34.266L5.51108 31.365C5.45445 31.0676 5.32791 30.7879 5.14191 30.5491C4.95591 30.3102 4.71577 30.119 4.44132 29.9912L2.72515 29.4016C0.143803 28.1983 -0.719963 25.2874 0.761793 22.8566L1.72785 21.5184C1.91815 21.2063 2.01489 20.8462 2.00658 20.4808C1.99827 20.1154 1.88526 19.76 1.68096 19.457L0.959266 18.4341C-1.08223 15.5274 0.32991 12.2769 3.35593 11.3023L4.02364 11.0892C4.75955 10.8506 5.47272 10.2383 5.53239 9.46684L5.68156 7.5944C5.92308 4.55417 8.69622 2.81101 11.6143 3.69751L12.559 3.98448C13.4682 4.33965 14.1814 4.03705 14.6786 3.49578L15.7001 2.19302Z" fill="url(#paint8_radial_860_6410)"/>
<path d="M15.7001 2.19302C17.8737 -0.254785 20.833 0.134478 22.7253 2.19302L23.8789 3.52845C24.0758 3.74349 24.3196 3.91041 24.5913 4.01633C24.863 4.12224 25.1553 4.16433 25.4459 4.13934L27.4973 3.52845C30.2946 2.93035 32.8362 5.01731 32.8362 8.25785V9.47962C32.8959 10.1445 33.4783 10.5963 34.0793 10.8903L35.9332 11.6646C38.614 12.9745 39.2846 16.0829 37.3312 18.6912L36.7771 19.4229C36.2785 20.0963 36.3808 20.9799 36.8766 21.6533L37.4306 22.4304C39.4508 24.9166 38.3114 28.3276 35.4587 29.5196L33.8633 30.1873C33.261 30.4373 33.0251 30.8692 32.9143 31.5099L32.8021 33.5969C32.4143 36.4595 29.8713 37.7537 27.8298 37.4653L25.4004 36.8147C24.8165 36.7323 24.0906 36.9269 23.7013 37.5364L22.8248 38.7354C20.6497 41.1889 17.7132 40.7812 16.2329 39.3463L14.6133 37.3858C14.1914 36.9766 13.6572 36.6271 13.0179 36.8672L10.5715 37.5364C8.55131 37.8234 6.17311 36.2706 5.79237 34.266L5.51108 31.365C5.45445 31.0676 5.32791 30.7879 5.14191 30.5491C4.95591 30.3102 4.71577 30.119 4.44132 29.9912L2.72515 29.4016C0.143803 28.1983 -0.719963 25.2874 0.761793 22.8566L1.72785 21.5184C1.91815 21.2063 2.01489 20.8462 2.00658 20.4808C1.99827 20.1154 1.88526 19.76 1.68096 19.457L0.959266 18.4341C-1.08223 15.5274 0.32991 12.2769 3.35593 11.3023L4.02364 11.0892C4.75955 10.8506 5.47272 10.2383 5.53239 9.46684L5.68156 7.5944C5.92308 4.55417 8.69622 2.81101 11.6143 3.69751L12.559 3.98448C13.4682 4.33965 14.1814 4.03705 14.6786 3.49578L15.7001 2.19302Z" fill="url(#paint9_radial_860_6410)"/>
</g>
<g filter="url(#filter1_d_860_6410)">
<path d="M19.228 35.7246C27.6569 35.7246 34.4903 28.8912 34.4903 20.4624C34.4903 12.0336 27.6569 5.2002 19.228 5.2002C10.7992 5.2002 3.96582 12.0336 3.96582 20.4624C3.96582 28.8927 10.7992 35.7246 19.228 35.7246Z" fill="url(#paint10_radial_860_6410)"/>
</g>
<g opacity="0.44" filter="url(#filter2_f_860_6410)">
<path d="M9.83701 25.5295C10.9523 25.5295 12.0219 25.0864 12.8105 24.2978C13.5991 23.5092 14.0422 22.4396 14.0422 21.3243C14.0422 20.209 13.5991 19.1394 12.8105 18.3508C12.0219 17.5622 10.9523 17.1191 9.83701 17.1191C8.72173 17.1191 7.65213 17.5622 6.8635 18.3508C6.07488 19.1394 5.63184 20.209 5.63184 21.3243C5.63184 22.4396 6.07488 23.5092 6.8635 24.2978C7.65213 25.0864 8.72173 25.5295 9.83701 25.5295Z" fill="url(#paint11_radial_860_6410)"/>
</g>
<g opacity="0.44" filter="url(#filter3_f_860_6410)">
<path d="M28.6183 25.5295C29.7335 25.5295 30.8031 25.0864 31.5918 24.2978C32.3804 23.5092 32.8234 22.4396 32.8234 21.3243C32.8234 20.209 32.3804 19.1394 31.5918 18.3508C30.8031 17.5622 29.7335 17.1191 28.6183 17.1191C27.503 17.1191 26.4334 17.5622 25.6448 18.3508C24.8561 19.1394 24.4131 20.209 24.4131 21.3243C24.4131 22.4396 24.8561 23.5092 25.6448 24.2978C26.4334 25.0864 27.503 25.5295 28.6183 25.5295Z" fill="url(#paint12_radial_860_6410)"/>
</g>
<g filter="url(#filter4_f_860_6410)">
<path fill-rule="evenodd" clip-rule="evenodd" d="M12.1739 23.4695C12.3737 23.2699 12.6445 23.1578 12.9269 23.1578C13.2092 23.1578 13.48 23.2699 13.6798 23.4695C14.4082 24.1982 15.2731 24.7764 16.225 25.1708C17.1769 25.5653 18.1971 25.7683 19.2275 25.7683C20.2579 25.7683 21.2782 25.5653 22.2301 25.1708C23.182 24.7764 24.0468 24.1982 24.7752 23.4695C24.8736 23.3677 24.9912 23.2866 25.1212 23.2308C25.2512 23.1751 25.391 23.1457 25.5325 23.1446C25.674 23.1434 25.8143 23.1704 25.9452 23.2241C26.0761 23.2777 26.1951 23.3569 26.2951 23.457C26.3951 23.5571 26.4741 23.6761 26.5276 23.807C26.5811 23.938 26.608 24.0783 26.6067 24.2198C26.6054 24.3613 26.576 24.5011 26.5201 24.631C26.4642 24.761 26.3829 24.8785 26.2811 24.9768C25.355 25.9033 24.2554 26.6383 23.0451 27.1398C21.8348 27.6413 20.5376 27.8994 19.2275 27.8994C17.9175 27.8994 16.6202 27.6413 15.41 27.1398C14.1997 26.6383 13.1001 25.9033 12.1739 24.9768C11.9744 24.777 11.8623 24.5062 11.8623 24.2238C11.8623 23.9415 11.9744 23.6692 12.1739 23.4695Z" fill="#D6961E"/>
</g>
<g filter="url(#filter5_i_860_6410)">
<path fill-rule="evenodd" clip-rule="evenodd" d="M12.5362 22.9434C12.736 22.7439 13.0068 22.6318 13.2892 22.6318C13.5715 22.6318 13.8423 22.7439 14.0421 22.9434C14.7704 23.6724 15.6352 24.2507 16.5872 24.6452C17.5391 25.0398 18.5594 25.2429 19.5898 25.2429C20.6203 25.2429 21.6406 25.0398 22.5925 24.6452C23.5444 24.2507 24.4092 23.6724 25.1375 22.9434C25.3395 22.7552 25.6067 22.6528 25.8827 22.6576C26.1587 22.6625 26.4221 22.7743 26.6173 22.9696C26.8125 23.1648 26.9244 23.4281 26.9292 23.7042C26.9341 23.9802 26.8317 24.2474 26.6434 24.4494C25.7172 25.3757 24.6175 26.1106 23.4073 26.612C22.197 27.1133 20.8998 27.3714 19.5898 27.3714C18.2798 27.3714 16.9826 27.1133 15.7724 26.612C14.5621 26.1106 13.4625 25.3757 12.5362 24.4494C12.3367 24.2496 12.2246 23.9788 12.2246 23.6964C12.2246 23.414 12.3367 23.1432 12.5362 22.9434Z" fill="url(#paint13_linear_860_6410)"/>
<path fill-rule="evenodd" clip-rule="evenodd" d="M12.5362 22.9434C12.736 22.7439 13.0068 22.6318 13.2892 22.6318C13.5715 22.6318 13.8423 22.7439 14.0421 22.9434C14.7704 23.6724 15.6352 24.2507 16.5872 24.6452C17.5391 25.0398 18.5594 25.2429 19.5898 25.2429C20.6203 25.2429 21.6406 25.0398 22.5925 24.6452C23.5444 24.2507 24.4092 23.6724 25.1375 22.9434C25.3395 22.7552 25.6067 22.6528 25.8827 22.6576C26.1587 22.6625 26.4221 22.7743 26.6173 22.9696C26.8125 23.1648 26.9244 23.4281 26.9292 23.7042C26.9341 23.9802 26.8317 24.2474 26.6434 24.4494C25.7172 25.3757 24.6175 26.1106 23.4073 26.612C22.197 27.1133 20.8998 27.3714 19.5898 27.3714C18.2798 27.3714 16.9826 27.1133 15.7724 26.612C14.5621 26.1106 13.4625 25.3757 12.5362 24.4494C12.3367 24.2496 12.2246 23.9788 12.2246 23.6964C12.2246 23.414 12.3367 23.1432 12.5362 22.9434Z" fill="url(#paint14_linear_860_6410)"/>
</g>
<g filter="url(#filter6_i_860_6410)">
<path fill-rule="evenodd" clip-rule="evenodd" d="M12.1949 10.8113C11.2606 10.8117 10.3647 11.183 9.704 11.8436C9.04334 12.5043 8.67202 13.4002 8.67164 14.3345C8.67164 14.5229 8.59681 14.7036 8.46359 14.8368C8.33038 14.97 8.1497 15.0449 7.96131 15.0449C7.77292 15.0449 7.59224 14.97 7.45903 14.8368C7.32582 14.7036 7.25098 14.5229 7.25098 14.3345C7.25135 13.0235 7.77235 11.7662 8.69943 10.8391C9.62652 9.912 10.8838 9.391 12.1949 9.39062C12.3833 9.39062 12.564 9.46546 12.6972 9.59868C12.8304 9.73189 12.9052 9.91257 12.9052 10.101C12.9052 10.2894 12.8304 10.47 12.6972 10.6032C12.564 10.7365 12.3833 10.8113 12.1949 10.8113Z" fill="#43304A"/>
<path fill-rule="evenodd" clip-rule="evenodd" d="M12.1949 10.8113C11.2606 10.8117 10.3647 11.183 9.704 11.8436C9.04334 12.5043 8.67202 13.4002 8.67164 14.3345C8.67164 14.5229 8.59681 14.7036 8.46359 14.8368C8.33038 14.97 8.1497 15.0449 7.96131 15.0449C7.77292 15.0449 7.59224 14.97 7.45903 14.8368C7.32582 14.7036 7.25098 14.5229 7.25098 14.3345C7.25135 13.0235 7.77235 11.7662 8.69943 10.8391C9.62652 9.912 10.8838 9.391 12.1949 9.39062C12.3833 9.39062 12.564 9.46546 12.6972 9.59868C12.8304 9.73189 12.9052 9.91257 12.9052 10.101C12.9052 10.2894 12.8304 10.47 12.6972 10.6032C12.564 10.7365 12.3833 10.8113 12.1949 10.8113Z" fill="url(#paint15_radial_860_6410)"/>
</g>
<g filter="url(#filter7_f_860_6410)">
<path fill-rule="evenodd" clip-rule="evenodd" d="M26.0566 10.4352C26.0566 10.0559 26.3635 9.74902 26.7428 9.74902C29.3696 9.74902 31.5163 11.88 31.5163 14.5225C31.5205 14.6151 31.5059 14.7076 31.4733 14.7945C31.4408 14.8813 31.391 14.9607 31.3269 15.0277C31.2628 15.0948 31.1858 15.1481 31.1006 15.1846C31.0153 15.2211 30.9235 15.2399 30.8308 15.2399C30.7381 15.2399 30.6463 15.2211 30.561 15.1846C30.4757 15.1481 30.3987 15.0948 30.3347 15.0277C30.2706 14.9607 30.2208 14.8813 30.1883 14.7945C30.1557 14.7076 30.1411 14.6151 30.1453 14.5225C30.1442 13.6207 29.7853 12.7562 29.1473 12.1188C28.5094 11.4814 27.6446 11.1232 26.7428 11.1228C26.5608 11.1228 26.3863 11.0505 26.2576 10.9218C26.1289 10.7931 26.0566 10.6172 26.0566 10.4352Z" fill="#C28D03"/>
</g>
<g filter="url(#filter8_i_860_6410)">
<path fill-rule="evenodd" clip-rule="evenodd" d="M26.2314 10.101C26.2314 9.91257 26.3063 9.73189 26.4395 9.59868C26.5727 9.46546 26.7534 9.39062 26.9418 9.39062C28.2529 9.391 29.5102 9.912 30.4372 10.8391C31.3643 11.7662 31.8853 13.0235 31.8857 14.3345C31.8857 14.5229 31.8109 14.7036 31.6776 14.8368C31.5444 14.97 31.3638 15.0449 31.1754 15.0449C30.987 15.0449 30.8063 14.97 30.6731 14.8368C30.5399 14.7036 30.465 14.5229 30.465 14.3345C30.4647 13.4002 30.0933 12.5043 29.4327 11.8436C28.772 11.183 27.8761 10.8117 26.9418 10.8113C26.7534 10.8113 26.5727 10.7365 26.4395 10.6032C26.3063 10.47 26.2314 10.2894 26.2314 10.101Z" fill="#43304A"/>
</g>
<g filter="url(#filter9_f_860_6410)">
<path fill-rule="evenodd" clip-rule="evenodd" d="M13.3138 16.0103C12.5466 16.0103 11.8974 16.4763 11.6374 17.1398C11.5904 17.2596 11.5202 17.3691 11.4309 17.4618C11.3416 17.5546 11.2349 17.6288 11.1169 17.6804C10.9989 17.7319 10.8719 17.7596 10.7432 17.7621C10.6144 17.7645 10.4865 17.7416 10.3666 17.6945C10.2467 17.6475 10.1373 17.5774 10.0446 17.4881C9.9518 17.3988 9.87755 17.2921 9.82604 17.1741C9.77452 17.056 9.74675 16.9291 9.74432 16.8003C9.74188 16.6716 9.76483 16.5436 9.81184 16.4238C10.0889 15.7216 10.5713 15.1194 11.1961 14.6959C11.8209 14.2723 12.559 14.0472 13.3138 14.0498C14.976 14.0498 16.3909 15.1295 16.8853 16.6312C16.9256 16.7535 16.9415 16.8825 16.9319 17.0109C16.9223 17.1393 16.8875 17.2646 16.8296 17.3795C16.7716 17.4945 16.6915 17.5969 16.594 17.681C16.4964 17.765 16.3833 17.829 16.261 17.8693C16.1387 17.9096 16.0096 17.9254 15.8812 17.9158C15.7528 17.9063 15.6276 17.8715 15.5126 17.8135C15.3976 17.7555 15.2952 17.6755 15.2112 17.5779C15.1271 17.4804 15.0631 17.3672 15.0228 17.2449C14.9042 16.8853 14.6752 16.5723 14.3683 16.3504C14.0615 16.1285 13.6925 16.009 13.3138 16.0089" fill="#C68D0F"/>
</g>
<path fill-rule="evenodd" clip-rule="evenodd" d="M13.5022 15.755C12.6683 15.755 11.965 16.2622 11.6823 16.9825C11.5791 17.2457 11.3755 17.4571 11.1164 17.5702C10.8573 17.6833 10.5639 17.6888 10.3007 17.5856C10.0375 17.4823 9.82614 17.2788 9.71304 17.0197C9.59994 16.7606 9.5944 16.4672 9.69764 16.204C9.99864 15.4411 10.5228 14.7868 11.2015 14.3265C11.8803 13.8662 12.6821 13.6214 13.5022 13.624C15.3107 13.624 16.8464 14.7975 17.3849 16.4299C17.4287 16.5628 17.4459 16.7031 17.4356 16.8426C17.4252 16.9822 17.3875 17.1184 17.3245 17.2434C17.2615 17.3684 17.1745 17.4798 17.0684 17.5711C16.9624 17.6625 16.8394 17.7321 16.7065 17.7759C16.5736 17.8198 16.4333 17.837 16.2937 17.8267C16.1541 17.8163 16.018 17.7785 15.893 17.7155C15.768 17.6526 15.6566 17.5656 15.5652 17.4595C15.4739 17.3535 15.4043 17.2305 15.3604 17.0976C15.2315 16.7066 14.9824 16.3664 14.6488 16.1253C14.3151 15.8843 13.9138 15.7547 13.5022 15.755Z" fill="url(#paint16_linear_860_6410)"/>
<g filter="url(#filter10_f_860_6410)">
<path fill-rule="evenodd" clip-rule="evenodd" d="M25.6146 16.0103C24.8474 16.0103 24.1996 16.4763 23.9382 17.1398C23.8379 17.3741 23.6504 17.5602 23.4153 17.6586C23.1802 17.7569 22.916 17.7599 22.6787 17.6668C22.4415 17.5736 22.2498 17.3918 22.1444 17.1597C22.039 16.9277 22.0281 16.6637 22.114 16.4238C22.391 15.7218 22.8732 15.1198 23.4978 14.6963C24.1223 14.2728 24.86 14.0475 25.6146 14.0498C27.2767 14.0498 28.6917 15.1295 29.1861 16.6312C29.2587 16.8756 29.2333 17.1386 29.1152 17.3646C28.9971 17.5905 28.7956 17.7615 28.5535 17.8414C28.3114 17.9212 28.0477 17.9036 27.8183 17.7922C27.589 17.6809 27.412 17.4845 27.325 17.2449C27.2063 16.8851 26.9771 16.5719 26.6699 16.35C26.3628 16.128 25.9935 16.0087 25.6146 16.0089" fill="#C68D0F"/>
</g>
<g filter="url(#filter11_i_860_6410)">
<path fill-rule="evenodd" clip-rule="evenodd" d="M25.7487 15.755C25.3568 15.7525 24.9733 15.8683 24.6483 16.0873C24.3234 16.3063 24.0721 16.6183 23.9274 16.9825C23.8203 17.2401 23.6165 17.4454 23.3598 17.5544C23.103 17.6634 22.8137 17.6674 22.5541 17.5654C22.2944 17.4635 22.0851 17.2638 21.9711 17.0093C21.857 16.7547 21.8473 16.4656 21.9441 16.204C22.2451 15.4411 22.7692 14.7868 23.448 14.3265C24.1267 13.8662 24.9286 13.6214 25.7487 13.624C27.5572 13.624 29.0929 14.7975 29.6313 16.4299C29.7199 16.6983 29.6982 16.991 29.5709 17.2434C29.4437 17.4958 29.2214 17.6874 28.953 17.7759C28.6845 17.8645 28.3919 17.8428 28.1394 17.7155C27.887 17.5883 27.6954 17.366 27.6069 17.0976C27.4779 16.7066 27.2289 16.3664 26.8952 16.1253C26.5615 15.8843 26.1603 15.7547 25.7487 15.755Z" fill="#422E51"/>
</g>
<g filter="url(#filter12_f_860_6410)">
<path d="M13.3389 23.7285C15.3846 25.645 20.7405 28.3272 25.7924 23.7285" stroke="url(#paint17_linear_860_6410)" stroke-width="0.6" stroke-linecap="round"/>
<path d="M13.3389 23.7285C15.3846 25.645 20.7405 28.3272 25.7924 23.7285" stroke="url(#paint18_linear_860_6410)" stroke-width="0.6" stroke-linecap="round"/>
</g>
<g filter="url(#filter13_f_860_6410)">
<path d="M27.0498 9.91895C28.3085 9.93315 31.0021 10.9006 31.2692 14.2932" stroke="url(#paint19_linear_860_6410)" stroke-width="0.4" stroke-linecap="round"/>
<path d="M27.0498 9.91895C28.3085 9.93315 31.0021 10.9006 31.2692 14.2932" stroke="url(#paint20_linear_860_6410)" stroke-width="0.4" stroke-linecap="round"/>
</g>
<g filter="url(#filter14_f_860_6410)">
<path d="M8.02734 14.2262C8.07849 13.2417 8.65244 11.3579 10.4467 10.541" stroke="url(#paint21_linear_860_6410)" stroke-width="0.4" stroke-linecap="round"/>
</g>
<g filter="url(#filter15_f_860_6410)">
<path d="M16.5672 16.926C16.408 15.977 15.4164 14.1614 12.7129 14.4981" stroke="url(#paint22_linear_860_6410)" stroke-width="0.5" stroke-linecap="round"/>
</g>
<g opacity="0.5" filter="url(#filter16_f_860_6410)">
<path d="M23.0859 16.3983C23.3473 15.7803 24.2509 14.5599 25.7767 14.6224C27.3011 14.6849 28.51 15.7362 28.8311 16.3983" stroke="url(#paint23_linear_860_6410)" stroke-width="0.5" stroke-linecap="round"/>
</g>
<defs>
<filter id="filter0_i_860_6410" x="0" y="0.25" width="38.7061" height="40.25" filterUnits="userSpaceOnUse" color-interpolation-filters="sRGB">
<feFlood flood-opacity="0" result="BackgroundImageFix"/>
<feBlend mode="normal" in="SourceGraphic" in2="BackgroundImageFix" result="shape"/>
<feColorMatrix in="SourceAlpha" type="matrix" values="0 0 0 0 0 0 0 0 0 0 0 0 0 0 0 0 0 0 127 0" result="hardAlpha"/>
<feOffset dx="0.25" dy="-0.25"/>
<feGaussianBlur stdDeviation="0.25"/>
<feComposite in2="hardAlpha" operator="arithmetic" k2="-1" k3="1"/>
<feColorMatrix type="matrix" values="0 0 0 0 0.85098 0 0 0 0 0.447059 0 0 0 0 0.196078 0 0 0 1 0"/>
<feBlend mode="normal" in2="shape" result="effect1_innerShadow_860_6410"/>
</filter>
<filter id="filter1_d_860_6410" x="3.36582" y="5.2002" width="31.1244" height="31.1244" filterUnits="userSpaceOnUse" color-interpolation-filters="sRGB">
<feFlood flood-opacity="0" result="BackgroundImageFix"/>
<feColorMatrix in="SourceAlpha" type="matrix" values="0 0 0 0 0 0 0 0 0 0 0 0 0 0 0 0 0 0 127 0" result="hardAlpha"/>
<feOffset dx="-0.3" dy="0.3"/>
<feGaussianBlur stdDeviation="0.15"/>
<feComposite in2="hardAlpha" operator="out"/>
<feColorMatrix type="matrix" values="0 0 0 0 0.921569 0 0 0 0 0.47451 0 0 0 0 0.133333 0 0 0 1 0"/>
<feBlend mode="normal" in2="BackgroundImageFix" result="effect1_dropShadow_860_6410"/>
<feBlend mode="normal" in="SourceGraphic" in2="effect1_dropShadow_860_6410" result="shape"/>
</filter>
<filter id="filter2_f_860_6410" x="5.13184" y="16.6191" width="9.41016" height="9.41016" filterUnits="userSpaceOnUse" color-interpolation-filters="sRGB">
<feFlood flood-opacity="0" result="BackgroundImageFix"/>
<feBlend mode="normal" in="SourceGraphic" in2="BackgroundImageFix" result="shape"/>
<feGaussianBlur stdDeviation="0.25" result="effect1_foregroundBlur_860_6410"/>
</filter>
<filter id="filter3_f_860_6410" x="23.9131" y="16.6191" width="9.41016" height="9.41016" filterUnits="userSpaceOnUse" color-interpolation-filters="sRGB">
<feFlood flood-opacity="0" result="BackgroundImageFix"/>
<feBlend mode="normal" in="SourceGraphic" in2="BackgroundImageFix" result="shape"/>
<feGaussianBlur stdDeviation="0.25" result="effect1_foregroundBlur_860_6410"/>
</filter>
<filter id="filter4_f_860_6410" x="11.3623" y="22.6445" width="15.7441" height="5.75488" filterUnits="userSpaceOnUse" color-interpolation-filters="sRGB">
<feFlood flood-opacity="0" result="BackgroundImageFix"/>
<feBlend mode="normal" in="SourceGraphic" in2="BackgroundImageFix" result="shape"/>
<feGaussianBlur stdDeviation="0.25" result="effect1_foregroundBlur_860_6410"/>
</filter>
<filter id="filter5_i_860_6410" x="12.2246" y="22.3818" width="14.9551" height="4.98926" filterUnits="userSpaceOnUse" color-interpolation-filters="sRGB">
<feFlood flood-opacity="0" result="BackgroundImageFix"/>
<feBlend mode="normal" in="SourceGraphic" in2="BackgroundImageFix" result="shape"/>
<feColorMatrix in="SourceAlpha" type="matrix" values="0 0 0 0 0 0 0 0 0 0 0 0 0 0 0 0 0 0 127 0" result="hardAlpha"/>
<feOffset dx="0.25" dy="-0.25"/>
<feGaussianBlur stdDeviation="0.5"/>
<feComposite in2="hardAlpha" operator="arithmetic" k2="-1" k3="1"/>
<feColorMatrix type="matrix" values="0 0 0 0 0.203922 0 0 0 0 0.168627 0 0 0 0 0.180392 0 0 0 1 0"/>
<feBlend mode="normal" in2="shape" result="effect1_innerShadow_860_6410"/>
</filter>
<filter id="filter6_i_860_6410" x="7.25098" y="9.14062" width="5.9043" height="5.9043" filterUnits="userSpaceOnUse" color-interpolation-filters="sRGB">
<feFlood flood-opacity="0" result="BackgroundImageFix"/>
<feBlend mode="normal" in="SourceGraphic" in2="BackgroundImageFix" result="shape"/>
<feColorMatrix in="SourceAlpha" type="matrix" values="0 0 0 0 0 0 0 0 0 0 0 0 0 0 0 0 0 0 127 0" result="hardAlpha"/>
<feOffset dx="0.25" dy="-0.25"/>
<feGaussianBlur stdDeviation="0.25"/>
<feComposite in2="hardAlpha" operator="arithmetic" k2="-1" k3="1"/>
<feColorMatrix type="matrix" values="0 0 0 0 0.239216 0 0 0 0 0.156863 0 0 0 0 0.172549 0 0 0 1 0"/>
<feBlend mode="normal" in2="shape" result="effect1_innerShadow_860_6410"/>
</filter>
<filter id="filter7_f_860_6410" x="25.5566" y="9.24902" width="6.45996" height="6.49121" filterUnits="userSpaceOnUse" color-interpolation-filters="sRGB">
<feFlood flood-opacity="0" result="BackgroundImageFix"/>
<feBlend mode="normal" in="SourceGraphic" in2="BackgroundImageFix" result="shape"/>
<feGaussianBlur stdDeviation="0.25" result="effect1_foregroundBlur_860_6410"/>
</filter>
<filter id="filter8_i_860_6410" x="26.2314" y="9.24062" width="5.8043" height="5.8043" filterUnits="userSpaceOnUse" color-interpolation-filters="sRGB">
<feFlood flood-opacity="0" result="BackgroundImageFix"/>
<feBlend mode="normal" in="SourceGraphic" in2="BackgroundImageFix" result="shape"/>
<feColorMatrix in="SourceAlpha" type="matrix" values="0 0 0 0 0 0 0 0 0 0 0 0 0 0 0 0 0 0 127 0" result="hardAlpha"/>
<feOffset dx="0.15" dy="-0.15"/>
<feGaussianBlur stdDeviation="0.25"/>
<feComposite in2="hardAlpha" operator="arithmetic" k2="-1" k3="1"/>
<feColorMatrix type="matrix" values="0 0 0 0 0.270588 0 0 0 0 0.196078 0 0 0 0 0.192157 0 0 0 1 0"/>
<feBlend mode="normal" in2="shape" result="effect1_innerShadow_860_6410"/>
</filter>
<filter id="filter9_f_860_6410" x="9.34414" y="13.6498" width="7.99043" height="4.66914" filterUnits="userSpaceOnUse" color-interpolation-filters="sRGB">
<feFlood flood-opacity="0" result="BackgroundImageFix"/>
<feBlend mode="normal" in="SourceGraphic" in2="BackgroundImageFix" result="shape"/>
<feGaussianBlur stdDeviation="0.2" result="effect1_foregroundBlur_860_6410"/>
</filter>
<filter id="filter10_f_860_6410" x="21.6566" y="13.6498" width="7.96992" height="4.64082" filterUnits="userSpaceOnUse" color-interpolation-filters="sRGB">
<feFlood flood-opacity="0" result="BackgroundImageFix"/>
<feBlend mode="normal" in="SourceGraphic" in2="BackgroundImageFix" result="shape"/>
<feGaussianBlur stdDeviation="0.2" result="effect1_foregroundBlur_860_6410"/>
</filter>
<filter id="filter11_i_860_6410" x="21.8779" y="13.474" width="8.20664" height="4.35508" filterUnits="userSpaceOnUse" color-interpolation-filters="sRGB">
<feFlood flood-opacity="0" result="BackgroundImageFix"/>
<feBlend mode="normal" in="SourceGraphic" in2="BackgroundImageFix" result="shape"/>
<feColorMatrix in="SourceAlpha" type="matrix" values="0 0 0 0 0 0 0 0 0 0 0 0 0 0 0 0 0 0 127 0" result="hardAlpha"/>
<feOffset dx="0.4" dy="-0.15"/>
<feGaussianBlur stdDeviation="0.25"/>
<feComposite in2="hardAlpha" operator="arithmetic" k2="-1" k3="1"/>
<feColorMatrix type="matrix" values="0 0 0 0 0.298039 0 0 0 0 0.196078 0 0 0 0 0.235294 0 0 0 1 0"/>
<feBlend mode="normal" in2="shape" result="effect1_innerShadow_860_6410"/>
</filter>
<filter id="filter12_f_860_6410" x="12.4391" y="22.8287" width="14.2537" height="4.33867" filterUnits="userSpaceOnUse" color-interpolation-filters="sRGB">
<feFlood flood-opacity="0" result="BackgroundImageFix"/>
<feBlend mode="normal" in="SourceGraphic" in2="BackgroundImageFix" result="shape"/>
<feGaussianBlur stdDeviation="0.3" result="effect1_foregroundBlur_860_6410"/>
</filter>
<filter id="filter13_f_860_6410" x="26.4496" y="9.31875" width="5.41914" height="5.57441" filterUnits="userSpaceOnUse" color-interpolation-filters="sRGB">
<feFlood flood-opacity="0" result="BackgroundImageFix"/>
<feBlend mode="normal" in="SourceGraphic" in2="BackgroundImageFix" result="shape"/>
<feGaussianBlur stdDeviation="0.2" result="effect1_foregroundBlur_860_6410"/>
</filter>
<filter id="filter14_f_860_6410" x="7.42715" y="9.94082" width="3.61934" height="4.88496" filterUnits="userSpaceOnUse" color-interpolation-filters="sRGB">
<feFlood flood-opacity="0" result="BackgroundImageFix"/>
<feBlend mode="normal" in="SourceGraphic" in2="BackgroundImageFix" result="shape"/>
<feGaussianBlur stdDeviation="0.2" result="effect1_foregroundBlur_860_6410"/>
</filter>
<filter id="filter15_f_860_6410" x="11.9629" y="13.707" width="5.35449" height="3.96875" filterUnits="userSpaceOnUse" color-interpolation-filters="sRGB">
<feFlood flood-opacity="0" result="BackgroundImageFix"/>
<feBlend mode="normal" in="SourceGraphic" in2="BackgroundImageFix" result="shape"/>
<feGaussianBlur stdDeviation="0.25" result="effect1_foregroundBlur_860_6410"/>
</filter>
<filter id="filter16_f_860_6410" x="22.3359" y="13.8701" width="7.24512" height="3.27832" filterUnits="userSpaceOnUse" color-interpolation-filters="sRGB">
<feFlood flood-opacity="0" result="BackgroundImageFix"/>
<feBlend mode="normal" in="SourceGraphic" in2="BackgroundImageFix" result="shape"/>
<feGaussianBlur stdDeviation="0.25" result="effect1_foregroundBlur_860_6410"/>
</filter>
<linearGradient id="paint0_linear_860_6410" x1="31.0817" y1="7.2165" x2="9.27443" y2="35.0403" gradientUnits="userSpaceOnUse">
<stop stop-color="#FC8B23"/>
<stop offset="1" stop-color="#E67639"/>
</linearGradient>
<radialGradient id="paint1_radial_860_6410" cx="0" cy="0" r="1" gradientUnits="userSpaceOnUse" gradientTransform="translate(22.9006 2.34477) rotate(138.155) scale(5.36819 4.7364)">
<stop offset="0.3" stop-color="#FFA13A"/>
<stop offset="1" stop-color="#FFA13A" stop-opacity="0"/>
</radialGradient>
<radialGradient id="paint2_radial_860_6410" cx="0" cy="0" r="1" gradientUnits="userSpaceOnUse" gradientTransform="translate(8.93347 0.650179) rotate(67.8105) scale(8.53416 7.52978)">
<stop offset="0.3" stop-color="#FF942A"/>
<stop offset="1" stop-color="#FF942A" stop-opacity="0"/>
</radialGradient>
<radialGradient id="paint3_radial_860_6410" cx="0" cy="0" r="1" gradientUnits="userSpaceOnUse" gradientTransform="translate(31.8517 8.61086) rotate(-164.745) scale(3.40268 4.71146)">
<stop offset="0.3" stop-color="#FFA13D"/>
<stop offset="1" stop-color="#FFA13D" stop-opacity="0"/>
</radialGradient>
<radialGradient id="paint4_radial_860_6410" cx="0" cy="0" r="1" gradientUnits="userSpaceOnUse" gradientTransform="translate(38.7163 13.5669) rotate(154.195) scale(6.03311 4.4559)">
<stop offset="0.3" stop-color="#FFA13D"/>
<stop offset="1" stop-color="#FFA13D" stop-opacity="0"/>
</radialGradient>
<radialGradient id="paint5_radial_860_6410" cx="0" cy="0" r="1" gradientUnits="userSpaceOnUse" gradientTransform="translate(40.029 23.7715) rotate(-173.379) scale(6.72983 3.79251)">
<stop offset="0.3" stop-color="#FFA13D"/>
<stop offset="1" stop-color="#FFA13D" stop-opacity="0"/>
</radialGradient>
<radialGradient id="paint6_radial_860_6410" cx="0" cy="0" r="1" gradientUnits="userSpaceOnUse" gradientTransform="translate(34.0008 31.5917) rotate(-43.964) scale(6.10451 5.88098)">
<stop stop-color="#E0762A"/>
<stop offset="1" stop-color="#E0762A" stop-opacity="0"/>
</radialGradient>
<radialGradient id="paint7_radial_860_6410" cx="0" cy="0" r="1" gradientUnits="userSpaceOnUse" gradientTransform="translate(5.70855 30.1589) rotate(-127.747) scale(4.68002 4.50863)">
<stop stop-color="#E0762A"/>
<stop offset="1" stop-color="#E0762A" stop-opacity="0"/>
</radialGradient>
<radialGradient id="paint8_radial_860_6410" cx="0" cy="0" r="1" gradientUnits="userSpaceOnUse" gradientTransform="translate(-0.677343 14.3411) rotate(25.2776) scale(4.75253 5.74411)">
<stop stop-color="#F0851D"/>
<stop offset="1" stop-color="#F0851D" stop-opacity="0"/>
</radialGradient>
<radialGradient id="paint9_radial_860_6410" cx="0" cy="0" r="1" gradientUnits="userSpaceOnUse" gradientTransform="translate(27.6935 38.3705) rotate(-142.487) scale(5.54096 5.2274)">
<stop offset="0.337" stop-color="#E3745B"/>
<stop offset="1" stop-color="#E3745B" stop-opacity="0"/>
</radialGradient>
<radialGradient id="paint10_radial_860_6410" cx="0" cy="0" r="1" gradientUnits="userSpaceOnUse" gradientTransform="translate(27.8907 11.6209) rotate(130.262) scale(24.8507 25.3232)">
<stop offset="0.172" stop-color="#FFD13D"/>
<stop offset="1" stop-color="#DCA21C"/>
</radialGradient>
<radialGradient id="paint11_radial_860_6410" cx="0" cy="0" r="1" gradientUnits="userSpaceOnUse" gradientTransform="translate(9.82991 21.3172) scale(4.56153 4.56154)">
<stop offset="0.25" stop-color="#ED501F"/>
<stop offset="0.895" stop-color="#F18A42" stop-opacity="0"/>
</radialGradient>
<radialGradient id="paint12_radial_860_6410" cx="0" cy="0" r="1" gradientUnits="userSpaceOnUse" gradientTransform="translate(28.6126 21.3172) scale(4.56153 4.56154)">
<stop offset="0.13" stop-color="#FB6738"/>
<stop offset="0.895" stop-color="#F18A42" stop-opacity="0"/>
</radialGradient>
<linearGradient id="paint13_linear_860_6410" x1="12.2251" y1="24.9949" x2="26.9546" y2="24.9949" gradientUnits="userSpaceOnUse">
<stop stop-color="#31243C"/>
<stop offset="1" stop-color="#3F2950"/>
</linearGradient>
<linearGradient id="paint14_linear_860_6410" x1="26.956" y1="23.2162" x2="26.0951" y2="24.0146" gradientUnits="userSpaceOnUse">
<stop stop-color="#665C6D"/>
<stop offset="1" stop-color="#665C6D" stop-opacity="0"/>
</linearGradient>
<radialGradient id="paint15_radial_860_6410" cx="0" cy="0" r="1" gradientUnits="userSpaceOnUse" gradientTransform="translate(12.9044 9.91925) rotate(127.543) scale(1.59578)">
<stop stop-color="#59525C"/>
<stop offset="1" stop-color="#59525C" stop-opacity="0"/>
</radialGradient>
<linearGradient id="paint16_linear_860_6410" x1="9.61808" y1="15.7252" x2="17.4389" y2="15.7252" gradientUnits="userSpaceOnUse">
<stop stop-color="#2E2931"/>
<stop offset="1" stop-color="#362A3F"/>
</linearGradient>
<linearGradient id="paint17_linear_860_6410" x1="12.9908" y1="22.9457" x2="19.5656" y2="26.2687" gradientUnits="userSpaceOnUse">
<stop stop-color="#4E4753"/>
<stop offset="1" stop-color="#4E4753" stop-opacity="0"/>
</linearGradient>
<linearGradient id="paint18_linear_860_6410" x1="26.6633" y1="22.7284" x2="18.5641" y2="26.7332" gradientUnits="userSpaceOnUse">
<stop offset="0.09" stop-color="#5E5468"/>
<stop offset="1" stop-color="#5E5468" stop-opacity="0"/>
</linearGradient>
<linearGradient id="paint19_linear_860_6410" x1="26.5625" y1="9.74136" x2="29.759" y2="11.7843" gradientUnits="userSpaceOnUse">
<stop stop-color="#60556A"/>
<stop offset="1" stop-color="#60556A" stop-opacity="0"/>
</linearGradient>
<linearGradient id="paint20_linear_860_6410" x1="31.5121" y1="13.715" x2="28.7589" y2="9.0978" gradientUnits="userSpaceOnUse">
<stop stop-color="#5D4F69"/>
<stop offset="1" stop-color="#5D4F69" stop-opacity="0"/>
</linearGradient>
<linearGradient id="paint21_linear_860_6410" x1="8.35978" y1="14.7149" x2="8.50185" y2="10.4799" gradientUnits="userSpaceOnUse">
<stop stop-color="#524D53"/>
<stop offset="1" stop-color="#524D53" stop-opacity="0"/>
</linearGradient>
<linearGradient id="paint22_linear_860_6410" x1="15.5642" y1="16.926" x2="12.1446" y2="16.4004" gradientUnits="userSpaceOnUse">
<stop stop-color="#524D53"/>
<stop offset="1" stop-color="#5C5463" stop-opacity="0"/>
</linearGradient>
<linearGradient id="paint23_linear_860_6410" x1="27.2016" y1="16.6852" x2="22.1611" y2="15.9593" gradientUnits="userSpaceOnUse">
<stop stop-color="#61556C"/>
<stop offset="1" stop-color="#554A5F"/>
</linearGradient>
</defs>
</svg>
