<svg width="current" height="current" viewBox="0 0 24 24" fill="none" xmlns="http://www.w3.org/2000/svg">
<path d="M5 22.0005C4.45 22.0005 3.97933 21.8048 3.588 21.4135C3.19667 21.0221 3.00067 20.5511 3 20.0005V16.2005C3 15.9671 3.04167 15.7338 3.125 15.5005C3.20833 15.2671 3.33333 15.0588 3.5 14.8755L5.05 13.1255C5.23333 12.9088 5.471 12.7965 5.763 12.7885C6.055 12.7805 6.30067 12.8761 6.5 13.0755C6.68333 13.2588 6.78333 13.4838 6.8 13.7505C6.81667 14.0171 6.73333 14.2505 6.55 14.4505L5.175 16.0005H18.825L17.5 14.5005C17.3167 14.3005 17.2333 14.0671 17.25 13.8005C17.2667 13.5338 17.3667 13.3088 17.55 13.1255C17.75 12.9255 17.996 12.8295 18.288 12.8375C18.58 12.8455 18.8173 12.9581 19 13.1755L20.5 14.8755C20.6667 15.0588 20.7917 15.2671 20.875 15.5005C20.9583 15.7338 21 15.9671 21 16.2005V20.0005C21 20.5505 20.8043 21.0215 20.413 21.4135C20.0217 21.8055 19.5507 22.0011 19 22.0005H5ZM5 20.0005H19V18.0005H5V20.0005ZM10.625 14.3755L7.1 10.8505C6.71667 10.4671 6.52933 9.99646 6.538 9.43846C6.54667 8.88046 6.74233 8.40946 7.125 8.02546L12.025 3.12546C12.4083 2.74212 12.8833 2.54212 13.45 2.52546C14.0167 2.50879 14.4917 2.69212 14.875 3.07546L18.4 6.60046C18.7833 6.98379 18.9833 7.45046 19 8.00046C19.0167 8.55046 18.8333 9.01712 18.45 9.40046L13.45 14.4005C13.0667 14.7838 12.596 14.9715 12.038 14.9635C11.48 14.9555 11.009 14.7595 10.625 14.3755ZM17 8.02546L13.475 4.50046L8.525 9.45046L12.05 12.9755L17 8.02546Z" fill="black"/>
</svg>
