<svg width="193" height="57" viewBox="0 0 193 57" fill="none" xmlns="http://www.w3.org/2000/svg">
<path d="M1.2 45.904C0.858667 43.1733 0.645334 40.3573 0.56 37.456C0.474667 34.5547 0.432 31.504 0.432 28.304C0.432 25.104 0.474667 22.0533 0.56 19.152C0.645334 16.2507 0.858667 13.456 1.2 10.768C1.41333 8.72 2.13867 7.03467 3.376 5.712C4.656 4.38933 6.23467 3.344 8.112 2.576C9.98933 1.76533 12.08 1.21066 14.384 0.911999C16.688 0.570665 18.992 0.399998 21.296 0.399998C23.728 0.399998 26.1173 0.549332 28.464 0.848C30.8533 1.104 32.9867 1.65866 34.864 2.512C36.784 3.36533 38.32 4.58133 39.472 6.16C40.624 7.73867 41.2 9.808 41.2 12.368C41.2 14.4587 40.7307 15.7813 39.792 16.336C38.8533 16.8907 37.1253 16.8267 34.608 16.144C33.7547 15.9307 32.8587 15.76 31.92 15.632C31.024 15.4613 30.1707 15.376 29.36 15.376C27.056 15.376 25.072 15.5467 23.408 15.888C21.744 16.1867 20.2293 16.6133 18.864 17.168C18.5227 17.296 18.288 17.488 18.16 17.744C18.032 18 17.9893 18.256 18.032 18.512C18.1173 18.7253 18.2667 18.896 18.48 19.024C18.736 19.1093 19.056 19.088 19.44 18.96C20.848 18.448 22.384 18.064 24.048 17.808C25.712 17.552 27.3333 17.424 28.912 17.424C30.5333 17.3813 32.048 17.488 33.456 17.744C34.864 18 35.9947 18.384 36.848 18.896C38.3413 19.8347 39.4293 21.0293 40.112 22.48C40.8373 23.9307 41.2 25.872 41.2 28.304C41.2 30.736 40.8373 32.6987 40.112 34.192C39.4293 35.6427 38.3413 36.816 36.848 37.712C35.9947 38.2667 34.864 38.672 33.456 38.928C32.048 39.184 30.5333 39.312 28.912 39.312C27.3333 39.2693 25.712 39.12 24.048 38.864C22.384 38.5653 20.848 38.16 19.44 37.648C19.056 37.52 18.736 37.52 18.48 37.648C18.2667 37.776 18.1173 37.9467 18.032 38.16C17.9893 38.3733 18.032 38.608 18.16 38.864C18.288 39.12 18.5227 39.312 18.864 39.44C20.2293 39.9947 21.744 40.4213 23.408 40.72C25.072 41.0187 27.056 41.168 29.36 41.168C30.1707 41.168 31.024 41.104 31.92 40.976C32.8587 40.848 33.7547 40.6773 34.608 40.464C37.1253 39.824 38.8533 39.7813 39.792 40.336C40.7307 40.848 41.2 42.128 41.2 44.176C41.2 46.736 40.624 48.8053 39.472 50.384C38.32 51.9627 36.784 53.1787 34.864 54.032C32.9867 54.928 30.8533 55.504 28.464 55.76C26.1173 56.0587 23.728 56.208 21.296 56.208C18.992 56.208 16.688 56.0373 14.384 55.696C12.08 55.3973 9.98933 54.8427 8.112 54.032C6.23467 53.264 4.656 52.2187 3.376 50.896C2.13867 49.5733 1.41333 47.9093 1.2 45.904ZM62.697 16.784C61.6303 17.8933 60.7557 19.152 60.073 20.56C59.3903 21.968 58.985 23.44 58.857 24.976C58.7717 25.744 58.9423 26.1707 59.369 26.256C59.8383 26.3413 60.1583 26.0427 60.329 25.36C61.1823 21.52 62.569 18.832 64.489 17.296C66.409 15.7173 68.841 15.0347 71.785 15.248C73.1077 15.3333 74.217 15.7173 75.113 16.4C76.0517 17.04 76.777 17.8293 77.289 18.768C77.8437 19.7067 78.2277 20.7093 78.441 21.776C78.697 22.8427 78.825 23.824 78.825 24.72C78.825 25.5733 78.7397 26.5547 78.569 27.664C78.441 28.7307 78.1423 29.776 77.673 30.8C77.2037 31.824 76.4997 32.72 75.561 33.488C74.6223 34.256 73.385 34.768 71.849 35.024C70.825 35.1947 69.737 35.088 68.585 34.704C67.4757 34.2773 66.4303 33.6587 65.449 32.848C64.9797 32.4213 64.617 32.3573 64.361 32.656C64.105 32.9547 63.977 33.3813 63.977 33.936C63.8917 36.24 63.785 38.544 63.657 40.848C63.529 43.152 63.3583 45.456 63.145 47.76C63.017 48.9547 62.7397 50.064 62.313 51.088C61.929 52.1547 61.3957 53.072 60.713 53.84C60.0303 54.608 59.177 55.2053 58.153 55.632C57.1717 56.1013 56.0197 56.336 54.697 56.336C53.3317 56.336 52.137 56.1013 51.113 55.632C50.089 55.2053 49.2143 54.608 48.489 53.84C47.8063 53.072 47.273 52.1547 46.889 51.088C46.505 50.064 46.2703 48.9547 46.185 47.76C45.8437 43.0667 45.6943 38.416 45.737 33.808C45.7797 29.1573 45.8437 24.4853 45.929 19.792C45.9717 18.7253 46.2277 17.808 46.697 17.04C47.209 16.272 47.8917 15.824 48.745 15.696C49.4277 15.568 50.217 15.4827 51.113 15.44C52.009 15.3547 52.9477 15.312 53.929 15.312C55.8063 15.312 57.577 15.44 59.241 15.696C60.9477 15.952 62.0997 16.3147 62.697 16.784ZM98.447 16.784C97.3803 17.8933 96.5057 19.152 95.823 20.56C95.1403 21.968 94.735 23.44 94.607 24.976C94.5217 25.744 94.6923 26.1707 95.119 26.256C95.5883 26.3413 95.9083 26.0427 96.079 25.36C96.9323 21.52 98.319 18.832 100.239 17.296C102.159 15.7173 104.591 15.0347 107.535 15.248C108.858 15.3333 109.967 15.7173 110.863 16.4C111.802 17.04 112.527 17.8293 113.039 18.768C113.594 19.7067 113.978 20.7093 114.191 21.776C114.447 22.8427 114.575 23.824 114.575 24.72C114.575 25.5733 114.49 26.5547 114.319 27.664C114.191 28.7307 113.892 29.776 113.423 30.8C112.954 31.824 112.25 32.72 111.311 33.488C110.372 34.256 109.135 34.768 107.599 35.024C106.575 35.1947 105.487 35.088 104.335 34.704C103.226 34.2773 102.18 33.6587 101.199 32.848C100.73 32.4213 100.367 32.3573 100.111 32.656C99.855 32.9547 99.727 33.3813 99.727 33.936C99.6417 36.24 99.535 38.544 99.407 40.848C99.279 43.152 99.1083 45.456 98.895 47.76C98.767 48.9547 98.4897 50.064 98.063 51.088C97.679 52.1547 97.1457 53.072 96.463 53.84C95.7803 54.608 94.927 55.2053 93.903 55.632C92.9217 56.1013 91.7697 56.336 90.447 56.336C89.0817 56.336 87.887 56.1013 86.863 55.632C85.839 55.2053 84.9643 54.608 84.239 53.84C83.5563 53.072 83.023 52.1547 82.639 51.088C82.255 50.064 82.0203 48.9547 81.935 47.76C81.5937 43.0667 81.4443 38.416 81.487 33.808C81.5297 29.1573 81.5937 24.4853 81.679 19.792C81.7217 18.7253 81.9777 17.808 82.447 17.04C82.959 16.272 83.6417 15.824 84.495 15.696C85.1777 15.568 85.967 15.4827 86.863 15.44C87.759 15.3547 88.6977 15.312 89.679 15.312C91.5563 15.312 93.327 15.44 94.991 15.696C96.6977 15.952 97.8497 16.3147 98.447 16.784ZM116.277 36.688C116.277 33.5733 116.768 30.7147 117.749 28.112C118.773 25.4667 120.181 23.2053 121.973 21.328C123.808 19.4507 126.005 17.9787 128.565 16.912C131.125 15.8453 133.984 15.312 137.141 15.312C140.341 15.312 143.114 15.9307 145.461 17.168C147.808 18.4053 149.749 20.0267 151.285 22.032C152.864 24.0373 154.037 26.32 154.805 28.88C155.573 31.44 155.957 34.0427 155.957 36.688C155.914 39.376 155.424 41.936 154.485 44.368C153.589 46.8 152.309 48.9333 150.645 50.768C149.024 52.6453 147.04 54.1173 144.693 55.184C142.389 56.2933 139.808 56.848 136.949 56.848C133.962 56.848 131.21 56.336 128.693 55.312C126.176 54.288 124 52.88 122.165 51.088C120.33 49.296 118.88 47.184 117.813 44.752C116.789 42.2773 116.277 39.5893 116.277 36.688ZM134.197 40.272C134.069 40.528 134.069 40.7627 134.197 40.976C134.325 41.1893 134.517 41.36 134.773 41.488C135.029 41.5733 135.306 41.5947 135.605 41.552C135.946 41.4667 136.224 41.2747 136.437 40.976C137.29 39.696 137.866 38.2453 138.165 36.624C138.464 35.0027 138.634 33.3813 138.677 31.76C138.677 31.376 138.57 31.0987 138.357 30.928C138.144 30.7573 137.888 30.672 137.589 30.672C137.333 30.6293 137.077 30.6933 136.821 30.864C136.608 30.992 136.501 31.184 136.501 31.44C136.373 33.0187 136.138 34.512 135.797 35.92C135.498 37.2853 134.965 38.736 134.197 40.272ZM176.197 16.784C175.13 17.8933 174.256 19.152 173.573 20.56C172.89 21.968 172.485 23.44 172.357 24.976C172.272 25.744 172.442 26.1707 172.869 26.256C173.338 26.3413 173.658 26.0427 173.829 25.36C174.682 21.52 176.069 18.832 177.989 17.296C179.909 15.7173 182.341 15.0347 185.285 15.248C186.608 15.3333 187.717 15.7173 188.613 16.4C189.552 17.04 190.277 17.8293 190.789 18.768C191.344 19.7067 191.728 20.7093 191.941 21.776C192.197 22.8427 192.325 23.824 192.325 24.72C192.325 25.5733 192.24 26.5547 192.069 27.664C191.941 28.7307 191.642 29.776 191.173 30.8C190.704 31.824 190 32.72 189.061 33.488C188.122 34.256 186.885 34.768 185.349 35.024C184.325 35.1947 183.237 35.088 182.085 34.704C180.976 34.2773 179.93 33.6587 178.949 32.848C178.48 32.4213 178.117 32.3573 177.861 32.656C177.605 32.9547 177.477 33.3813 177.477 33.936C177.392 36.24 177.285 38.544 177.157 40.848C177.029 43.152 176.858 45.456 176.645 47.76C176.517 48.9547 176.24 50.064 175.813 51.088C175.429 52.1547 174.896 53.072 174.213 53.84C173.53 54.608 172.677 55.2053 171.653 55.632C170.672 56.1013 169.52 56.336 168.197 56.336C166.832 56.336 165.637 56.1013 164.613 55.632C163.589 55.2053 162.714 54.608 161.989 53.84C161.306 53.072 160.773 52.1547 160.389 51.088C160.005 50.064 159.77 48.9547 159.685 47.76C159.344 43.0667 159.194 38.416 159.237 33.808C159.28 29.1573 159.344 24.4853 159.429 19.792C159.472 18.7253 159.728 17.808 160.197 17.04C160.709 16.272 161.392 15.824 162.245 15.696C162.928 15.568 163.717 15.4827 164.613 15.44C165.509 15.3547 166.448 15.312 167.429 15.312C169.306 15.312 171.077 15.44 172.741 15.696C174.448 15.952 175.6 16.3147 176.197 16.784Z" fill="#FFCD4A"/>
</svg>
