<svg width="217" height="57" viewBox="0 0 217 57" fill="none" xmlns="http://www.w3.org/2000/svg">
<path d="M19.056 37.072C19.0133 38.8213 18.928 40.528 18.8 42.192C18.672 43.856 18.5227 45.52 18.352 47.184C18.224 48.3787 17.968 49.488 17.584 50.512C17.2 51.5787 16.6453 52.496 15.92 53.264C15.2373 54.032 14.384 54.6293 13.36 55.056C12.3787 55.5253 11.2267 55.76 9.904 55.76C8.53867 55.76 7.344 55.5253 6.32 55.056C5.33867 54.6293 4.48533 54.032 3.76 53.264C3.07733 52.496 2.544 51.5787 2.16 50.512C1.776 49.488 1.52 48.3787 1.392 47.184C0.752 41.0827 0.432 34.8107 0.432 28.368C0.432 21.9253 0.752 15.6533 1.392 9.552C1.52 8.35733 1.776 7.248 2.16 6.224C2.544 5.2 3.07733 4.304 3.76 3.536C4.48533 2.768 5.33867 2.17067 6.32 1.744C7.344 1.27466 8.53867 1.04 9.904 1.04C11.2267 1.04 12.3787 1.27466 13.36 1.744C14.384 2.17067 15.2373 2.768 15.92 3.536C16.6453 4.304 17.2 5.2 17.584 6.224C17.968 7.248 18.224 8.35733 18.352 9.552C18.5653 11.6427 18.7147 13.6693 18.8 15.632C18.8853 17.552 18.992 19.6 19.12 21.776C20.016 19.1733 21.0613 16.6773 22.256 14.288C23.4933 11.856 24.6027 9.72267 25.584 7.888C26.224 6.69333 26.992 5.62666 27.888 4.688C28.784 3.70667 29.7653 2.96 30.832 2.448C31.9413 1.89333 33.136 1.59466 34.416 1.552C35.7387 1.50933 37.168 1.808 38.704 2.448C41.264 3.55733 42.9707 5.09333 43.824 7.056C44.72 8.976 44.6773 11.1733 43.696 13.648C43.056 15.3547 42.2667 17.0613 41.328 18.768C40.3893 20.4747 39.3653 22.1173 38.256 23.696C37.1893 25.232 36.0587 26.6827 34.864 28.048C33.6693 29.3707 32.4747 30.5013 31.28 31.44C31.0667 31.568 30.9387 31.7387 30.896 31.952C30.896 32.1653 30.9387 32.3573 31.024 32.528C31.152 32.656 31.3013 32.7413 31.472 32.784C31.6853 32.8267 31.92 32.7627 32.176 32.592C32.6453 32.208 33.0933 31.824 33.52 31.44C33.9893 31.056 34.4373 30.6293 34.864 30.16C35.8027 31.184 36.6987 32.2933 37.552 33.488C38.4053 34.6827 39.1733 35.92 39.856 37.2C40.5813 38.4373 41.2213 39.6747 41.776 40.912C42.3733 42.1493 42.864 43.3227 43.248 44.432C43.9733 46.608 43.8453 48.656 42.864 50.576C41.9253 52.496 40.1973 53.968 37.68 54.992C35.0347 56.016 32.5813 56.0587 30.32 55.12C28.1013 54.1813 26.2453 52.4747 24.752 50C24.368 49.3173 23.92 48.4853 23.408 47.504C22.9387 46.48 22.448 45.392 21.936 44.24C21.424 43.088 20.912 41.8933 20.4 40.656C19.9307 39.4187 19.4827 38.224 19.056 37.072ZM57.398 18.192C56.2887 18.192 55.222 18 54.198 17.616C53.2167 17.232 52.342 16.656 51.574 15.888C50.806 15.12 50.1873 14.1813 49.718 13.072C49.2487 11.9627 49.014 10.704 49.014 9.296C49.014 7.97333 49.2487 6.77866 49.718 5.712C50.1873 4.60266 50.806 3.664 51.574 2.896C52.3847 2.08533 53.2807 1.46666 54.262 1.04C55.286 0.613331 56.3313 0.399998 57.398 0.399998C58.55 0.399998 59.638 0.655998 60.662 1.168C61.686 1.68 62.582 2.36266 63.35 3.216C64.118 4.06933 64.7153 5.05066 65.142 6.16C65.5687 7.22666 65.782 8.336 65.782 9.488C65.782 10.6827 65.5687 11.8133 65.142 12.88C64.7153 13.904 64.1393 14.8213 63.414 15.632C62.6887 16.4 61.7927 17.0187 60.726 17.488C59.702 17.9573 58.5927 18.192 57.398 18.192ZM48.822 50.384C48.2247 46.5867 47.926 42.6827 47.926 38.672C47.926 34.6187 48.2247 30.6933 48.822 26.896C49.0353 25.4027 49.8247 24.144 51.19 23.12C52.598 22.0533 54.6673 21.52 57.398 21.52C60.0433 21.52 62.0273 22.0533 63.35 23.12C64.7153 24.144 65.526 25.4027 65.782 26.896C66.422 30.6933 66.742 34.6187 66.742 38.672C66.742 42.6827 66.422 46.5867 65.782 50.384C65.526 51.8773 64.7153 53.136 63.35 54.16C62.0273 55.2267 60.0433 55.76 57.398 55.76C54.6673 55.76 52.598 55.2267 51.19 54.16C49.8247 53.136 49.0353 51.8773 48.822 50.384ZM102.475 26.448C103.286 26.1493 103.499 25.5733 103.115 24.72C102.859 24.208 102.496 23.6533 102.027 23.056C101.6 22.4587 101.11 21.8613 100.555 21.264C100 20.6667 99.403 20.0907 98.763 19.536C98.123 18.9387 97.483 18.448 96.843 18.064C96.843 17.552 96.8643 16.912 96.907 16.144C96.9497 15.3333 96.9923 14.5227 97.035 13.712C97.0777 12.8587 97.1203 12.0693 97.163 11.344C97.2057 10.6187 97.2483 10.0213 97.291 9.552C97.419 8.35733 97.6963 7.248 98.123 6.224C98.5497 5.2 99.1257 4.304 99.851 3.536C100.619 2.768 101.515 2.17067 102.539 1.744C103.563 1.27466 104.736 1.04 106.059 1.04C107.424 1.04 108.619 1.27466 109.643 1.744C110.71 2.17067 111.606 2.768 112.331 3.536C113.056 4.304 113.632 5.2 114.059 6.224C114.486 7.248 114.763 8.35733 114.891 9.552C115.062 11.2587 115.211 13.072 115.339 14.992C115.467 16.912 115.574 18.8747 115.659 20.88C115.744 22.8427 115.787 24.8053 115.787 26.768C115.83 28.7307 115.83 30.6293 115.787 32.464C115.702 36.3467 115.211 39.7813 114.315 42.768C113.462 45.712 112.075 48.1653 110.155 50.128C108.278 52.1333 105.867 53.648 102.923 54.672C99.979 55.696 96.4163 56.208 92.235 56.208C89.4617 56.208 86.7523 55.8667 84.107 55.184C81.4617 54.544 79.0937 53.4133 77.003 51.792C74.9123 50.1707 73.227 48.016 71.947 45.328C70.667 42.5973 70.027 39.184 70.027 35.088C70.027 31.8453 70.4963 29.0933 71.435 26.832C72.3737 24.5707 73.611 22.736 75.147 21.328C76.683 19.8773 78.411 18.832 80.331 18.192C82.2937 17.552 84.2777 17.232 86.283 17.232C89.483 17.232 92.3843 17.936 94.987 19.344C97.5897 20.752 99.659 22.864 101.195 25.68C101.494 26.32 101.92 26.576 102.475 26.448ZM85.195 39.312C86.731 38.9707 88.2457 38.5227 89.739 37.968C91.2323 37.3707 92.6403 36.5813 93.963 35.6C94.219 35.4293 94.347 35.1947 94.347 34.896C94.347 34.5973 94.2617 34.32 94.091 34.064C93.963 33.808 93.771 33.616 93.515 33.488C93.259 33.36 93.0243 33.3813 92.811 33.552C91.4457 34.5333 90.1017 35.28 88.779 35.792C87.4563 36.304 86.0057 36.7093 84.427 37.008C84.171 37.0933 84.0003 37.264 83.915 37.52C83.8297 37.776 83.8083 38.0533 83.851 38.352C83.9363 38.608 84.0857 38.8427 84.299 39.056C84.5123 39.2693 84.811 39.3547 85.195 39.312ZM137.586 31.312C137.372 31.824 137.436 32.1867 137.778 32.4C138.162 32.5707 138.46 32.4213 138.674 31.952C139.612 29.6053 140.487 27.3013 141.298 25.04C142.151 22.736 143.175 20.496 144.37 18.32C144.796 17.5093 145.351 16.8907 146.034 16.464C146.759 16.0373 147.484 15.824 148.21 15.824C148.978 15.824 149.703 16.0373 150.386 16.464C151.068 16.8907 151.644 17.5093 152.114 18.32C152.626 19.3013 153.18 20.3467 153.778 21.456C154.375 22.5653 154.972 23.8027 155.569 25.168C155.442 25.8933 155.314 26.6613 155.186 27.472C155.1 28.2827 154.994 29.0933 154.866 29.904C154.78 30.2027 154.802 30.4373 154.93 30.608C155.058 30.7787 155.207 30.8853 155.378 30.928C155.548 30.9707 155.719 30.9493 155.89 30.864C156.06 30.736 156.167 30.5013 156.21 30.16C156.679 26.704 157.106 23.2693 157.49 19.856C157.874 16.4 158.428 12.9653 159.154 9.552C159.41 8.35733 159.73 7.248 160.114 6.224C160.54 5.2 161.074 4.304 161.714 3.536C162.396 2.768 163.207 2.17067 164.146 1.744C165.127 1.27466 166.279 1.04 167.602 1.04C168.967 1.04 170.162 1.27466 171.186 1.744C172.252 2.17067 173.148 2.768 173.874 3.536C174.599 4.304 175.154 5.2 175.538 6.224C175.922 7.248 176.114 8.35733 176.114 9.552C176.199 12.5813 176.156 15.7173 175.986 18.96C175.815 22.16 175.538 25.3813 175.154 28.624C174.812 31.824 174.364 35.0027 173.81 38.16C173.298 41.3173 172.743 44.3253 172.146 47.184C171.548 49.744 170.546 51.8133 169.138 53.392C167.772 54.9707 165.874 55.76 163.442 55.76C161.82 55.76 160.476 55.4613 159.41 54.864C158.386 54.3093 157.554 53.5413 156.914 52.56C155.292 50.1707 153.842 47.504 152.562 44.56C151.324 41.616 150.13 38.6507 148.978 35.664C148.764 35.2373 148.508 35.024 148.21 35.024C147.954 35.024 147.74 35.2373 147.57 35.664C146.418 38.6933 145.202 41.68 143.922 44.624C142.684 47.5253 141.255 50.1707 139.634 52.56C138.951 53.5413 138.098 54.3093 137.074 54.864C136.05 55.4613 134.727 55.76 133.106 55.76C130.674 55.76 128.754 54.9707 127.345 53.392C125.938 51.8133 124.956 49.744 124.402 47.184C123.762 44.3253 123.186 41.3173 122.674 38.16C122.162 35.0027 121.714 31.824 121.33 28.624C120.988 25.3813 120.732 22.16 120.562 18.96C120.391 15.7173 120.348 12.5813 120.434 9.552C120.476 8.35733 120.69 7.248 121.074 6.224C121.458 5.2 121.991 4.304 122.674 3.536C123.399 2.768 124.274 2.17067 125.298 1.744C126.364 1.27466 127.559 1.04 128.882 1.04C130.204 1.04 131.335 1.27466 132.274 1.744C133.255 2.17067 134.087 2.768 134.77 3.536C135.452 4.304 135.986 5.2 136.37 6.224C136.796 7.248 137.138 8.35733 137.394 9.552C137.65 10.704 137.884 11.9413 138.098 13.264C138.311 14.5867 138.503 15.952 138.674 17.36C138.887 18.7253 139.079 20.112 139.25 21.52C139.42 22.8853 139.591 24.208 139.762 25.488C139.25 26.512 138.844 27.4293 138.546 28.24C138.247 29.008 137.927 30.032 137.586 31.312ZM188.545 53.328C187.094 52.432 185.836 51.344 184.769 50.064C183.702 48.8267 182.806 47.4827 182.081 46.032C181.356 44.5387 180.801 42.9813 180.417 41.36C180.076 39.7387 179.884 38.096 179.841 36.432C179.798 34.4693 179.99 32.528 180.417 30.608C180.844 28.6453 181.462 26.832 182.273 25.168C183.126 23.4613 184.172 21.9467 185.409 20.624C186.646 19.3013 188.097 18.256 189.761 17.488C191.382 16.7627 193.046 16.2293 194.753 15.888C196.502 15.504 198.23 15.312 199.937 15.312C202.198 15.312 204.353 15.6107 206.401 16.208C208.449 16.7627 210.22 17.6373 211.713 18.832C213.206 20.0267 214.358 21.5413 215.169 23.376C216.022 25.2107 216.385 27.3867 216.257 29.904C216.086 32.9333 215.212 35.2373 213.633 36.816C212.054 38.3947 209.644 39.568 206.401 40.336C205.548 40.5493 204.609 40.6773 203.585 40.72C202.604 40.7627 201.622 40.6987 200.641 40.528C199.702 40.3573 198.806 40.0587 197.953 39.632C197.142 39.2053 196.502 38.608 196.033 37.84C195.862 37.584 195.521 37.4987 195.009 37.584C194.54 37.6267 194.348 37.9467 194.433 38.544C194.476 39.0133 194.71 39.504 195.137 40.016C195.564 40.528 196.118 41.0187 196.801 41.488C197.526 41.9147 198.358 42.2773 199.297 42.576C200.236 42.832 201.281 42.96 202.433 42.96C202.86 42.96 203.329 42.9173 203.841 42.832C204.396 42.704 204.865 42.5973 205.249 42.512C206.7 42.0853 207.937 41.7867 208.961 41.616C210.028 41.4453 210.945 41.4667 211.713 41.68C212.524 41.8933 213.206 42.3627 213.761 43.088C214.316 43.7707 214.828 44.7733 215.297 46.096C216.022 48.144 215.809 49.9147 214.657 51.408C213.548 52.9013 211.393 54.1387 208.193 55.12C206.657 55.5893 205.292 55.888 204.097 56.016C202.945 56.144 201.58 56.208 200.001 56.208C197.953 56.208 195.948 55.9947 193.985 55.568C192.022 55.1413 190.209 54.3947 188.545 53.328ZM197.057 29.328C198.678 28.8587 200.193 28.6453 201.601 28.688C203.052 28.688 204.545 28.8587 206.081 29.2C206.337 29.2427 206.55 29.1573 206.721 28.944C206.934 28.7307 207.062 28.496 207.105 28.24C207.148 27.9413 207.105 27.664 206.977 27.408C206.849 27.152 206.593 26.9813 206.209 26.896C204.716 26.5547 203.137 26.3413 201.473 26.256C199.852 26.128 198.316 26.3627 196.865 26.96C196.524 27.088 196.289 27.3013 196.161 27.6C196.076 27.856 196.054 28.1333 196.097 28.432C196.14 28.7307 196.246 28.9867 196.417 29.2C196.588 29.3707 196.801 29.4133 197.057 29.328Z" fill="#FFCD4A"/>
</svg>
